templateFont.ufo
<glyph name="exclam" format="1">
  <advance width="280"/>
  <unicode hex="0021"/>
  <outline>
    <contour>
      <point x="116" y="192" type="line" name="hr00"/>
      <point x="164" y="192" type="line"/>
      <point x="192" y="496" type="line"/>
      <point x="192" y="688" type="line"/>
      <point x="88" y="688" type="line"/>
      <point x="88" y="496" type="line"/>
    </contour>
    <contour>
      <point x="88" y="0" type="line"/>
      <point x="192" y="0" type="line"/>
      <point x="192" y="108" type="line"/>
      <point x="88" y="108" type="line"/>
    </contour>
  </outline>
</glyph>
<glyph name="quotedbl" format="1">
  <advance width="392"/>
  <unicode hex="0022"/>
  <outline>
    <contour>
      <point x="80" y="436" type="line"/>
      <point x="136" y="436" type="line"/>
      <point x="152" y="604" type="line"/>
      <point x="152" y="688" type="line"/>
      <point x="64" y="688" type="line"/>
      <point x="64" y="604" type="line"/>
    </contour>
    <contour>
      <point x="256" y="436" type="line"/>
      <point x="312" y="436" type="line"/>
      <point x="328" y="604" type="line"/>
      <point x="328" y="688" type="line"/>
      <point x="240" y="688" type="line"/>
      <point x="240" y="604" type="line"/>
    </contour>
  </outline>
</glyph>
<glyph name="numbersign" format="1">
  <advance width="616"/>
  <unicode hex="0023"/>
  <outline>
    <contour>
      <point x="60" y="456" type="line" name="hr01"/>
      <point x="175" y="456" type="line"/>
      <point x="137" y="236" type="line"/>
      <point x="20" y="236" type="line"/>
      <point x="20" y="168" type="line"/>
      <point x="125" y="168" type="line"/>
      <point x="96" y="0" type="line"/>
      <point x="176" y="0" type="line"/>
      <point x="205" y="168" type="line"/>
      <point x="349" y="168" type="line"/>
      <point x="320" y="0" type="line"/>
      <point x="400" y="0" type="line"/>
      <point x="429" y="168" type="line"/>
      <point x="556" y="168" type="line"/>
      <point x="556" y="236" type="line"/>
      <point x="441" y="236" type="line"/>
      <point x="479" y="456" type="line"/>
      <point x="596" y="456" type="line"/>
      <point x="596" y="524" type="line"/>
      <point x="491" y="524" type="line"/>
      <point x="520" y="688" type="line" name="hr02"/>
      <point x="440" y="688" type="line"/>
      <point x="411" y="524" type="line" name="hr03"/>
      <point x="267" y="524" type="line"/>
      <point x="296" y="688" type="line" name="hr04"/>
      <point x="216" y="688" type="line"/>
      <point x="187" y="524" type="line" name="hr05"/>
      <point x="60" y="524" type="line"/>
    </contour>
    <contour>
      <point x="255" y="456" type="line"/>
      <point x="399" y="456" type="line"/>
      <point x="361" y="236" type="line"/>
      <point x="217" y="236" type="line"/>
    </contour>
  </outline>
</glyph>
<glyph name="dollar" format="1">
  <advance width="568"/>
  <unicode hex="0024"/>
  <outline>
    <contour>
      <point x="44" y="192" type="line"/>
      <point x="48" y="79"/>
      <point x="123" y="6"/>
      <point x="236" y="-9" type="curve"/>
      <point x="236" y="-120" type="line"/>
      <point x="324" y="-120" type="line"/>
      <point x="324" y="-9" type="line"/>
      <point x="437" y="5"/>
      <point x="516" y="77"/>
      <point x="516" y="188" type="curve" smooth="yes"/>
      <point x="516" y="284"/>
      <point x="463" y="342"/>
      <point x="356" y="376" type="curve" smooth="yes"/>
      <point x="268" y="404" type="line" smooth="yes"/>
      <point x="191" y="429"/>
      <point x="152" y="453"/>
      <point x="152" y="520" type="curve" smooth="yes"/>
      <point x="152" y="593"/>
      <point x="211" y="628"/>
      <point x="280" y="628" type="curve" smooth="yes"/>
      <point x="348" y="628"/>
      <point x="401" y="593"/>
      <point x="412" y="516" type="curve"/>
      <point x="500" y="516" type="line"/>
      <point x="493" y="616"/>
      <point x="419" y="681"/>
      <point x="324" y="696" type="curve"/>
      <point x="324" y="804" type="line"/>
      <point x="236" y="804" type="line"/>
      <point x="236" y="696" type="line"/>
      <point x="133" y="681"/>
      <point x="60" y="611"/>
      <point x="60" y="512" type="curve" smooth="yes"/>
      <point x="60" y="400"/>
      <point x="144" y="350"/>
      <point x="212" y="328" type="curve" smooth="yes"/>
      <point x="300" y="300" type="line" smooth="yes"/>
      <point x="377" y="276"/>
      <point x="424" y="251"/>
      <point x="424" y="184" type="curve" smooth="yes"/>
      <point x="424" y="107"/>
      <point x="368" y="60"/>
      <point x="280" y="60" type="curve" smooth="yes"/>
      <point x="198" y="60"/>
      <point x="137" y="109"/>
      <point x="132" y="192" type="curve"/>
    </contour>
  </outline>
</glyph>
<glyph name="ampersand" format="1">
  <advance width="712"/>
  <unicode hex="0026"/>
  <outline>
    <contour>
      <point x="48" y="180" type="curve" smooth="yes" name="hr01"/>
      <point x="48" y="64"/>
      <point x="142" y="-12"/>
      <point x="304" y="-12" type="curve" smooth="yes"/>
      <point x="404" y="-12"/>
      <point x="474" y="20"/>
      <point x="522" y="66" type="curve"/>
      <point x="588" y="0" type="line" name="hr02"/>
      <point x="692" y="0" type="line"/>
      <point x="569" y="124" type="line"/>
      <point x="613" y="196"/>
      <point x="624" y="278"/>
      <point x="624" y="324" type="curve" smooth="yes"/>
      <point x="624" y="344" type="line"/>
      <point x="544" y="344" type="line"/>
      <point x="544" y="336" type="line" smooth="yes"/>
      <point x="544" y="280"/>
      <point x="534" y="227"/>
      <point x="513" y="182" type="curve"/>
      <point x="333" y="364" type="line"/>
      <point x="419" y="402"/>
      <point x="500" y="446"/>
      <point x="500" y="544" type="curve" smooth="yes"/>
      <point x="500" y="636"/>
      <point x="428" y="700"/>
      <point x="312" y="700" type="curve" smooth="yes"/>
      <point x="191" y="700"/>
      <point x="124" y="620"/>
      <point x="124" y="536" type="curve" smooth="yes"/>
      <point x="124" y="478"/>
      <point x="149" y="441"/>
      <point x="207" y="380" type="curve"/>
      <point x="124" y="340"/>
      <point x="48" y="287"/>
    </contour>
    <contour>
      <point x="304" y="60" type="curve" smooth="yes"/>
      <point x="209" y="60"/>
      <point x="136" y="106"/>
      <point x="136" y="188" type="curve" smooth="yes"/>
      <point x="136" y="259"/>
      <point x="191" y="297"/>
      <point x="258" y="330" type="curve"/>
      <point x="468" y="119" type="line"/>
      <point x="430" y="82"/>
      <point x="377" y="60"/>
    </contour>
    <contour>
      <point x="204" y="540" type="curve" smooth="yes" name="hr04"/>
      <point x="204" y="588"/>
      <point x="239" y="632"/>
      <point x="312" y="632" type="curve" smooth="yes"/>
      <point x="380" y="632"/>
      <point x="416" y="592"/>
      <point x="416" y="544" type="curve" smooth="yes"/>
      <point x="416" y="480"/>
      <point x="355" y="447"/>
      <point x="282" y="414" type="curve"/>
      <point x="231" y="466"/>
      <point x="204" y="498"/>
    </contour>
  </outline>
</glyph>
<glyph name="quotesingle" format="1">
  <advance width="216"/>
  <unicode hex="0027"/>
  <outline>
    <contour>
      <point x="80" y="436" type="line"/>
      <point x="136" y="436" type="line"/>
      <point x="152" y="604" type="line"/>
      <point x="152" y="688" type="line"/>
      <point x="64" y="688" type="line"/>
      <point x="64" y="604" type="line"/>
    </contour>
  </outline>
</glyph>
<glyph name="asterisk" format="1">
  <advance width="456"/>
  <unicode hex="002A"/>
  <outline>
    <contour>
      <point x="192" y="696" type="line" name="hr01"/>
      <point x="208" y="563" type="line"/>
      <point x="87" y="620" type="line"/>
      <point x="65" y="551" type="line"/>
      <point x="195" y="526" type="line"/>
      <point x="105" y="428" type="line"/>
      <point x="163" y="386" type="line"/>
      <point x="227" y="502" type="line"/>
      <point x="293" y="386" type="line"/>
      <point x="351" y="428" type="line" name="hr02"/>
      <point x="260" y="525" type="line"/>
      <point x="391" y="551" type="line"/>
      <point x="369" y="620" type="line"/>
      <point x="247" y="562" type="line"/>
      <point x="264" y="696" type="line"/>
    </contour>
  </outline>
</glyph>
<glyph name="plus" format="1">
  <advance width="568"/>
  <unicode hex="002B"/>
  <outline>
    <contour>
      <point x="56" y="216" type="line"/>
      <point x="244" y="216" type="line"/>
      <point x="244" y="28" type="line"/>
      <point x="324" y="28" type="line"/>
      <point x="324" y="216" type="line"/>
      <point x="512" y="216" type="line"/>
      <point x="512" y="292" type="line"/>
      <point x="324" y="292" type="line"/>
      <point x="324" y="480" type="line"/>
      <point x="244" y="480" type="line"/>
      <point x="244" y="292" type="line"/>
      <point x="56" y="292" type="line"/>
    </contour>
  </outline>
</glyph>
<glyph name="comma" format="1">
  <advance width="264"/>
  <unicode hex="002C"/>
  <outline>
    <contour>
      <point x="124" y="0" type="line"/>
      <point x="92" y="-156" type="line"/>
      <point x="144" y="-156" type="line"/>
      <point x="188" y="8" type="line"/>
      <point x="188" y="116" type="line"/>
      <point x="76" y="116" type="line"/>
      <point x="76" y="0" type="line"/>
    </contour>
  </outline>
</glyph>
<glyph name="hyphen" format="1">
  <advance width="396"/>
  <unicode hex="002D"/>
  <outline>
    <contour>
      <point x="60" y="212" type="line" name="hr00"/>
      <point x="336" y="212" type="line"/>
      <point x="336" y="292" type="line"/>
      <point x="60" y="292" type="line"/>
    </contour>
  </outline>
</glyph>
<glyph name="period" format="2">
  <advance width="264"/>
  <unicode hex="002E"/>
  <outline>
    <contour>
      <point x="76" y="0" type="line" name="hr00"/>
      <point x="188" y="0" type="line"/>
      <point x="188" y="116" type="line"/>
      <point x="76" y="116" type="line"/>
    </contour>
  </outline>
</glyph>
<glyph name="slash" format="1">
  <advance width="400"/>
  <unicode hex="002F"/>
  <outline>
    <contour>
      <point x="8" y="-12" type="line"/>
      <point x="84" y="-12" type="line"/>
      <point x="392" y="700" type="line"/>
      <point x="316" y="700" type="line"/>
    </contour>
  </outline>
</glyph>
<glyph name="zero" format="1">
  <advance width="568"/>
  <unicode hex="0030"/>
  <outline>
    <contour>
      <point x="284" y="-12" type="curve" smooth="yes" name="hr00"/>
      <point x="456" y="-12"/>
      <point x="524" y="144"/>
      <point x="524" y="344" type="curve" smooth="yes"/>
      <point x="524" y="544"/>
      <point x="456" y="700"/>
      <point x="284" y="700" type="curve" smooth="yes"/>
      <point x="112" y="700"/>
      <point x="44" y="544"/>
      <point x="44" y="344" type="curve" smooth="yes"/>
      <point x="44" y="144"/>
      <point x="112" y="-12"/>
    </contour>
    <contour>
      <point x="284" y="68" type="curve" smooth="yes"/>
      <point x="184" y="68"/>
      <point x="136" y="168"/>
      <point x="136" y="344" type="curve" smooth="yes"/>
      <point x="136" y="520"/>
      <point x="181" y="620"/>
      <point x="284" y="620" type="curve" smooth="yes"/>
      <point x="384" y="620"/>
      <point x="432" y="520"/>
      <point x="432" y="344" type="curve" smooth="yes"/>
      <point x="432" y="168"/>
      <point x="384" y="68"/>
    </contour>
  </outline>
</glyph>
<glyph name="one" format="1">
  <advance width="568"/>
  <unicode hex="0031"/>
  <outline>
    <contour>
      <point x="100" y="468" type="line" name="hr00"/>
      <point x="260" y="579" type="line"/>
      <point x="260" y="76" type="line"/>
      <point x="84" y="76" type="line"/>
      <point x="84" y="0" type="line"/>
      <point x="512" y="0" type="line"/>
      <point x="512" y="76" type="line"/>
      <point x="348" y="76" type="line"/>
      <point x="348" y="688" type="line"/>
      <point x="280" y="688" type="line"/>
      <point x="60" y="536" type="line"/>
    </contour>
  </outline>
</glyph>
<glyph name="two" format="1">
  <advance width="568"/>
  <unicode hex="0032"/>
  <outline>
    <contour>
      <point x="56" y="0" type="curve" name="hr01"/>
      <point x="512" y="0" type="line"/>
      <point x="512" y="76" type="line"/>
      <point x="156" y="76" type="line"/>
      <point x="160" y="119"/>
      <point x="176" y="169"/>
      <point x="280" y="240" type="curve" smooth="yes"/>
      <point x="356" y="292" type="line" smooth="yes"/>
      <point x="427" y="341"/>
      <point x="504" y="384"/>
      <point x="504" y="504" type="curve" smooth="yes"/>
      <point x="504" y="627"/>
      <point x="414" y="700"/>
      <point x="288" y="700" type="curve" smooth="yes"/>
      <point x="180" y="700"/>
      <point x="76" y="648"/>
      <point x="68" y="484" type="curve" name="hr02"/>
      <point x="148" y="484" type="line"/>
      <point x="156" y="576"/>
      <point x="200" y="624"/>
      <point x="288" y="624" type="curve" smooth="yes"/>
      <point x="379" y="624"/>
      <point x="416" y="560"/>
      <point x="416" y="504" type="curve" smooth="yes"/>
      <point x="416" y="424"/>
      <point x="371" y="397"/>
      <point x="300" y="348" type="curve" smooth="yes"/>
      <point x="224" y="296" type="line" smooth="yes"/>
      <point x="119" y="224"/>
      <point x="61" y="154"/>
    </contour>
  </outline>
</glyph>
<glyph name="three" format="2">
  <advance width="568"/>
  <unicode hex="0033"/>
  <outline>
    <contour>
      <point x="48" y="208" type="line" name="hr01"/>
      <point x="48" y="60"/>
      <point x="141" y="-12"/>
      <point x="280" y="-12" type="curve" smooth="yes"/>
      <point x="411" y="-12"/>
      <point x="516" y="61"/>
      <point x="516" y="184" type="curve" smooth="yes"/>
      <point x="516" y="269"/>
      <point x="460" y="336"/>
      <point x="388" y="356" type="curve"/>
      <point x="388" y="360" type="line"/>
      <point x="440" y="380"/>
      <point x="488" y="447"/>
      <point x="488" y="514" type="curve" smooth="yes" name="hr02"/>
      <point x="488" y="622"/>
      <point x="406" y="700"/>
      <point x="280" y="700" type="curve" smooth="yes"/>
      <point x="158" y="700"/>
      <point x="76" y="622"/>
      <point x="76" y="500" type="curve"/>
      <point x="156" y="500" type="line"/>
      <point x="156" y="585"/>
      <point x="212" y="624"/>
      <point x="280" y="624" type="curve" smooth="yes"/>
      <point x="348" y="624"/>
      <point x="404" y="584"/>
      <point x="404" y="513" type="curve" smooth="yes"/>
      <point x="404" y="442"/>
      <point x="348" y="394"/>
      <point x="280" y="394" type="curve" smooth="yes"/>
      <point x="228" y="394" type="line" name="hr03"/>
      <point x="228" y="318" type="line"/>
      <point x="280" y="318" type="line" smooth="yes"/>
      <point x="361" y="318"/>
      <point x="428" y="269"/>
      <point x="428" y="191" type="curve" smooth="yes"/>
      <point x="428" y="110"/>
      <point x="366" y="64"/>
      <point x="280" y="64" type="curve" smooth="yes"/>
      <point x="195" y="64"/>
      <point x="132" y="110"/>
      <point x="132" y="208" type="curve"/>
    </contour>
  </outline>
</glyph>
<glyph name="four" format="1">
  <advance width="568"/>
  <unicode hex="0034"/>
  <outline>
    <contour>
      <point x="32" y="172" type="line" name="hr00"/>
      <point x="348" y="172" type="line"/>
      <point x="348" y="0" type="line"/>
      <point x="436" y="0" type="line"/>
      <point x="436" y="172" type="line"/>
      <point x="536" y="172" type="line"/>
      <point x="536" y="248" type="line"/>
      <point x="436" y="248" type="line"/>
      <point x="436" y="688" type="line"/>
      <point x="364" y="688" type="line"/>
      <point x="32" y="236" type="line"/>
    </contour>
    <contour>
      <point x="122" y="248" type="line"/>
      <point x="348" y="551" type="line"/>
      <point x="348" y="248" type="line"/>
    </contour>
  </outline>
</glyph>
<glyph name="five" format="2">
  <advance width="568"/>
  <unicode hex="0035"/>
  <outline>
    <contour>
      <point x="48" y="184" type="line" name="hr01"/>
      <point x="59" y="66"/>
      <point x="144" y="-12"/>
      <point x="284" y="-12" type="curve" smooth="yes"/>
      <point x="404" y="-12"/>
      <point x="520" y="64"/>
      <point x="520" y="220" type="curve" smooth="yes"/>
      <point x="520" y="358"/>
      <point x="419" y="440"/>
      <point x="296" y="440" type="curve" smooth="yes"/>
      <point x="236" y="440"/>
      <point x="192" y="420"/>
      <point x="164" y="392" type="curve"/>
      <point x="160" y="392" type="line"/>
      <point x="172" y="608" type="line"/>
      <point x="480" y="608" type="line"/>
      <point x="480" y="688" type="line"/>
      <point x="92" y="688" type="line"/>
      <point x="72" y="300" type="line" name="hr02"/>
      <point x="152" y="296" type="line"/>
      <point x="190" y="340"/>
      <point x="230" y="364"/>
      <point x="284" y="364" type="curve" smooth="yes" name="hr03"/>
      <point x="368" y="364"/>
      <point x="432" y="307"/>
      <point x="432" y="212" type="curve" smooth="yes"/>
      <point x="432" y="115"/>
      <point x="360" y="64"/>
      <point x="284" y="64" type="curve" smooth="yes"/>
      <point x="189" y="64"/>
      <point x="144" y="124"/>
      <point x="136" y="184" type="curve"/>
    </contour>
  </outline>
</glyph>
<glyph name="six" format="1">
  <advance width="568"/>
  <unicode hex="0036"/>
  <outline>
    <contour>
      <point x="48" y="328" type="curve" smooth="yes"/>
      <point x="48" y="75"/>
      <point x="164" y="-12"/>
      <point x="300" y="-12" type="curve" smooth="yes"/>
      <point x="419" y="-12"/>
      <point x="532" y="69"/>
      <point x="532" y="216" type="curve" smooth="yes"/>
      <point x="532" y="352"/>
      <point x="444" y="440"/>
      <point x="316" y="440" type="curve" smooth="yes"/>
      <point x="243" y="440"/>
      <point x="168" y="405"/>
      <point x="140" y="349" type="curve"/>
      <point x="145" y="553"/>
      <point x="227" y="624"/>
      <point x="308" y="624" type="curve" smooth="yes"/>
      <point x="388" y="624"/>
      <point x="420" y="576"/>
      <point x="428" y="516" type="curve"/>
      <point x="516" y="516" type="line"/>
      <point x="504" y="624"/>
      <point x="440" y="700"/>
      <point x="308" y="700" type="curve" smooth="yes"/>
      <point x="177" y="700"/>
      <point x="48" y="605"/>
    </contour>
    <contour>
      <point x="304" y="364" type="curve" smooth="yes"/>
      <point x="380" y="364"/>
      <point x="444" y="304"/>
      <point x="444" y="216" type="curve" smooth="yes"/>
      <point x="444" y="118"/>
      <point x="378" y="64"/>
      <point x="296" y="64" type="curve" smooth="yes"/>
      <point x="213" y="64"/>
      <point x="152" y="129"/>
      <point x="152" y="215" type="curve" smooth="yes"/>
      <point x="152" y="300"/>
      <point x="218" y="364"/>
    </contour>
  </outline>
</glyph>
<glyph name="seven" format="1">
  <advance width="568"/>
  <unicode hex="0037"/>
  <outline>
    <contour>
      <point x="140" y="0" type="line" name="hr00"/>
      <point x="232" y="0" type="line"/>
      <point x="524" y="624" type="line"/>
      <point x="524" y="688" type="line"/>
      <point x="52" y="688" type="line"/>
      <point x="52" y="608" type="line"/>
      <point x="428" y="608" type="line"/>
    </contour>
  </outline>
</glyph>
<glyph name="nine" format="2">
  <advance width="568"/>
  <unicode hex="0039"/>
  <outline>
    <contour>
      <point x="520" y="360" type="curve" smooth="yes" name="hr00"/>
      <point x="520" y="613"/>
      <point x="404" y="700"/>
      <point x="268" y="700" type="curve" smooth="yes"/>
      <point x="149" y="700"/>
      <point x="36" y="619"/>
      <point x="36" y="472" type="curve" smooth="yes"/>
      <point x="36" y="336"/>
      <point x="124" y="248"/>
      <point x="252" y="248" type="curve" smooth="yes"/>
      <point x="325" y="248"/>
      <point x="400" y="283"/>
      <point x="428" y="338" type="curve"/>
      <point x="424" y="135"/>
      <point x="361" y="64"/>
      <point x="268" y="64" type="curve" smooth="yes"/>
      <point x="184" y="64"/>
      <point x="152" y="116"/>
      <point x="140" y="172" type="curve"/>
      <point x="52" y="172" type="line"/>
      <point x="68" y="64"/>
      <point x="132" y="-12"/>
      <point x="268" y="-12" type="curve" smooth="yes"/>
      <point x="411" y="-12"/>
      <point x="520" y="83"/>
    </contour>
    <contour>
      <point x="264" y="324" type="curve" smooth="yes"/>
      <point x="188" y="324"/>
      <point x="124" y="384"/>
      <point x="124" y="472" type="curve" smooth="yes"/>
      <point x="124" y="570"/>
      <point x="194" y="624"/>
      <point x="272" y="624" type="curve" smooth="yes"/>
      <point x="354" y="624"/>
      <point x="416" y="558"/>
      <point x="416" y="473" type="curve" smooth="yes"/>
      <point x="416" y="388"/>
      <point x="350" y="324"/>
    </contour>
  </outline>
</glyph>
<glyph name="less" format="1">
  <advance width="568"/>
  <unicode hex="003C"/>
  <outline>
    <contour>
      <point x="72" y="216" type="line"/>
      <point x="496" y="36" type="line"/>
      <point x="496" y="120" type="line"/>
      <point x="161" y="256" type="line"/>
      <point x="496" y="392" type="line"/>
      <point x="496" y="472" type="line"/>
      <point x="72" y="292" type="line"/>
    </contour>
  </outline>
</glyph>
<glyph name="greater" format="1">
  <advance width="568"/>
  <unicode hex="003E"/>
  <outline>
    <contour>
      <point x="496" y="292" type="line" name="hr00"/>
      <point x="72" y="472" type="line"/>
      <point x="72" y="388" type="line"/>
      <point x="407" y="252" type="line"/>
      <point x="72" y="116" type="line"/>
      <point x="72" y="36" type="line"/>
      <point x="496" y="216" type="line"/>
    </contour>
  </outline>
</glyph>
<glyph name="question" format="1">
  <advance width="504"/>
  <unicode hex="003F"/>
  <outline>
    <contour>
      <point x="204" y="196" type="line"/>
      <point x="292" y="196" type="line"/>
      <point x="292" y="236" type="line" smooth="yes"/>
      <point x="292" y="364"/>
      <point x="468" y="356"/>
      <point x="468" y="520" type="curve" smooth="yes"/>
      <point x="468" y="631"/>
      <point x="381" y="700"/>
      <point x="260" y="700" type="curve" smooth="yes"/>
      <point x="109" y="700"/>
      <point x="40" y="593"/>
      <point x="40" y="480" type="curve"/>
      <point x="128" y="480" type="line"/>
      <point x="128" y="558"/>
      <point x="169" y="624"/>
      <point x="260" y="624" type="curve" smooth="yes"/>
      <point x="330" y="624"/>
      <point x="376" y="577"/>
      <point x="376" y="516" type="curve" smooth="yes"/>
      <point x="376" y="396"/>
      <point x="204" y="412"/>
      <point x="204" y="224" type="curve" smooth="yes"/>
    </contour>
    <contour>
      <point x="196" y="0" type="line"/>
      <point x="300" y="0" type="line"/>
      <point x="300" y="108" type="line"/>
      <point x="196" y="108" type="line"/>
    </contour>
  </outline>
</glyph>
<glyph name="at" format="1">
  <advance width="1032"/>
  <unicode hex="0040"/>
  <outline>
    <contour>
      <point x="300" y="128" type="curve" smooth="yes"/>
      <point x="300" y="46"/>
      <point x="360" y="-12"/>
      <point x="464" y="-12" type="curve" smooth="yes"/>
      <point x="539" y="-12"/>
      <point x="605" y="11"/>
      <point x="640" y="74" type="curve"/>
      <point x="664" y="11"/>
      <point x="720" y="-8"/>
      <point x="780" y="-8" type="curve" smooth="yes"/>
      <point x="884" y="-8"/>
      <point x="984" y="72"/>
      <point x="984" y="272" type="curve" smooth="yes"/>
      <point x="984" y="532"/>
      <point x="786" y="700"/>
      <point x="520" y="700" type="curve" smooth="yes"/>
      <point x="234" y="700"/>
      <point x="48" y="492"/>
      <point x="48" y="232" type="curve" smooth="yes"/>
      <point x="48" y="-28"/>
      <point x="234" y="-228"/>
      <point x="508" y="-228" type="curve" smooth="yes"/>
      <point x="640" y="-228"/>
      <point x="749" y="-179"/>
      <point x="820" y="-88" type="curve"/>
      <point x="720" y="-88" type="line"/>
      <point x="668" y="-141"/>
      <point x="586" y="-164"/>
      <point x="508" y="-164" type="curve" smooth="yes"/>
      <point x="278" y="-164"/>
      <point x="124" y="6"/>
      <point x="124" y="232" type="curve" smooth="yes"/>
      <point x="124" y="458"/>
      <point x="278" y="636"/>
      <point x="520" y="636" type="curve" smooth="yes"/>
      <point x="742" y="636"/>
      <point x="908" y="498"/>
      <point x="908" y="272" type="curve" smooth="yes"/>
      <point x="908" y="118"/>
      <point x="846" y="52"/>
      <point x="788" y="52" type="curve" smooth="yes"/>
      <point x="748" y="52"/>
      <point x="708" y="72"/>
      <point x="708" y="165" type="curve" smooth="yes"/>
      <point x="708" y="316" type="line" smooth="yes"/>
      <point x="708" y="432"/>
      <point x="644" y="500"/>
      <point x="512" y="500" type="curve" smooth="yes"/>
      <point x="393" y="500"/>
      <point x="324" y="428"/>
      <point x="320" y="336" type="curve"/>
      <point x="404" y="336" type="line"/>
      <point x="408" y="394"/>
      <point x="444" y="428"/>
      <point x="516" y="428" type="curve" smooth="yes"/>
      <point x="588" y="428"/>
      <point x="620" y="392"/>
      <point x="620" y="328" type="curve" smooth="yes"/>
      <point x="620" y="304"/>
      <point x="604" y="300"/>
      <point x="556" y="292" type="curve" smooth="yes"/>
      <point x="460" y="276" type="line" smooth="yes"/>
      <point x="346" y="257"/>
      <point x="300" y="204"/>
    </contour>
    <contour>
      <point x="620" y="204" type="line" smooth="yes"/>
      <point x="620" y="104"/>
      <point x="556" y="56"/>
      <point x="480" y="56" type="curve" smooth="yes"/>
      <point x="422" y="56"/>
      <point x="388" y="86"/>
      <point x="388" y="132" type="curve" smooth="yes"/>
      <point x="388" y="174"/>
      <point x="410" y="202"/>
      <point x="472" y="212" type="curve" smooth="yes"/>
      <point x="568" y="228" type="line" smooth="yes"/>
      <point x="592" y="232"/>
      <point x="610" y="239"/>
      <point x="620" y="251" type="curve"/>
    </contour>
  </outline>
</glyph>
<glyph name="A" format="1">
  <advance width="644"/>
  <unicode hex="0041"/>
  <outline>
    <contour>
      <point x="12" y="0" type="line" name="hr00"/>
      <point x="104" y="0" type="line"/>
      <point x="169" y="180" type="line"/>
      <point x="471" y="180" type="line"/>
      <point x="536" y="0" type="line"/>
      <point x="632" y="0" type="line"/>
      <point x="376" y="688" type="line"/>
      <point x="268" y="688" type="line"/>
    </contour>
    <contour>
      <point x="322" y="592" type="line"/>
      <point x="442" y="260" type="line"/>
      <point x="198" y="260" type="line"/>
      <point x="318" y="592" type="line"/>
    </contour>
  </outline>
</glyph>
<glyph name="B" format="1">
  <advance width="664"/>
  <unicode hex="0042"/>
  <outline>
    <contour>
      <point x="84" y="0" type="line"/>
      <point x="388" y="0" type="line" smooth="yes"/>
      <point x="537" y="0"/>
      <point x="616" y="87"/>
      <point x="616" y="204" type="curve" smooth="yes"/>
      <point x="616" y="284"/>
      <point x="563" y="345"/>
      <point x="480" y="360" type="curve"/>
      <point x="480" y="364" type="line"/>
      <point x="552" y="387"/>
      <point x="588" y="443"/>
      <point x="588" y="508" type="curve" smooth="yes"/>
      <point x="588" y="621"/>
      <point x="517" y="688"/>
      <point x="368" y="688" type="curve" smooth="yes"/>
      <point x="84" y="688" type="line"/>
    </contour>
    <contour>
      <point x="388" y="316" type="line" smooth="yes"/>
      <point x="480" y="316"/>
      <point x="524" y="267"/>
      <point x="524" y="203" type="curve" smooth="yes"/>
      <point x="524" y="131"/>
      <point x="480" y="80"/>
      <point x="388" y="80" type="curve" smooth="yes"/>
      <point x="176" y="80" type="line"/>
      <point x="176" y="316" type="line"/>
    </contour>
    <contour>
      <point x="368" y="608" type="line" smooth="yes"/>
      <point x="460" y="608"/>
      <point x="496" y="569"/>
      <point x="496" y="509" type="curve" smooth="yes"/>
      <point x="496" y="445"/>
      <point x="452" y="396"/>
      <point x="368" y="396" type="curve" smooth="yes"/>
      <point x="176" y="396" type="line"/>
      <point x="176" y="608" type="line"/>
    </contour>
  </outline>
</glyph>
<glyph name="D" format="2">
  <advance width="704"/>
  <unicode hex="0044"/>
  <outline>
    <contour>
      <point x="88" y="0" type="line" name="hr00"/>
      <point x="300" y="0" type="line" smooth="yes"/>
      <point x="537" y="0"/>
      <point x="660" y="143"/>
      <point x="660" y="344" type="curve" smooth="yes"/>
      <point x="660" y="545"/>
      <point x="537" y="688"/>
      <point x="300" y="688" type="curve" smooth="yes"/>
      <point x="88" y="688" type="line"/>
    </contour>
    <contour>
      <point x="300" y="608" type="line" smooth="yes"/>
      <point x="493" y="608"/>
      <point x="564" y="484"/>
      <point x="564" y="344" type="curve" smooth="yes"/>
      <point x="564" y="204"/>
      <point x="493" y="80"/>
      <point x="300" y="80" type="curve" smooth="yes"/>
      <point x="180" y="80" type="line"/>
      <point x="180" y="608" type="line"/>
    </contour>
  </outline>
</glyph>
<glyph name="E" format="1">
  <advance width="612"/>
  <unicode hex="0045"/>
  <outline>
    <contour>
      <point x="88" y="0" type="line" name="hr00"/>
      <point x="560" y="0" type="line"/>
      <point x="560" y="80" type="line"/>
      <point x="180" y="80" type="line"/>
      <point x="180" y="310" type="line"/>
      <point x="476" y="310" type="line"/>
      <point x="476" y="390" type="line"/>
      <point x="180" y="390" type="line"/>
      <point x="180" y="608" type="line"/>
      <point x="552" y="608" type="line"/>
      <point x="552" y="688" type="line"/>
      <point x="88" y="688" type="line"/>
    </contour>
  </outline>
</glyph>
<glyph name="F" format="2">
  <advance width="576"/>
  <unicode hex="0046"/>
  <outline>
    <contour>
      <point x="88" y="0" type="line" name="hr00"/>
      <point x="180" y="0" type="line"/>
      <point x="180" y="280" type="line"/>
      <point x="468" y="280" type="line"/>
      <point x="468" y="360" type="line"/>
      <point x="180" y="360" type="line"/>
      <point x="180" y="608" type="line"/>
      <point x="544" y="608" type="line"/>
      <point x="544" y="688" type="line"/>
      <point x="88" y="688" type="line"/>
    </contour>
  </outline>
</glyph>
<glyph name="H" format="1">
  <advance width="728"/>
  <unicode hex="0048"/>
  <outline>
    <contour>
      <point x="88" y="0" type="line"/>
      <point x="180" y="0" type="line"/>
      <point x="180" y="308" type="line"/>
      <point x="548" y="308" type="line"/>
      <point x="548" y="0" type="line"/>
      <point x="640" y="0" type="line"/>
      <point x="640" y="688" type="line"/>
      <point x="548" y="688" type="line"/>
      <point x="548" y="388" type="line"/>
      <point x="180" y="388" type="line"/>
      <point x="180" y="688" type="line"/>
      <point x="88" y="688" type="line"/>
    </contour>
  </outline>
</glyph>
<glyph name="I" format="1">
  <advance width="268"/>
  <unicode hex="0049"/>
  <outline>
    <contour>
      <point x="88" y="0" type="line" name="hr00"/>
      <point x="180" y="0" type="line"/>
      <point x="180" y="688" type="line"/>
      <point x="88" y="688" type="line"/>
    </contour>
  </outline>
</glyph>
<glyph name="K" format="1">
  <advance width="652"/>
  <unicode hex="004B"/>
  <outline>
    <contour>
      <point x="88" y="0" type="line"/>
      <point x="180" y="0" type="line"/>
      <point x="180" y="210" type="line"/>
      <point x="288" y="325" type="line"/>
      <point x="540" y="0" type="line"/>
      <point x="644" y="0" type="line"/>
      <point x="349" y="389" type="line"/>
      <point x="632" y="688" type="line"/>
      <point x="524" y="688" type="line"/>
      <point x="180" y="318" type="line"/>
      <point x="180" y="688" type="line"/>
      <point x="88" y="688" type="line"/>
    </contour>
  </outline>
</glyph>
<glyph name="L" format="1">
  <advance width="544"/>
  <unicode hex="004C"/>
  <outline>
    <contour>
      <point x="88" y="0" type="line"/>
      <point x="516" y="0" type="line"/>
      <point x="516" y="80" type="line"/>
      <point x="180" y="80" type="line"/>
      <point x="180" y="688" type="line"/>
      <point x="88" y="688" type="line"/>
    </contour>
  </outline>
</glyph>
<glyph name="M" format="1">
  <advance width="904"/>
  <unicode hex="004D"/>
  <outline>
    <contour>
      <point x="88" y="0" type="line"/>
      <point x="180" y="0" type="line"/>
      <point x="172" y="532" type="line"/>
      <point x="176" y="532" type="line"/>
      <point x="416" y="0" type="line"/>
      <point x="488" y="0" type="line"/>
      <point x="728" y="544" type="line"/>
      <point x="732" y="544" type="line"/>
      <point x="724" y="0" type="line"/>
      <point x="816" y="0" type="line"/>
      <point x="816" y="688" type="line"/>
      <point x="704" y="688" type="line"/>
      <point x="455" y="124" type="line"/>
      <point x="453" y="124" type="line"/>
      <point x="200" y="688" type="line"/>
      <point x="88" y="688" type="line"/>
    </contour>
  </outline>
</glyph>
<glyph name="N" format="1">
  <advance width="736"/>
  <unicode hex="004E"/>
  <outline>
    <contour>
      <point x="88" y="0" type="line" name="hr00"/>
      <point x="180" y="0" type="line"/>
      <point x="176" y="528" type="line"/>
      <point x="180" y="528" type="line"/>
      <point x="560" y="0" type="line"/>
      <point x="648" y="0" type="line"/>
      <point x="648" y="688" type="line"/>
      <point x="556" y="688" type="line"/>
      <point x="560" y="156" type="line"/>
      <point x="556" y="156" type="line"/>
      <point x="176" y="688" type="line"/>
      <point x="88" y="688" type="line"/>
    </contour>
  </outline>
</glyph>
<glyph name="P" format="2">
  <advance width="636"/>
  <unicode hex="0050"/>
  <outline>
    <contour>
      <point x="88" y="0" type="line" name="hr00"/>
      <point x="180" y="0" type="line"/>
      <point x="180" y="240" type="line"/>
      <point x="348" y="240" type="line" smooth="yes"/>
      <point x="505" y="240"/>
      <point x="592" y="339"/>
      <point x="592" y="468" type="curve" smooth="yes"/>
      <point x="592" y="597"/>
      <point x="505" y="688"/>
      <point x="348" y="688" type="curve" smooth="yes"/>
      <point x="88" y="688" type="line"/>
    </contour>
    <contour>
      <point x="352" y="608" type="line" smooth="yes"/>
      <point x="452" y="608"/>
      <point x="500" y="548"/>
      <point x="500" y="468" type="curve" smooth="yes"/>
      <point x="500" y="388"/>
      <point x="452" y="320"/>
      <point x="352" y="320" type="curve" smooth="yes"/>
      <point x="180" y="320" type="line"/>
      <point x="180" y="608" type="line"/>
    </contour>
  </outline>
</glyph>
<glyph name="Q" format="1">
  <advance width="764"/>
  <unicode hex="0051"/>
  <outline>
    <contour>
      <point x="44" y="344" type="curve" smooth="yes"/>
      <point x="44" y="139"/>
      <point x="179" y="-12"/>
      <point x="380" y="-12" type="curve" smooth="yes"/>
      <point x="438" y="-12"/>
      <point x="490" y="1"/>
      <point x="536" y="24" type="curve"/>
      <point x="676" y="-124" type="line"/>
      <point x="740" y="-60" type="line"/>
      <point x="609" y="76" type="line"/>
      <point x="676" y="140"/>
      <point x="716" y="234"/>
      <point x="716" y="344" type="curve" smooth="yes"/>
      <point x="716" y="549"/>
      <point x="577" y="700"/>
      <point x="380" y="700" type="curve" smooth="yes"/>
      <point x="179" y="700"/>
      <point x="44" y="549"/>
    </contour>
    <contour>
      <point x="140" y="344" type="curve" smooth="yes"/>
      <point x="140" y="500"/>
      <point x="235" y="616"/>
      <point x="380" y="616" type="curve" smooth="yes"/>
      <point x="525" y="616"/>
      <point x="620" y="500"/>
      <point x="620" y="344" type="curve" smooth="yes"/>
      <point x="620" y="188"/>
      <point x="525" y="72"/>
      <point x="380" y="72" type="curve" smooth="yes"/>
      <point x="235" y="72"/>
      <point x="140" y="188"/>
    </contour>
  </outline>
</glyph>
<glyph name="T" format="1">
  <advance width="588"/>
  <unicode hex="0054"/>
  <outline>
    <contour>
      <point x="8" y="610" type="line"/>
      <point x="248" y="610" type="line"/>
      <point x="248" y="0" type="line"/>
      <point x="340" y="0" type="line"/>
      <point x="340" y="610" type="line"/>
      <point x="580" y="610" type="line"/>
      <point x="580" y="688" type="line"/>
      <point x="8" y="688" type="line"/>
    </contour>
  </outline>
</glyph>
<glyph name="U" format="1">
  <advance width="696"/>
  <unicode hex="0055"/>
  <outline>
    <contour>
      <point x="72" y="272" type="line" smooth="yes"/>
      <point x="72" y="68"/>
      <point x="185" y="-12"/>
      <point x="348" y="-12" type="curve" smooth="yes"/>
      <point x="511" y="-12"/>
      <point x="624" y="68"/>
      <point x="624" y="272" type="curve" smooth="yes"/>
      <point x="624" y="688" type="line"/>
      <point x="532" y="688" type="line"/>
      <point x="532" y="272" type="line" smooth="yes"/>
      <point x="532" y="146"/>
      <point x="473" y="72"/>
      <point x="348" y="72" type="curve" smooth="yes"/>
      <point x="223" y="72"/>
      <point x="164" y="146"/>
      <point x="164" y="272" type="curve" smooth="yes"/>
      <point x="164" y="688" type="line"/>
      <point x="72" y="688" type="line"/>
    </contour>
  </outline>
</glyph>
<glyph name="V" format="1">
  <advance width="620"/>
  <unicode hex="0056"/>
  <outline>
    <contour>
      <point x="258" y="0" type="line"/>
      <point x="360" y="0" type="line"/>
      <point x="612" y="688" type="line"/>
      <point x="520" y="688" type="line"/>
      <point x="314" y="96" type="line"/>
      <point x="310" y="96" type="line"/>
      <point x="104" y="688" type="line"/>
      <point x="8" y="688" type="line"/>
    </contour>
  </outline>
</glyph>
<glyph name="W" format="1">
  <advance width="936"/>
  <unicode hex="0057"/>
  <outline>
    <contour>
      <point x="196" y="0" type="line" name="hr00"/>
      <point x="312" y="0" type="line"/>
      <point x="468" y="584" type="line"/>
      <point x="472" y="584" type="line"/>
      <point x="628" y="0" type="line"/>
      <point x="744" y="0" type="line"/>
      <point x="924" y="688" type="line"/>
      <point x="832" y="688" type="line"/>
      <point x="690" y="96" type="line"/>
      <point x="686" y="96" type="line"/>
      <point x="528" y="688" type="line"/>
      <point x="416" y="688" type="line"/>
      <point x="258" y="96" type="line"/>
      <point x="254" y="96" type="line"/>
      <point x="108" y="688" type="line"/>
      <point x="12" y="688" type="line"/>
    </contour>
  </outline>
</glyph>
<glyph name="X" format="2">
  <advance width="596"/>
  <unicode hex="0058"/>
  <outline>
    <contour>
      <point x="8" y="0" type="line" name="hr00"/>
      <point x="108" y="0" type="line"/>
      <point x="295" y="281" type="line"/>
      <point x="484" y="0" type="line"/>
      <point x="588" y="0" type="line"/>
      <point x="347" y="354" type="line"/>
      <point x="572" y="688" type="line"/>
      <point x="472" y="688" type="line"/>
      <point x="297" y="424" type="line"/>
      <point x="120" y="688" type="line"/>
      <point x="16" y="688" type="line"/>
      <point x="245" y="351" type="line"/>
    </contour>
  </outline>
</glyph>
<glyph name="Y" format="1">
  <advance width="608"/>
  <unicode hex="0059"/>
  <outline>
    <contour>
      <point x="256" y="0" type="line" name="hr00"/>
      <point x="348" y="0" type="line"/>
      <point x="348" y="277" type="line"/>
      <point x="596" y="688" type="line"/>
      <point x="500" y="688" type="line"/>
      <point x="306" y="364" type="line"/>
      <point x="302" y="364" type="line"/>
      <point x="116" y="688" type="line"/>
      <point x="12" y="688" type="line"/>
      <point x="256" y="270" type="line"/>
    </contour>
  </outline>
</glyph>
<glyph name="bracketleft" format="2">
  <advance width="332"/>
  <unicode hex="005B"/>
  <outline>
    <contour>
      <point x="168" y="-156" type="line" name="hr00"/>
      <point x="168" y="672" type="line"/>
      <point x="316" y="672" type="line"/>
      <point x="316" y="744" type="line"/>
      <point x="88" y="744" type="line"/>
      <point x="88" y="-228" type="line"/>
      <point x="316" y="-228" type="line"/>
      <point x="316" y="-156" type="line"/>
    </contour>
  </outline>
</glyph>
<glyph name="backslash" format="2">
  <advance width="400"/>
  <unicode hex="005C"/>
  <outline>
    <contour>
      <point x="316" y="-12" type="line" name="hr00"/>
      <point x="392" y="-12" type="line"/>
      <point x="84" y="700" type="line"/>
      <point x="8" y="700" type="line"/>
    </contour>
  </outline>
</glyph>
<glyph name="bracketright" format="1">
  <advance width="332"/>
  <unicode hex="005D"/>
  <outline>
    <contour>
      <point x="16" y="-156" type="line"/>
      <point x="16" y="-228" type="line"/>
      <point x="244" y="-228" type="line"/>
      <point x="244" y="744" type="line"/>
      <point x="16" y="744" type="line"/>
      <point x="16" y="672" type="line"/>
      <point x="164" y="672" type="line"/>
      <point x="164" y="-156" type="line"/>
    </contour>
  </outline>
</glyph>
<glyph name="asciicircum" format="1">
  <advance width="568"/>
  <unicode hex="005E"/>
  <outline>
    <contour>
      <point x="54" y="352" type="line"/>
      <point x="142" y="352" type="line"/>
      <point x="284" y="617" type="line"/>
      <point x="426" y="352" type="line"/>
      <point x="518" y="352" type="line"/>
      <point x="330" y="688" type="line"/>
      <point x="242" y="688" type="line"/>
    </contour>
  </outline>
</glyph>
<glyph name="grave" format="1">
  <advance width="560"/>
  <unicode hex="0060"/>
  <outline>
    <contour>
      <point x="248" y="568" type="line"/>
      <point x="312" y="568" type="line"/>
      <point x="208" y="732" type="line"/>
      <point x="104" y="732" type="line"/>
    </contour>
  </outline>
</glyph>
<glyph name="d" format="1">
  <advance width="584"/>
  <unicode hex="0064"/>
  <outline>
    <contour>
      <point x="40" y="240" type="curve" smooth="yes"/>
      <point x="40" y="80"/>
      <point x="132" y="-12"/>
      <point x="256" y="-12" type="curve" smooth="yes"/>
      <point x="324" y="-12"/>
      <point x="388" y="12"/>
      <point x="420" y="76" type="curve"/>
      <point x="424" y="76" type="line"/>
      <point x="424" y="0" type="line"/>
      <point x="508" y="0" type="line"/>
      <point x="508" y="732" type="line"/>
      <point x="420" y="732" type="line"/>
      <point x="420" y="576" type="line" smooth="yes"/>
      <point x="420" y="543"/>
      <point x="420" y="476"/>
      <point x="424" y="412" type="curve"/>
      <point x="420" y="412" type="line"/>
      <point x="388" y="476"/>
      <point x="332" y="500"/>
      <point x="264" y="500" type="curve" smooth="yes"/>
      <point x="140" y="500"/>
      <point x="40" y="400"/>
    </contour>
    <contour>
      <point x="132" y="240" type="curve" smooth="yes"/>
      <point x="132" y="356"/>
      <point x="196" y="424"/>
      <point x="276" y="424" type="curve" smooth="yes"/>
      <point x="356" y="424"/>
      <point x="420" y="360"/>
      <point x="420" y="244" type="curve" smooth="yes"/>
      <point x="420" y="128"/>
      <point x="356" y="64"/>
      <point x="276" y="64" type="curve" smooth="yes"/>
      <point x="196" y="64"/>
      <point x="132" y="124"/>
    </contour>
  </outline>
</glyph>
<glyph name="e" format="1">
  <advance width="524"/>
  <unicode hex="0065"/>
  <outline>
    <contour>
      <point x="40" y="244" type="curve" smooth="yes"/>
      <point x="40" y="88"/>
      <point x="124" y="-12"/>
      <point x="276" y="-12" type="curve" smooth="yes"/>
      <point x="390" y="-12"/>
      <point x="471" y="61"/>
      <point x="484" y="148" type="curve"/>
      <point x="396" y="148" type="line"/>
      <point x="386" y="104"/>
      <point x="348" y="64"/>
      <point x="276" y="64" type="curve" smooth="yes"/>
      <point x="191" y="64"/>
      <point x="136" y="130"/>
      <point x="132" y="232" type="curve"/>
      <point x="488" y="232" type="line"/>
      <point x="488" y="268" type="line" smooth="yes"/>
      <point x="488" y="414"/>
      <point x="400" y="500"/>
      <point x="272" y="500" type="curve" smooth="yes"/>
      <point x="140" y="500"/>
      <point x="40" y="396"/>
    </contour>
    <contour>
      <point x="272" y="424" type="curve" smooth="yes"/>
      <point x="345" y="424"/>
      <point x="390" y="386"/>
      <point x="398" y="298" type="curve"/>
      <point x="137" y="298" type="line"/>
      <point x="153" y="377"/>
      <point x="206" y="424"/>
    </contour>
  </outline>
</glyph>
<glyph name="h" format="1">
  <advance width="564"/>
  <unicode hex="0068"/>
  <outline>
    <contour>
      <point x="76" y="0" type="line" name="hr00"/>
      <point x="164" y="0" type="line"/>
      <point x="164" y="255" type="line" smooth="yes"/>
      <point x="164" y="359"/>
      <point x="222" y="424"/>
      <point x="296" y="424" type="curve" smooth="yes"/>
      <point x="364" y="424"/>
      <point x="408" y="388"/>
      <point x="408" y="284" type="curve" smooth="yes"/>
      <point x="408" y="0" type="line"/>
      <point x="496" y="0" type="line"/>
      <point x="496" y="296" type="line" smooth="yes"/>
      <point x="496" y="448"/>
      <point x="412" y="500"/>
      <point x="316" y="500" type="curve" smooth="yes"/>
      <point x="244" y="500"/>
      <point x="192" y="472"/>
      <point x="164" y="416" type="curve"/>
      <point x="160" y="416" type="line"/>
      <point x="164" y="480"/>
      <point x="164" y="547"/>
      <point x="164" y="580" type="curve" smooth="yes"/>
      <point x="164" y="732" type="line"/>
      <point x="76" y="732" type="line"/>
    </contour>
  </outline>
</glyph>
<glyph name="j" format="1">
  <advance width="240"/>
  <unicode hex="006A"/>
  <outline>
    <contour>
      <point x="72" y="632" type="line"/>
      <point x="168" y="632" type="line"/>
      <point x="168" y="732" type="line"/>
      <point x="72" y="732" type="line"/>
    </contour>
    <contour>
      <point x="76" y="-72" type="line" smooth="yes"/>
      <point x="76" y="-120"/>
      <point x="62" y="-144"/>
      <point x="20" y="-144" type="curve" smooth="yes"/>
      <point x="-4" y="-144" type="line"/>
      <point x="-4" y="-220" type="line"/>
      <point x="28" y="-220" type="line" smooth="yes"/>
      <point x="128" y="-220"/>
      <point x="164" y="-164"/>
      <point x="164" y="-88" type="curve" smooth="yes"/>
      <point x="164" y="488" type="line"/>
      <point x="76" y="488" type="line"/>
    </contour>
  </outline>
</glyph>
<glyph name="k" format="1">
  <advance width="504"/>
  <unicode hex="006B"/>
  <outline>
    <contour>
      <point x="76" y="0" type="line"/>
      <point x="164" y="0" type="line"/>
      <point x="164" y="147" type="line"/>
      <point x="239" y="229" type="line"/>
      <point x="396" y="0" type="line"/>
      <point x="500" y="0" type="line"/>
      <point x="299" y="293" type="line"/>
      <point x="480" y="488" type="line"/>
      <point x="376" y="488" type="line"/>
      <point x="164" y="253" type="line"/>
      <point x="164" y="732" type="line"/>
      <point x="76" y="732" type="line"/>
    </contour>
  </outline>
</glyph>
<glyph name="m" format="2">
  <advance width="864"/>
  <unicode hex="006D"/>
  <outline>
    <contour>
      <point x="76" y="0" type="line" name="hr01"/>
      <point x="164" y="0" type="line"/>
      <point x="164" y="253" type="line" smooth="yes"/>
      <point x="164" y="359"/>
      <point x="222" y="424"/>
      <point x="292" y="424" type="curve" smooth="yes"/>
      <point x="356" y="424"/>
      <point x="392" y="388"/>
      <point x="392" y="292" type="curve" smooth="yes"/>
      <point x="392" y="0" type="line"/>
      <point x="480" y="0" type="line"/>
      <point x="480" y="254" type="line" smooth="yes"/>
      <point x="480" y="359"/>
      <point x="538" y="424"/>
      <point x="608" y="424" type="curve" smooth="yes"/>
      <point x="676" y="424"/>
      <point x="708" y="388"/>
      <point x="708" y="292" type="curve" smooth="yes"/>
      <point x="708" y="0" type="line"/>
      <point x="796" y="0" type="line"/>
      <point x="796" y="304" type="line" smooth="yes"/>
      <point x="796" y="448"/>
      <point x="720" y="500"/>
      <point x="628" y="500" type="curve" smooth="yes"/>
      <point x="550" y="500"/>
      <point x="497" y="470"/>
      <point x="464" y="401" type="curve"/>
      <point x="437" y="472"/>
      <point x="379" y="500"/>
      <point x="312" y="500" type="curve" smooth="yes"/>
      <point x="244" y="500"/>
      <point x="192" y="472"/>
      <point x="164" y="416" type="curve"/>
      <point x="160" y="416" type="line"/>
      <point x="160" y="488" type="line" name="hr02"/>
      <point x="76" y="488" type="line"/>
    </contour>
  </outline>
</glyph>
<glyph name="n" format="2">
  <advance width="564"/>
  <unicode hex="006E"/>
  <outline>
    <contour>
      <point x="76" y="0" type="line" name="hr01"/>
      <point x="164" y="0" type="line"/>
      <point x="164" y="253" type="line" smooth="yes"/>
      <point x="164" y="359"/>
      <point x="222" y="424"/>
      <point x="296" y="424" type="curve" smooth="yes"/>
      <point x="364" y="424"/>
      <point x="408" y="388"/>
      <point x="408" y="284" type="curve" smooth="yes"/>
      <point x="408" y="0" type="line"/>
      <point x="496" y="0" type="line"/>
      <point x="496" y="296" type="line" smooth="yes"/>
      <point x="496" y="448"/>
      <point x="412" y="500"/>
      <point x="316" y="500" type="curve" smooth="yes"/>
      <point x="244" y="500"/>
      <point x="192" y="472"/>
      <point x="164" y="416" type="curve"/>
      <point x="160" y="416" type="line"/>
      <point x="160" y="488" type="line" name="hr02"/>
      <point x="76" y="488" type="line"/>
    </contour>
  </outline>
</glyph>
<glyph name="q" format="1">
  <advance width="580"/>
  <unicode hex="0071"/>
  <outline>
    <contour>
      <point x="420" y="-88" type="curve" name="hr01"/>
      <point x="420" y="-220" type="line"/>
      <point x="508" y="-220" type="line"/>
      <point x="508" y="488" type="line" name="hr02"/>
      <point x="424" y="488" type="line"/>
      <point x="424" y="412" type="line" name="hr03"/>
      <point x="420" y="412" type="line"/>
      <point x="388" y="476"/>
      <point x="332" y="500"/>
      <point x="264" y="500" type="curve" smooth="yes"/>
      <point x="140" y="500"/>
      <point x="40" y="400"/>
      <point x="40" y="240" type="curve" smooth="yes"/>
      <point x="40" y="80"/>
      <point x="132" y="-12"/>
      <point x="256" y="-12" type="curve" smooth="yes"/>
      <point x="324" y="-12"/>
      <point x="388" y="12"/>
      <point x="420" y="76" type="curve"/>
      <point x="424" y="76" type="line"/>
      <point x="420" y="12"/>
      <point x="420" y="-55"/>
    </contour>
    <contour>
      <point x="132" y="240" type="curve" smooth="yes"/>
      <point x="132" y="356"/>
      <point x="196" y="424"/>
      <point x="276" y="424" type="curve" smooth="yes"/>
      <point x="354" y="424"/>
      <point x="417" y="363"/>
      <point x="420" y="252" type="curve" smooth="yes"/>
      <point x="420" y="235" type="line" smooth="yes"/>
      <point x="417" y="125"/>
      <point x="354" y="64"/>
      <point x="276" y="64" type="curve" smooth="yes"/>
      <point x="196" y="64"/>
      <point x="132" y="124"/>
    </contour>
  </outline>
</glyph>
<glyph name="t" format="1">
  <advance width="328"/>
  <unicode hex="0074"/>
  <outline>
    <contour>
      <point x="88" y="144" type="line" smooth="yes"/>
      <point x="88" y="48"/>
      <point x="136" y="0"/>
      <point x="232" y="0" type="curve" smooth="yes"/>
      <point x="304" y="0" type="line"/>
      <point x="304" y="76" type="line"/>
      <point x="244" y="76" type="line" smooth="yes"/>
      <point x="196" y="76"/>
      <point x="176" y="96"/>
      <point x="176" y="148" type="curve" smooth="yes"/>
      <point x="176" y="416" type="line"/>
      <point x="304" y="416" type="line"/>
      <point x="304" y="488" type="line"/>
      <point x="176" y="488" type="line"/>
      <point x="176" y="636" type="line"/>
      <point x="88" y="636" type="line"/>
      <point x="88" y="488" type="line"/>
      <point x="-4" y="488" type="line"/>
      <point x="-4" y="416" type="line"/>
      <point x="88" y="416" type="line"/>
    </contour>
  </outline>
</glyph>
<glyph name="u" format="1">
  <advance width="560"/>
  <unicode hex="0075"/>
  <outline>
    <contour>
      <point x="68" y="192" type="line" smooth="yes"/>
      <point x="68" y="40"/>
      <point x="152" y="-12"/>
      <point x="248" y="-12" type="curve" smooth="yes"/>
      <point x="320" y="-12"/>
      <point x="368" y="16"/>
      <point x="396" y="72" type="curve"/>
      <point x="400" y="72" type="line"/>
      <point x="400" y="0" type="line"/>
      <point x="484" y="0" type="line"/>
      <point x="484" y="488" type="line"/>
      <point x="396" y="488" type="line"/>
      <point x="396" y="236" type="line" smooth="yes"/>
      <point x="396" y="132"/>
      <point x="344" y="64"/>
      <point x="268" y="64" type="curve" smooth="yes"/>
      <point x="200" y="64"/>
      <point x="156" y="100"/>
      <point x="156" y="204" type="curve" smooth="yes"/>
      <point x="156" y="488" type="line"/>
      <point x="68" y="488" type="line"/>
    </contour>
  </outline>
</glyph>
<glyph name="v" format="1">
  <advance width="468"/>
  <unicode hex="0076"/>
  <outline>
    <contour>
      <point x="188" y="0" type="line" name="hr01"/>
      <point x="284" y="0" type="line"/>
      <point x="464" y="488" type="line"/>
      <point x="376" y="488" type="line"/>
      <point x="240" y="96" type="line" name="hr02"/>
      <point x="236" y="96" type="line"/>
      <point x="100" y="488" type="line"/>
      <point x="4" y="488" type="line"/>
    </contour>
  </outline>
</glyph>
<glyph name="x" format="1">
  <advance width="464"/>
  <unicode hex="0078"/>
  <outline>
    <contour>
      <point x="12" y="0" type="line"/>
      <point x="108" y="0" type="line"/>
      <point x="227" y="181" type="line"/>
      <point x="348" y="0" type="line"/>
      <point x="452" y="0" type="line"/>
      <point x="279" y="247" type="line"/>
      <point x="448" y="488" type="line"/>
      <point x="352" y="488" type="line"/>
      <point x="237" y="313" type="line"/>
      <point x="120" y="488" type="line"/>
      <point x="16" y="488" type="line"/>
      <point x="184" y="246" type="line"/>
    </contour>
  </outline>
</glyph>
<glyph name="y" format="2">
  <advance width="468"/>
  <unicode hex="0079"/>
  <outline>
    <contour>
      <point x="33" y="-152" type="line" name="hr00"/>
      <point x="33" y="-228" type="line"/>
      <point x="81" y="-228" type="line" smooth="yes"/>
      <point x="180" y="-228"/>
      <point x="231" y="-148"/>
      <point x="257" y="-76" type="curve" smooth="yes"/>
      <point x="464" y="488" type="line"/>
      <point x="376" y="488" type="line"/>
      <point x="240" y="96" type="line"/>
      <point x="236" y="96" type="line"/>
      <point x="100" y="488" type="line"/>
      <point x="4" y="488" type="line"/>
      <point x="196" y="-21" type="line"/>
      <point x="185" y="-52" type="line" smooth="yes"/>
      <point x="161" y="-118"/>
      <point x="121" y="-152"/>
      <point x="65" y="-152" type="curve" smooth="yes"/>
    </contour>
  </outline>
</glyph>
<glyph name="z" format="1">
  <advance width="444"/>
  <unicode hex="007A"/>
  <outline>
    <contour>
      <point x="32" y="416" type="line" name="hr00"/>
      <point x="300" y="416" type="line"/>
      <point x="36" y="52" type="line"/>
      <point x="36" y="0" type="line"/>
      <point x="412" y="0" type="line"/>
      <point x="412" y="72" type="line"/>
      <point x="149" y="72" type="line"/>
      <point x="408" y="428" type="line"/>
      <point x="408" y="488" type="line"/>
      <point x="32" y="488" type="line"/>
    </contour>
  </outline>
</glyph>
<glyph name="braceleft" format="1">
  <advance width="356"/>
  <unicode hex="007B"/>
  <outline>
    <contour>
      <point x="132" y="-76" type="line" smooth="yes" name="hr01"/>
      <point x="132" y="-172"/>
      <point x="168" y="-228"/>
      <point x="288" y="-228" type="curve" smooth="yes"/>
      <point x="340" y="-228" type="line"/>
      <point x="340" y="-160" type="line"/>
      <point x="292" y="-160" type="line" smooth="yes"/>
      <point x="230" y="-160"/>
      <point x="212" y="-136"/>
      <point x="212" y="-80" type="curve" smooth="yes"/>
      <point x="212" y="124" type="line" smooth="yes"/>
      <point x="212" y="196"/>
      <point x="186" y="240"/>
      <point x="112" y="260" type="curve"/>
      <point x="112" y="264" type="line"/>
      <point x="186" y="284"/>
      <point x="212" y="328"/>
      <point x="212" y="400" type="curve" smooth="yes"/>
      <point x="212" y="596" type="line" smooth="yes"/>
      <point x="212" y="652"/>
      <point x="230" y="676"/>
      <point x="292" y="676" type="curve" smooth="yes"/>
      <point x="340" y="676" type="line"/>
      <point x="340" y="744" type="line"/>
      <point x="288" y="744" type="line" smooth="yes"/>
      <point x="168" y="744"/>
      <point x="132" y="688"/>
      <point x="132" y="592" type="curve" smooth="yes"/>
      <point x="132" y="424" type="line" smooth="yes"/>
      <point x="132" y="326"/>
      <point x="112" y="292"/>
      <point x="20" y="292" type="curve"/>
      <point x="20" y="232" type="line" name="hr02"/>
      <point x="112" y="232"/>
      <point x="132" y="198"/>
      <point x="132" y="100" type="curve" smooth="yes" name="hr03"/>
    </contour>
  </outline>
</glyph>
<glyph name="bar" format="2">
  <advance width="256"/>
  <unicode hex="007C"/>
  <outline>
    <contour>
      <point x="88" y="-240" type="line" name="hr00"/>
      <point x="168" y="-240" type="line"/>
      <point x="168" y="760" type="line"/>
      <point x="88" y="760" type="line"/>
    </contour>
  </outline>
</glyph>
<glyph name="asciitilde" format="1">
  <advance width="568"/>
  <unicode hex="007E"/>
  <outline>
    <contour>
      <point x="56" y="184" type="curve" name="hr01"/>
      <point x="132" y="184" type="line"/>
      <point x="132" y="240"/>
      <point x="152" y="264"/>
      <point x="184" y="264" type="curve" smooth="yes"/>
      <point x="243" y="264"/>
      <point x="297" y="184"/>
      <point x="388" y="184" type="curve" smooth="yes"/>
      <point x="453" y="184"/>
      <point x="512" y="232"/>
      <point x="512" y="336" type="curve" name="hr02"/>
      <point x="436" y="336" type="line"/>
      <point x="436" y="280"/>
      <point x="416" y="260"/>
      <point x="384" y="260" type="curve" smooth="yes"/>
      <point x="324" y="260"/>
      <point x="275" y="336"/>
      <point x="184" y="336" type="curve" smooth="yes"/>
      <point x="115" y="336"/>
      <point x="56" y="288"/>
    </contour>
  </outline>
</glyph>
<glyph name="exclamdown" format="2">
  <advance width="280"/>
  <unicode hex="00A1"/>
  <outline>
    <contour>
      <point x="88" y="380" type="line" name="hr00"/>
      <point x="192" y="380" type="line"/>
      <point x="192" y="488" type="line"/>
      <point x="88" y="488" type="line"/>
    </contour>
    <contour>
      <point x="88" y="-8" type="line"/>
      <point x="88" y="-200" type="line"/>
      <point x="192" y="-200" type="line"/>
      <point x="192" y="-8" type="line"/>
      <point x="164" y="296" type="line"/>
      <point x="116" y="296" type="line"/>
    </contour>
  </outline>
</glyph>
<glyph name="cent" format="1">
  <advance width="568"/>
  <unicode hex="00A2"/>
  <outline>
    <contour>
      <point x="252" y="-12" type="line" name="hr01"/>
      <point x="340" y="-12" type="line"/>
      <point x="340" y="95" type="line"/>
      <point x="443" y="110"/>
      <point x="504" y="179"/>
      <point x="516" y="268" type="curve"/>
      <point x="428" y="268" type="line"/>
      <point x="418" y="212"/>
      <point x="376" y="168"/>
      <point x="296" y="168" type="curve" smooth="yes"/>
      <point x="212" y="168"/>
      <point x="148" y="240"/>
      <point x="148" y="348" type="curve" smooth="yes"/>
      <point x="148" y="456"/>
      <point x="212" y="528"/>
      <point x="296" y="528" type="curve" smooth="yes"/>
      <point x="376" y="528"/>
      <point x="418" y="484"/>
      <point x="428" y="428" type="curve"/>
      <point x="516" y="428" type="line"/>
      <point x="504" y="516"/>
      <point x="445" y="583"/>
      <point x="344" y="600" type="curve" name="hr02"/>
      <point x="344" y="700" type="line"/>
      <point x="256" y="700" type="line"/>
      <point x="256" y="601" type="line"/>
      <point x="143" y="583"/>
      <point x="56" y="488"/>
      <point x="56" y="348" type="curve" smooth="yes"/>
      <point x="56" y="208"/>
      <point x="130" y="113"/>
      <point x="252" y="95" type="curve" name="hr03"/>
    </contour>
  </outline>
</glyph>
<glyph name="sterling" format="1">
  <advance width="568"/>
  <unicode hex="00A3"/>
  <outline>
    <contour>
      <point x="60" y="326" type="line" name="hr01"/>
      <point x="168" y="326" type="line"/>
      <point x="181" y="286"/>
      <point x="192" y="245"/>
      <point x="192" y="204" type="curve" smooth="yes"/>
      <point x="192" y="194"/>
      <point x="191" y="183"/>
      <point x="190" y="172" type="curve"/>
      <point x="168" y="181"/>
      <point x="145" y="188"/>
      <point x="120" y="188" type="curve" smooth="yes"/>
      <point x="54" y="188"/>
      <point x="4" y="150"/>
      <point x="4" y="80" type="curve" smooth="yes"/>
      <point x="4" y="28"/>
      <point x="43" y="-12"/>
      <point x="108" y="-12" type="curve" smooth="yes"/>
      <point x="166" y="-12"/>
      <point x="209" y="20"/>
      <point x="236" y="67" type="curve"/>
      <point x="286" y="29"/>
      <point x="340" y="-12"/>
      <point x="400" y="-12" type="curve" smooth="yes"/>
      <point x="512" y="-12"/>
      <point x="542" y="80"/>
      <point x="548" y="164" type="curve"/>
      <point x="472" y="164" type="line" name="hr02"/>
      <point x="469" y="91"/>
      <point x="445" y="64"/>
      <point x="404" y="64" type="curve" smooth="yes"/>
      <point x="356" y="64"/>
      <point x="311" y="98"/>
      <point x="262" y="131" type="curve"/>
      <point x="271" y="164"/>
      <point x="276" y="199"/>
      <point x="276" y="236" type="curve" smooth="yes"/>
      <point x="276" y="267"/>
      <point x="270" y="296"/>
      <point x="262" y="326" type="curve"/>
      <point x="400" y="326" type="line"/>
      <point x="400" y="388" type="line"/>
      <point x="241" y="388" type="line" name="hr03"/>
      <point x="224" y="436"/>
      <point x="208" y="483"/>
      <point x="208" y="532" type="curve" smooth="yes"/>
      <point x="208" y="593"/>
      <point x="250" y="628"/>
      <point x="300" y="628" type="curve" smooth="yes"/>
      <point x="359" y="628"/>
      <point x="389" y="596"/>
      <point x="396" y="524" type="curve"/>
      <point x="484" y="524" type="line"/>
      <point x="476" y="638"/>
      <point x="412" y="700"/>
      <point x="304" y="700" type="curve" smooth="yes"/>
      <point x="193" y="700"/>
      <point x="120" y="631"/>
      <point x="120" y="524" type="curve" smooth="yes"/>
      <point x="120" y="477"/>
      <point x="133" y="432"/>
      <point x="147" y="388" type="curve"/>
      <point x="60" y="388" type="line"/>
    </contour>
    <contour>
      <point x="110" y="40" type="curve" smooth="yes"/>
      <point x="80" y="40"/>
      <point x="64" y="59"/>
      <point x="64" y="86" type="curve" smooth="yes"/>
      <point x="64" y="113"/>
      <point x="86" y="132"/>
      <point x="112" y="132" type="curve" smooth="yes"/>
      <point x="133" y="132"/>
      <point x="156" y="122"/>
      <point x="178" y="108" type="curve"/>
      <point x="166" y="71"/>
      <point x="145" y="40"/>
    </contour>
  </outline>
</glyph>
<glyph name="currency" format="2">
  <advance width="568"/>
  <unicode hex="00A4"/>
  <outline>
    <contour>
      <point x="132" y="148" type="line" name="hr01"/>
      <point x="190" y="207" type="line"/>
      <point x="216" y="189"/>
      <point x="248" y="180"/>
      <point x="284" y="180" type="curve" smooth="yes"/>
      <point x="319" y="180"/>
      <point x="352" y="189"/>
      <point x="378" y="207" type="curve"/>
      <point x="436" y="148" type="line"/>
      <point x="480" y="192" type="line"/>
      <point x="421" y="251" type="line"/>
      <point x="438" y="277"/>
      <point x="452" y="308"/>
      <point x="452" y="344" type="curve" smooth="yes"/>
      <point x="452" y="380"/>
      <point x="438" y="413"/>
      <point x="420" y="439" type="curve"/>
      <point x="480" y="500" type="line"/>
      <point x="436" y="544" type="line" name="hr02"/>
      <point x="375" y="482" type="line"/>
      <point x="349" y="499"/>
      <point x="318" y="508"/>
      <point x="284" y="508" type="curve" smooth="yes"/>
      <point x="249" y="508"/>
      <point x="218" y="499"/>
      <point x="192" y="482" type="curve"/>
      <point x="132" y="544" type="line" name="hr03"/>
      <point x="88" y="500" type="line"/>
      <point x="148" y="439" type="line"/>
      <point x="130" y="413"/>
      <point x="116" y="380"/>
      <point x="116" y="344" type="curve" smooth="yes"/>
      <point x="116" y="308"/>
      <point x="129" y="277"/>
      <point x="146" y="251" type="curve"/>
      <point x="88" y="192" type="line"/>
    </contour>
    <contour>
      <point x="284" y="244" type="curve" smooth="yes"/>
      <point x="230" y="244"/>
      <point x="188" y="283"/>
      <point x="188" y="344" type="curve" smooth="yes"/>
      <point x="188" y="405"/>
      <point x="230" y="444"/>
      <point x="284" y="444" type="curve" smooth="yes" name="hr04"/>
      <point x="338" y="444"/>
      <point x="380" y="405"/>
      <point x="380" y="344" type="curve" smooth="yes"/>
      <point x="380" y="283"/>
      <point x="338" y="244"/>
    </contour>
  </outline>
</glyph>
<glyph name="yen" format="1">
  <advance width="568"/>
  <unicode hex="00A5"/>
  <outline>
    <contour>
      <point x="88" y="248" type="line" name="hr01"/>
      <point x="240" y="248" type="line"/>
      <point x="240" y="172" type="line"/>
      <point x="88" y="172" type="line"/>
      <point x="88" y="116" type="line"/>
      <point x="240" y="116" type="line"/>
      <point x="240" y="0" type="line" name="hr02"/>
      <point x="328" y="0" type="line"/>
      <point x="328" y="116" type="line" name="hr03"/>
      <point x="480" y="116" type="line"/>
      <point x="480" y="172" type="line"/>
      <point x="328" y="172" type="line"/>
      <point x="328" y="248" type="line"/>
      <point x="480" y="248" type="line"/>
      <point x="480" y="304" type="line"/>
      <point x="328" y="304" type="line"/>
      <point x="328" y="307" type="line"/>
      <point x="552" y="688" type="line"/>
      <point x="460" y="688" type="line"/>
      <point x="290" y="392" type="line"/>
      <point x="286" y="392" type="line"/>
      <point x="116" y="688" type="line"/>
      <point x="16" y="688" type="line"/>
      <point x="240" y="310" type="line"/>
      <point x="240" y="304" type="line"/>
      <point x="88" y="304" type="line"/>
    </contour>
  </outline>
</glyph>
<glyph name="brokenbar" format="1">
  <advance width="256"/>
  <unicode hex="00A6"/>
  <outline>
    <contour>
      <point x="88" y="336" type="line" name="hr00"/>
      <point x="168" y="336" type="line"/>
      <point x="168" y="688" type="line"/>
      <point x="88" y="688" type="line"/>
    </contour>
    <contour>
      <point x="88" y="-164" type="line"/>
      <point x="168" y="-164" type="line"/>
      <point x="168" y="188" type="line"/>
      <point x="88" y="188" type="line"/>
    </contour>
  </outline>
</glyph>
<glyph name="section" format="1">
  <advance width="572"/>
  <unicode hex="00A7"/>
  <outline>
    <contour>
      <point x="68" y="-68" type="line" name="hr01"/>
      <point x="76" y="-180"/>
      <point x="160" y="-228"/>
      <point x="280" y="-228" type="curve" smooth="yes"/>
      <point x="404" y="-228"/>
      <point x="492" y="-164"/>
      <point x="492" y="-56" type="curve" smooth="yes"/>
      <point x="492" y="19"/>
      <point x="452" y="59"/>
      <point x="395" y="85" type="curve"/>
      <point x="467" y="112"/>
      <point x="512" y="168"/>
      <point x="512" y="240" type="curve" smooth="yes" name="hr02"/>
      <point x="512" y="330"/>
      <point x="465" y="383"/>
      <point x="356" y="416" type="curve" smooth="yes"/>
      <point x="264" y="444" type="line" smooth="yes"/>
      <point x="203" y="463"/>
      <point x="168" y="484"/>
      <point x="168" y="536" type="curve" smooth="yes"/>
      <point x="168" y="596"/>
      <point x="212" y="632"/>
      <point x="292" y="632" type="curve" smooth="yes"/>
      <point x="364" y="632"/>
      <point x="414" y="604"/>
      <point x="420" y="540" type="curve"/>
      <point x="504" y="540" type="line"/>
      <point x="496" y="652"/>
      <point x="412" y="700"/>
      <point x="292" y="700" type="curve" smooth="yes"/>
      <point x="168" y="700"/>
      <point x="80" y="636"/>
      <point x="80" y="528" type="curve" smooth="yes"/>
      <point x="80" y="452"/>
      <point x="119" y="413"/>
      <point x="177" y="387" type="curve"/>
      <point x="105" y="360"/>
      <point x="60" y="303"/>
      <point x="60" y="232" type="curve" smooth="yes" name="hr03"/>
      <point x="60" y="142"/>
      <point x="107" y="89"/>
      <point x="216" y="56" type="curve" smooth="yes"/>
      <point x="308" y="28" type="line" smooth="yes"/>
      <point x="369" y="9"/>
      <point x="404" y="-12"/>
      <point x="404" y="-64" type="curve" smooth="yes"/>
      <point x="404" y="-124"/>
      <point x="360" y="-160"/>
      <point x="280" y="-160" type="curve" smooth="yes"/>
      <point x="208" y="-160"/>
      <point x="158" y="-132"/>
      <point x="152" y="-68" type="curve"/>
    </contour>
    <contour>
      <point x="320" y="340" type="line" smooth="yes"/>
      <point x="391" y="318"/>
      <point x="428" y="295"/>
      <point x="428" y="228" type="curve" smooth="yes" name="hr04"/>
      <point x="428" y="176"/>
      <point x="388" y="131"/>
      <point x="309" y="114" type="curve"/>
      <point x="252" y="132" type="line" smooth="yes"/>
      <point x="181" y="153"/>
      <point x="144" y="177"/>
      <point x="144" y="244" type="curve" smooth="yes"/>
      <point x="144" y="294"/>
      <point x="181" y="341"/>
      <point x="255" y="359" type="curve"/>
    </contour>
  </outline>
</glyph>
<glyph name="dieresis" format="2">
  <advance width="560"/>
  <unicode hex="00A8"/>
  <outline>
    <contour>
      <point x="336" y="604" type="line" name="hr00"/>
      <point x="424" y="604" type="line"/>
      <point x="424" y="696" type="line"/>
      <point x="336" y="696" type="line"/>
    </contour>
    <contour>
      <point x="136" y="604" type="line"/>
      <point x="224" y="604" type="line"/>
      <point x="224" y="696" type="line"/>
      <point x="136" y="696" type="line"/>
    </contour>
  </outline>
</glyph>
<glyph name="copyright" format="1">
  <advance width="776"/>
  <unicode hex="00A9"/>
  <outline>
    <contour>
      <point x="36" y="348" type="curve" smooth="yes"/>
      <point x="36" y="147"/>
      <point x="185" y="-12"/>
      <point x="388" y="-12" type="curve" smooth="yes"/>
      <point x="591" y="-12"/>
      <point x="740" y="147"/>
      <point x="740" y="348" type="curve" smooth="yes"/>
      <point x="740" y="549"/>
      <point x="587" y="700"/>
      <point x="388" y="700" type="curve" smooth="yes"/>
      <point x="185" y="700"/>
      <point x="36" y="549"/>
    </contour>
    <contour>
      <point x="108" y="348" type="curve" smooth="yes"/>
      <point x="108" y="512"/>
      <point x="223" y="636"/>
      <point x="388" y="636" type="curve" smooth="yes"/>
      <point x="553" y="636"/>
      <point x="668" y="512"/>
      <point x="668" y="348" type="curve" smooth="yes"/>
      <point x="668" y="184"/>
      <point x="549" y="48"/>
      <point x="388" y="48" type="curve" smooth="yes"/>
      <point x="223" y="48"/>
      <point x="108" y="184"/>
    </contour>
    <contour>
      <point x="216" y="348" type="curve" smooth="yes"/>
      <point x="216" y="251"/>
      <point x="282" y="172"/>
      <point x="388" y="172" type="curve" smooth="yes"/>
      <point x="471" y="172"/>
      <point x="525" y="218"/>
      <point x="538" y="288" type="curve"/>
      <point x="468" y="288" type="line"/>
      <point x="458" y="254"/>
      <point x="435" y="232"/>
      <point x="388" y="232" type="curve" smooth="yes"/>
      <point x="327" y="232"/>
      <point x="288" y="285"/>
      <point x="288" y="348" type="curve" smooth="yes"/>
      <point x="288" y="411"/>
      <point x="327" y="464"/>
      <point x="388" y="464" type="curve" smooth="yes"/>
      <point x="435" y="464"/>
      <point x="458" y="442"/>
      <point x="468" y="408" type="curve"/>
      <point x="538" y="408" type="line"/>
      <point x="525" y="478"/>
      <point x="471" y="524"/>
      <point x="388" y="524" type="curve" smooth="yes"/>
      <point x="282" y="524"/>
      <point x="216" y="445"/>
    </contour>
  </outline>
</glyph>
<glyph name="ordfeminine" format="2">
  <advance width="386"/>
  <unicode hex="00AA"/>
  <outline>
    <contour>
      <point x="151" y="336" type="curve" smooth="yes" name="hr00"/>
      <point x="202" y="336"/>
      <point x="240" y="354"/>
      <point x="260" y="386" type="curve"/>
      <point x="263" y="386" type="line"/>
      <point x="263" y="344" type="line"/>
      <point x="340" y="344" type="line"/>
      <point x="340" y="573" type="line" smooth="yes"/>
      <point x="340" y="656"/>
      <point x="285" y="697"/>
      <point x="195" y="697" type="curve" smooth="yes"/>
      <point x="121" y="697"/>
      <point x="57" y="663"/>
      <point x="52" y="578" type="curve"/>
      <point x="127" y="578" type="line"/>
      <point x="130" y="619"/>
      <point x="157" y="638"/>
      <point x="195" y="638" type="curve" smooth="yes"/>
      <point x="240" y="638"/>
      <point x="260" y="609"/>
      <point x="260" y="576" type="curve" smooth="yes"/>
      <point x="260" y="556"/>
      <point x="249" y="551"/>
      <point x="216" y="547" type="curve" smooth="yes"/>
      <point x="151" y="539" type="line" smooth="yes"/>
      <point x="71" y="528"/>
      <point x="36" y="490"/>
      <point x="36" y="434" type="curve" smooth="yes"/>
      <point x="36" y="376"/>
      <point x="77" y="336"/>
    </contour>
    <contour>
      <point x="173" y="392" type="curve" smooth="yes"/>
      <point x="137" y="392"/>
      <point x="116" y="410"/>
      <point x="116" y="440" type="curve" smooth="yes"/>
      <point x="116" y="465"/>
      <point x="131" y="485"/>
      <point x="170" y="490" type="curve" smooth="yes"/>
      <point x="226" y="497" type="line" smooth="yes"/>
      <point x="242" y="499"/>
      <point x="254" y="504"/>
      <point x="260" y="513" type="curve"/>
      <point x="260" y="482" type="line" smooth="yes"/>
      <point x="260" y="419"/>
      <point x="219" y="392"/>
    </contour>
  </outline>
</glyph>
<glyph name="guillemotleft" format="1">
  <advance width="512"/>
  <unicode hex="00AB"/>
  <outline>
    <contour>
      <point x="244" y="252" type="line"/>
      <point x="388" y="48" type="line"/>
      <point x="460" y="48" type="line"/>
      <point x="344" y="252" type="line"/>
      <point x="460" y="456" type="line"/>
      <point x="388" y="456" type="line"/>
    </contour>
    <contour>
      <point x="196" y="48" type="line"/>
      <point x="268" y="48" type="line"/>
      <point x="152" y="252" type="line"/>
      <point x="268" y="456" type="line"/>
      <point x="196" y="456" type="line"/>
      <point x="52" y="252" type="line"/>
    </contour>
  </outline>
</glyph>
<glyph name="logicalnot" format="2">
  <advance width="568"/>
  <unicode hex="00AC"/>
  <outline>
    <contour>
      <point x="56" y="216" type="line" name="hr00"/>
      <point x="432" y="216" type="line"/>
      <point x="432" y="28" type="line"/>
      <point x="512" y="28" type="line"/>
      <point x="512" y="292" type="line"/>
      <point x="56" y="292" type="line"/>
    </contour>
  </outline>
</glyph>
<glyph name="uni00AD" format="1">
  <advance width="396"/>
  <unicode hex="00AD"/>
  <outline>
    <contour>
      <point x="60" y="212" type="line"/>
      <point x="336" y="212" type="line"/>
      <point x="336" y="292" type="line"/>
      <point x="60" y="292" type="line"/>
    </contour>
  </outline>
</glyph>
<glyph name="registered" format="1">
  <advance width="776"/>
  <unicode hex="00AE"/>
  <outline>
    <contour>
      <point x="36" y="348" type="curve" smooth="yes"/>
      <point x="36" y="147"/>
      <point x="185" y="-12"/>
      <point x="388" y="-12" type="curve" smooth="yes"/>
      <point x="591" y="-12"/>
      <point x="740" y="147"/>
      <point x="740" y="348" type="curve" smooth="yes"/>
      <point x="740" y="549"/>
      <point x="587" y="700"/>
      <point x="388" y="700" type="curve" smooth="yes"/>
      <point x="185" y="700"/>
      <point x="36" y="549"/>
    </contour>
    <contour>
      <point x="108" y="348" type="curve" smooth="yes"/>
      <point x="108" y="512"/>
      <point x="223" y="636"/>
      <point x="388" y="636" type="curve" smooth="yes"/>
      <point x="553" y="636"/>
      <point x="668" y="512"/>
      <point x="668" y="348" type="curve" smooth="yes"/>
      <point x="668" y="184"/>
      <point x="549" y="48"/>
      <point x="388" y="48" type="curve" smooth="yes"/>
      <point x="223" y="48"/>
      <point x="108" y="184"/>
    </contour>
    <contour>
      <point x="248" y="176" type="line"/>
      <point x="320" y="176" type="line"/>
      <point x="320" y="300" type="line"/>
      <point x="393" y="300" type="line"/>
      <point x="470" y="176" type="line"/>
      <point x="548" y="176" type="line"/>
      <point x="460" y="309" type="line"/>
      <point x="505" y="326"/>
      <point x="536" y="365"/>
      <point x="536" y="412" type="curve" smooth="yes"/>
      <point x="536" y="479"/>
      <point x="491" y="520"/>
      <point x="406" y="520" type="curve" smooth="yes"/>
      <point x="248" y="520" type="line"/>
    </contour>
    <contour>
      <point x="404" y="460" type="line" smooth="yes"/>
      <point x="443" y="460"/>
      <point x="464" y="443"/>
      <point x="464" y="412" type="curve" smooth="yes"/>
      <point x="464" y="380"/>
      <point x="444" y="360"/>
      <point x="404" y="360" type="curve" smooth="yes"/>
      <point x="320" y="360" type="line"/>
      <point x="320" y="460" type="line"/>
    </contour>
  </outline>
</glyph>
<glyph name="macron" format="1">
  <advance width="560"/>
  <unicode hex="00AF"/>
  <outline>
    <contour>
      <point x="140" y="616" type="line" name="hr00"/>
      <point x="416" y="616" type="line"/>
      <point x="416" y="684" type="line"/>
      <point x="140" y="684" type="line"/>
    </contour>
  </outline>
</glyph>
<glyph name="degree" format="1">
  <advance width="360"/>
  <unicode hex="00B0"/>
  <outline>
    <contour>
      <point x="180" y="428" type="curve" smooth="yes" name="hr00"/>
      <point x="259" y="428"/>
      <point x="320" y="483"/>
      <point x="320" y="564" type="curve" smooth="yes"/>
      <point x="320" y="645"/>
      <point x="259" y="700"/>
      <point x="180" y="700" type="curve" smooth="yes"/>
      <point x="101" y="700"/>
      <point x="40" y="645"/>
      <point x="40" y="564" type="curve" smooth="yes"/>
      <point x="40" y="483"/>
      <point x="101" y="428"/>
    </contour>
    <contour>
      <point x="180" y="636" type="curve" smooth="yes"/>
      <point x="219" y="636"/>
      <point x="248" y="607"/>
      <point x="248" y="564" type="curve" smooth="yes"/>
      <point x="248" y="521"/>
      <point x="219" y="492"/>
      <point x="180" y="492" type="curve" smooth="yes"/>
      <point x="141" y="492"/>
      <point x="112" y="521"/>
      <point x="112" y="564" type="curve" smooth="yes"/>
      <point x="112" y="607"/>
      <point x="141" y="636"/>
    </contour>
  </outline>
</glyph>
<glyph name="plusminus" format="1">
  <advance width="568"/>
  <unicode hex="00B1"/>
  <outline>
    <contour>
      <point x="56" y="316" type="line"/>
      <point x="244" y="316" type="line"/>
      <point x="244" y="142" type="line"/>
      <point x="324" y="142" type="line"/>
      <point x="324" y="316" type="line"/>
      <point x="512" y="316" type="line"/>
      <point x="512" y="392" type="line"/>
      <point x="324" y="392" type="line"/>
      <point x="324" y="566" type="line"/>
      <point x="244" y="566" type="line"/>
      <point x="244" y="392" type="line"/>
      <point x="56" y="392" type="line"/>
    </contour>
    <contour>
      <point x="56" y="0" type="line"/>
      <point x="512" y="0" type="line"/>
      <point x="512" y="76" type="line"/>
      <point x="56" y="76" type="line"/>
    </contour>
  </outline>
</glyph>
<glyph name="twosuperior" format="1">
  <advance width="352"/>
  <unicode hex="00B2"/>
  <outline>
    <contour>
      <point x="32" y="496" type="curve" name="hr00"/>
      <point x="312" y="496" type="line"/>
      <point x="312" y="560" type="line"/>
      <point x="120" y="560" type="line"/>
      <point x="120" y="574"/>
      <point x="147" y="597"/>
      <point x="176" y="611" type="curve" smooth="yes"/>
      <point x="200" y="623" type="line" smooth="yes"/>
      <point x="253" y="649"/>
      <point x="312" y="678"/>
      <point x="312" y="742" type="curve" smooth="yes"/>
      <point x="312" y="811"/>
      <point x="256" y="848"/>
      <point x="176" y="848" type="curve" smooth="yes"/>
      <point x="105" y="848"/>
      <point x="39" y="814"/>
      <point x="36" y="724" type="curve"/>
      <point x="108" y="724" type="line"/>
      <point x="111" y="765"/>
      <point x="136" y="788"/>
      <point x="176" y="788" type="curve" smooth="yes"/>
      <point x="217" y="788"/>
      <point x="236" y="769"/>
      <point x="236" y="740" type="curve" smooth="yes"/>
      <point x="236" y="716"/>
      <point x="206" y="696"/>
      <point x="168" y="677" type="curve" smooth="yes"/>
      <point x="144" y="665" type="line" smooth="yes"/>
      <point x="91" y="638"/>
      <point x="32" y="600"/>
    </contour>
  </outline>
</glyph>
<glyph name="threesuperior" format="1">
  <advance width="352"/>
  <unicode hex="00B3"/>
  <outline>
    <contour>
      <point x="34" y="600" type="line" name="hr01"/>
      <point x="34" y="519"/>
      <point x="92" y="488"/>
      <point x="176" y="488" type="curve" smooth="yes"/>
      <point x="268" y="488"/>
      <point x="324" y="524"/>
      <point x="324" y="588" type="curve" smooth="yes"/>
      <point x="324" y="632"/>
      <point x="296" y="664"/>
      <point x="256" y="673" type="curve" name="hr02"/>
      <point x="256" y="676" type="line"/>
      <point x="292" y="684"/>
      <point x="312" y="716"/>
      <point x="312" y="752" type="curve" smooth="yes" name="hr03"/>
      <point x="312" y="808"/>
      <point x="260" y="848"/>
      <point x="180" y="848" type="curve" smooth="yes"/>
      <point x="97" y="848"/>
      <point x="42" y="810"/>
      <point x="42" y="740" type="curve"/>
      <point x="114" y="740" type="line"/>
      <point x="114" y="771"/>
      <point x="138" y="792"/>
      <point x="176" y="792" type="curve" smooth="yes"/>
      <point x="214" y="792"/>
      <point x="238" y="776"/>
      <point x="238" y="746" type="curve" smooth="yes"/>
      <point x="238" y="716"/>
      <point x="214" y="700"/>
      <point x="176" y="700" type="curve" smooth="yes"/>
      <point x="148" y="700" type="line" name="hr04"/>
      <point x="148" y="648" type="line"/>
      <point x="176" y="648" type="line" smooth="yes" name="hr05"/>
      <point x="216" y="648"/>
      <point x="246" y="632"/>
      <point x="246" y="596" type="curve" smooth="yes"/>
      <point x="246" y="560"/>
      <point x="216" y="544"/>
      <point x="176" y="544" type="curve" smooth="yes"/>
      <point x="135" y="544"/>
      <point x="106" y="564"/>
      <point x="106" y="600" type="curve"/>
    </contour>
  </outline>
</glyph>
<glyph name="mu" format="2">
  <advance width="568"/>
  <unicode hex="00B5"/>
  <outline>
    <contour>
      <point x="152" y="16" type="curve" name="hr01"/>
      <point x="158" y="16" type="line"/>
      <point x="186" y="-3"/>
      <point x="220" y="-12"/>
      <point x="256" y="-12" type="curve" smooth="yes"/>
      <point x="328" y="-12"/>
      <point x="376" y="16"/>
      <point x="404" y="72" type="curve"/>
      <point x="408" y="72" type="line"/>
      <point x="408" y="0" type="line" name="hr02"/>
      <point x="492" y="0" type="line"/>
      <point x="492" y="488" type="line"/>
      <point x="404" y="488" type="line"/>
      <point x="404" y="236" type="line" smooth="yes"/>
      <point x="404" y="132"/>
      <point x="352" y="64"/>
      <point x="276" y="64" type="curve" smooth="yes" name="hr03"/>
      <point x="204" y="64"/>
      <point x="164" y="100"/>
      <point x="164" y="204" type="curve" smooth="yes"/>
      <point x="164" y="488" type="line"/>
      <point x="76" y="488" type="line"/>
      <point x="76" y="-220" type="line"/>
      <point x="164" y="-220" type="line"/>
      <point x="164" y="-144" type="line" smooth="yes"/>
      <point x="164" y="-83"/>
      <point x="160" y="-48"/>
    </contour>
  </outline>
</glyph>
<glyph name="paragraph" format="1">
  <advance width="628"/>
  <unicode hex="00B6"/>
  <outline>
    <contour>
      <point x="436" y="0" type="line" name="hr00"/>
      <point x="524" y="0" type="line"/>
      <point x="524" y="688" type="line"/>
      <point x="436" y="688" type="line"/>
    </contour>
    <contour>
      <point x="264" y="0" type="line"/>
      <point x="352" y="0" type="line"/>
      <point x="352" y="688" type="line"/>
      <point x="292" y="688" type="line" smooth="yes"/>
      <point x="135" y="688"/>
      <point x="40" y="601"/>
      <point x="40" y="468" type="curve" smooth="yes"/>
      <point x="40" y="343"/>
      <point x="125" y="259"/>
      <point x="264" y="249" type="curve"/>
    </contour>
  </outline>
</glyph>
<glyph name="cedilla" format="2">
  <advance width="560"/>
  <unicode hex="00B8"/>
  <outline>
    <contour>
      <point x="236" y="-84" type="line" name="hr01"/>
      <point x="268" y="-84" type="line" smooth="yes"/>
      <point x="300" y="-84"/>
      <point x="320" y="-96"/>
      <point x="320" y="-124" type="curve" smooth="yes"/>
      <point x="320" y="-156"/>
      <point x="300" y="-164"/>
      <point x="268" y="-164" type="curve" smooth="yes"/>
      <point x="216" y="-164" type="line"/>
      <point x="216" y="-220" type="line"/>
      <point x="272" y="-220" type="line" smooth="yes"/>
      <point x="349" y="-220"/>
      <point x="388" y="-180"/>
      <point x="388" y="-124" type="curve" smooth="yes"/>
      <point x="388" y="-77"/>
      <point x="356" y="-40"/>
      <point x="296" y="-36" type="curve" name="hr02"/>
      <point x="296" y="0" type="line"/>
      <point x="264" y="0" type="line"/>
    </contour>
  </outline>
</glyph>
<glyph name="onesuperior" format="1">
  <advance width="352"/>
  <unicode hex="00B9"/>
  <outline>
    <contour>
      <point x="72" y="702" type="line"/>
      <point x="152" y="748" type="line"/>
      <point x="152" y="560" type="line"/>
      <point x="52" y="560" type="line"/>
      <point x="52" y="496" type="line"/>
      <point x="320" y="496" type="line"/>
      <point x="320" y="560" type="line"/>
      <point x="228" y="560" type="line"/>
      <point x="228" y="840" type="line"/>
      <point x="180" y="840" type="line"/>
      <point x="40" y="756" type="line"/>
    </contour>
  </outline>
</glyph>
<glyph name="ordmasculine" format="2">
  <advance width="413"/>
  <unicode hex="00BA"/>
  <outline>
    <contour>
      <point x="206" y="336" type="curve" smooth="yes" name="hr00"/>
      <point x="311" y="336"/>
      <point x="383" y="406"/>
      <point x="383" y="516" type="curve" smooth="yes"/>
      <point x="383" y="626"/>
      <point x="315" y="697"/>
      <point x="206" y="697" type="curve" smooth="yes"/>
      <point x="102" y="697"/>
      <point x="30" y="626"/>
      <point x="30" y="516" type="curve" smooth="yes"/>
      <point x="30" y="406"/>
      <point x="98" y="336"/>
    </contour>
    <contour>
      <point x="206" y="400" type="curve" smooth="yes"/>
      <point x="150" y="400"/>
      <point x="113" y="447"/>
      <point x="113" y="516" type="curve" smooth="yes"/>
      <point x="113" y="586"/>
      <point x="150" y="632"/>
      <point x="206" y="632" type="curve" smooth="yes"/>
      <point x="263" y="632"/>
      <point x="300" y="587"/>
      <point x="300" y="516" type="curve" smooth="yes"/>
      <point x="300" y="447"/>
      <point x="263" y="400"/>
    </contour>
  </outline>
</glyph>
<glyph name="guillemotright" format="1">
  <advance width="512"/>
  <unicode hex="00BB"/>
  <outline>
    <contour>
      <point x="244" y="48" type="line" name="hr00"/>
      <point x="316" y="48" type="line"/>
      <point x="460" y="252" type="line"/>
      <point x="316" y="456" type="line"/>
      <point x="244" y="456" type="line"/>
      <point x="360" y="252" type="line"/>
    </contour>
    <contour>
      <point x="52" y="48" type="line"/>
      <point x="124" y="48" type="line"/>
      <point x="268" y="252" type="line"/>
      <point x="124" y="456" type="line"/>
      <point x="52" y="456" type="line"/>
      <point x="168" y="252" type="line"/>
    </contour>
  </outline>
</glyph>
<glyph name="onequarter" format="1">
  <advance width="776"/>
  <unicode hex="00BC"/>
  <outline>
    <contour>
      <point x="448" y="64" type="line" name="hr01"/>
      <point x="624" y="64" type="line"/>
      <point x="624" y="0" type="line" name="hr02"/>
      <point x="700" y="0" type="line"/>
      <point x="700" y="64" type="line" name="hr03"/>
      <point x="748" y="64" type="line"/>
      <point x="748" y="124" type="line" name="hr04"/>
      <point x="700" y="124" type="line"/>
      <point x="700" y="344" type="line"/>
      <point x="636" y="344" type="line"/>
      <point x="448" y="112" type="line" name="hr05"/>
    </contour>
    <contour>
      <point x="216" y="-12" type="line"/>
      <point x="284" y="-12" type="line"/>
      <point x="632" y="700" type="line"/>
      <point x="564" y="700" type="line"/>
    </contour>
    <contour>
      <point x="72" y="550" type="line"/>
      <point x="152" y="596" type="line"/>
      <point x="152" y="408" type="line"/>
      <point x="52" y="408" type="line"/>
      <point x="52" y="344" type="line"/>
      <point x="320" y="344" type="line"/>
      <point x="320" y="408" type="line"/>
      <point x="228" y="408" type="line"/>
      <point x="228" y="688" type="line" name="hr06"/>
      <point x="180" y="688" type="line"/>
      <point x="40" y="604" type="line"/>
    </contour>
    <contour>
      <point x="531" y="124" type="line"/>
      <point x="624" y="241" type="line"/>
      <point x="624" y="124" type="line"/>
    </contour>
  </outline>
</glyph>
<glyph name="onehalf" format="2">
  <advance width="776"/>
  <unicode hex="00BD"/>
  <outline>
    <contour>
      <point x="456" y="0" type="curve" name="hr01"/>
      <point x="736" y="0" type="line"/>
      <point x="736" y="64" type="line"/>
      <point x="544" y="64" type="line"/>
      <point x="544" y="78"/>
      <point x="571" y="101"/>
      <point x="600" y="115" type="curve" smooth="yes"/>
      <point x="624" y="127" type="line" smooth="yes"/>
      <point x="677" y="153"/>
      <point x="736" y="182"/>
      <point x="736" y="246" type="curve" smooth="yes"/>
      <point x="736" y="315"/>
      <point x="680" y="352"/>
      <point x="600" y="352" type="curve" smooth="yes" name="hr02"/>
      <point x="529" y="352"/>
      <point x="463" y="318"/>
      <point x="460" y="228" type="curve"/>
      <point x="532" y="228" type="line"/>
      <point x="535" y="269"/>
      <point x="560" y="292"/>
      <point x="600" y="292" type="curve" smooth="yes"/>
      <point x="641" y="292"/>
      <point x="660" y="273"/>
      <point x="660" y="244" type="curve" smooth="yes"/>
      <point x="660" y="220"/>
      <point x="630" y="200"/>
      <point x="592" y="181" type="curve" smooth="yes"/>
      <point x="568" y="169" type="line" smooth="yes"/>
      <point x="515" y="142"/>
      <point x="456" y="104"/>
    </contour>
    <contour>
      <point x="192" y="-12" type="line" name="hr04"/>
      <point x="260" y="-12" type="line"/>
      <point x="608" y="700" type="line"/>
      <point x="540" y="700" type="line"/>
    </contour>
    <contour>
      <point x="72" y="550" type="line"/>
      <point x="152" y="596" type="line"/>
      <point x="152" y="408" type="line"/>
      <point x="52" y="408" type="line"/>
      <point x="52" y="344" type="line"/>
      <point x="320" y="344" type="line"/>
      <point x="320" y="408" type="line"/>
      <point x="228" y="408" type="line"/>
      <point x="228" y="688" type="line" name="hr05"/>
      <point x="180" y="688" type="line"/>
      <point x="40" y="604" type="line"/>
    </contour>
  </outline>
</glyph>
<glyph name="threequarters" format="1">
  <advance width="776"/>
  <unicode hex="00BE"/>
  <outline>
    <contour>
      <point x="448" y="64" type="line"/>
      <point x="624" y="64" type="line"/>
      <point x="624" y="0" type="line"/>
      <point x="700" y="0" type="line"/>
      <point x="700" y="64" type="line"/>
      <point x="748" y="64" type="line"/>
      <point x="748" y="124" type="line"/>
      <point x="700" y="124" type="line"/>
      <point x="700" y="344" type="line"/>
      <point x="636" y="344" type="line"/>
      <point x="448" y="112" type="line"/>
    </contour>
    <contour>
      <point x="34" y="448" type="line"/>
      <point x="34" y="367"/>
      <point x="92" y="336"/>
      <point x="176" y="336" type="curve" smooth="yes"/>
      <point x="268" y="336"/>
      <point x="324" y="372"/>
      <point x="324" y="436" type="curve" smooth="yes"/>
      <point x="324" y="480"/>
      <point x="296" y="512"/>
      <point x="256" y="521" type="curve"/>
      <point x="256" y="524" type="line"/>
      <point x="292" y="532"/>
      <point x="312" y="564"/>
      <point x="312" y="600" type="curve" smooth="yes"/>
      <point x="312" y="656"/>
      <point x="260" y="696"/>
      <point x="180" y="696" type="curve" smooth="yes"/>
      <point x="97" y="696"/>
      <point x="42" y="658"/>
      <point x="42" y="588" type="curve"/>
      <point x="114" y="588" type="line"/>
      <point x="114" y="619"/>
      <point x="138" y="640"/>
      <point x="176" y="640" type="curve" smooth="yes"/>
      <point x="214" y="640"/>
      <point x="238" y="624"/>
      <point x="238" y="594" type="curve" smooth="yes"/>
      <point x="238" y="564"/>
      <point x="214" y="548"/>
      <point x="176" y="548" type="curve" smooth="yes"/>
      <point x="148" y="548" type="line"/>
      <point x="148" y="496" type="line"/>
      <point x="176" y="496" type="line" smooth="yes"/>
      <point x="216" y="496"/>
      <point x="246" y="480"/>
      <point x="246" y="444" type="curve" smooth="yes"/>
      <point x="246" y="408"/>
      <point x="216" y="392"/>
      <point x="176" y="392" type="curve" smooth="yes"/>
      <point x="135" y="392"/>
      <point x="106" y="412"/>
      <point x="106" y="448" type="curve"/>
    </contour>
    <contour>
      <point x="204" y="-12" type="line"/>
      <point x="272" y="-12" type="line"/>
      <point x="620" y="700" type="line"/>
      <point x="552" y="700" type="line"/>
    </contour>
    <contour>
      <point x="531" y="124" type="line"/>
      <point x="624" y="241" type="line"/>
      <point x="624" y="124" type="line"/>
    </contour>
  </outline>
</glyph>
<glyph name="questiondown" format="1">
  <advance width="504"/>
  <unicode hex="00BF"/>
  <outline>
    <contour>
      <point x="208" y="380" type="line"/>
      <point x="312" y="380" type="line"/>
      <point x="312" y="488" type="line"/>
      <point x="208" y="488" type="line"/>
    </contour>
    <contour>
      <point x="40" y="-32" type="curve" smooth="yes"/>
      <point x="40" y="-143"/>
      <point x="127" y="-212"/>
      <point x="248" y="-212" type="curve" smooth="yes"/>
      <point x="399" y="-212"/>
      <point x="468" y="-105"/>
      <point x="468" y="8" type="curve"/>
      <point x="380" y="8" type="line"/>
      <point x="380" y="-70"/>
      <point x="339" y="-136"/>
      <point x="248" y="-136" type="curve" smooth="yes"/>
      <point x="178" y="-136"/>
      <point x="132" y="-89"/>
      <point x="132" y="-28" type="curve" smooth="yes"/>
      <point x="132" y="92"/>
      <point x="304" y="76"/>
      <point x="304" y="264" type="curve" smooth="yes"/>
      <point x="304" y="292" type="line"/>
      <point x="216" y="292" type="line"/>
      <point x="216" y="252" type="line" smooth="yes"/>
      <point x="216" y="124"/>
      <point x="40" y="132"/>
    </contour>
  </outline>
</glyph>
<glyph name="Agrave" format="2">
  <advance width="644"/>
  <unicode hex="00C0"/>
  <outline>
    <contour>
      <point x="12" y="0" type="line" name="hr00"/>
      <point x="104" y="0" type="line"/>
      <point x="169" y="180" type="line"/>
      <point x="471" y="180" type="line"/>
      <point x="536" y="0" type="line"/>
      <point x="632" y="0" type="line"/>
      <point x="376" y="688" type="line"/>
      <point x="268" y="688" type="line"/>
    </contour>
    <contour>
      <point x="322" y="592" type="line"/>
      <point x="442" y="260" type="line"/>
      <point x="198" y="260" type="line"/>
      <point x="318" y="592" type="line"/>
    </contour>
    <contour>
      <point x="288" y="768" type="line"/>
      <point x="352" y="768" type="line"/>
      <point x="248" y="932" type="line"/>
      <point x="144" y="932" type="line"/>
    </contour>
  </outline>
</glyph>
<glyph name="Aacute" format="1">
  <advance width="644"/>
  <unicode hex="00C1"/>
  <outline>
    <contour>
      <point x="12" y="0" type="line"/>
      <point x="104" y="0" type="line"/>
      <point x="169" y="180" type="line"/>
      <point x="471" y="180" type="line"/>
      <point x="536" y="0" type="line"/>
      <point x="632" y="0" type="line"/>
      <point x="376" y="688" type="line"/>
      <point x="268" y="688" type="line"/>
    </contour>
    <contour>
      <point x="322" y="592" type="line"/>
      <point x="442" y="260" type="line"/>
      <point x="198" y="260" type="line"/>
      <point x="318" y="592" type="line"/>
    </contour>
    <contour>
      <point x="288" y="768" type="line"/>
      <point x="352" y="768" type="line"/>
      <point x="496" y="932" type="line"/>
      <point x="392" y="932" type="line"/>
    </contour>
  </outline>
</glyph>
<glyph name="Atilde" format="1">
  <advance width="644"/>
  <unicode hex="00C3"/>
  <outline>
    <contour>
      <point x="12" y="0" type="line" name="hr01"/>
      <point x="104" y="0" type="line"/>
      <point x="169" y="180" type="line"/>
      <point x="471" y="180" type="line"/>
      <point x="536" y="0" type="line"/>
      <point x="632" y="0" type="line"/>
      <point x="376" y="688" type="line"/>
      <point x="268" y="688" type="line"/>
    </contour>
    <contour>
      <point x="322" y="592" type="line"/>
      <point x="442" y="260" type="line"/>
      <point x="198" y="260" type="line"/>
      <point x="318" y="592" type="line"/>
    </contour>
    <contour>
      <point x="156" y="796" type="curve"/>
      <point x="204" y="796" type="line"/>
      <point x="208" y="819"/>
      <point x="220" y="844"/>
      <point x="248" y="844" type="curve" smooth="yes"/>
      <point x="283" y="844"/>
      <point x="329" y="796"/>
      <point x="388" y="796" type="curve" smooth="yes"/>
      <point x="449" y="796"/>
      <point x="481" y="844"/>
      <point x="484" y="904" type="curve"/>
      <point x="436" y="904" type="line"/>
      <point x="432" y="881"/>
      <point x="420" y="856"/>
      <point x="392" y="856" type="curve" smooth="yes" name="hr02"/>
      <point x="357" y="856"/>
      <point x="311" y="904"/>
      <point x="252" y="904" type="curve" smooth="yes"/>
      <point x="191" y="904"/>
      <point x="159" y="856"/>
    </contour>
  </outline>
</glyph>
<glyph name="Aring" format="1">
  <advance width="644"/>
  <unicode hex="00C5"/>
  <outline>
    <contour>
      <point x="12" y="0" type="line" name="hr00"/>
      <point x="104" y="0" type="line"/>
      <point x="169" y="180" type="line"/>
      <point x="471" y="180" type="line"/>
      <point x="536" y="0" type="line"/>
      <point x="632" y="0" type="line"/>
      <point x="376" y="688" type="line"/>
      <point x="268" y="688" type="line"/>
    </contour>
    <contour>
      <point x="322" y="592" type="line"/>
      <point x="442" y="260" type="line"/>
      <point x="198" y="260" type="line"/>
      <point x="318" y="592" type="line"/>
    </contour>
    <contour>
      <point x="320" y="764" type="curve" smooth="yes"/>
      <point x="373" y="764"/>
      <point x="420" y="803"/>
      <point x="420" y="860" type="curve" smooth="yes"/>
      <point x="420" y="917"/>
      <point x="373" y="956"/>
      <point x="320" y="956" type="curve" smooth="yes"/>
      <point x="267" y="956"/>
      <point x="220" y="917"/>
      <point x="220" y="860" type="curve" smooth="yes"/>
      <point x="220" y="803"/>
      <point x="267" y="764"/>
    </contour>
    <contour>
      <point x="320" y="808" type="curve" smooth="yes"/>
      <point x="291" y="808"/>
      <point x="268" y="831"/>
      <point x="268" y="860" type="curve" smooth="yes"/>
      <point x="268" y="889"/>
      <point x="291" y="912"/>
      <point x="320" y="912" type="curve" smooth="yes"/>
      <point x="349" y="912"/>
      <point x="372" y="889"/>
      <point x="372" y="860" type="curve" smooth="yes"/>
      <point x="372" y="831"/>
      <point x="349" y="808"/>
    </contour>
  </outline>
</glyph>
<glyph name="AE" format="2">
  <advance width="1064"/>
  <unicode hex="00C6"/>
  <outline>
    <contour>
      <point x="12" y="0" type="line" name="hr00"/>
      <point x="120" y="0" type="line"/>
      <point x="235" y="160" type="line"/>
      <point x="540" y="160" type="line"/>
      <point x="540" y="0" type="line"/>
      <point x="1012" y="0" type="line"/>
      <point x="1012" y="80" type="line"/>
      <point x="632" y="80" type="line"/>
      <point x="632" y="310" type="line"/>
      <point x="928" y="310" type="line"/>
      <point x="928" y="390" type="line"/>
      <point x="632" y="390" type="line"/>
      <point x="632" y="608" type="line"/>
      <point x="1004" y="608" type="line"/>
      <point x="1004" y="688" type="line"/>
      <point x="508" y="688" type="line"/>
    </contour>
    <contour>
      <point x="536" y="580" type="line"/>
      <point x="540" y="580" type="line"/>
      <point x="540" y="240" type="line"/>
      <point x="292" y="240" type="line"/>
    </contour>
  </outline>
</glyph>
<glyph name="Ccedilla" format="1">
  <advance width="712"/>
  <unicode hex="00C7"/>
  <outline>
    <contour>
      <point x="328" y="-84" type="line" name="hr01"/>
      <point x="360" y="-84" type="line" smooth="yes"/>
      <point x="392" y="-84"/>
      <point x="412" y="-96"/>
      <point x="412" y="-124" type="curve" smooth="yes"/>
      <point x="412" y="-156"/>
      <point x="392" y="-164"/>
      <point x="360" y="-164" type="curve" smooth="yes"/>
      <point x="308" y="-164" type="line"/>
      <point x="308" y="-220" type="line"/>
      <point x="364" y="-220" type="line" smooth="yes"/>
      <point x="441" y="-220"/>
      <point x="480" y="-180"/>
      <point x="480" y="-124" type="curve" smooth="yes"/>
      <point x="480" y="-77"/>
      <point x="448" y="-40"/>
      <point x="388" y="-36" type="curve"/>
      <point x="388" y="-12" type="line" name="hr02"/>
      <point x="540" y="-6"/>
      <point x="641" y="85"/>
      <point x="668" y="216" type="curve"/>
      <point x="573" y="216" type="line"/>
      <point x="547" y="123"/>
      <point x="486" y="72"/>
      <point x="372" y="72" type="curve" smooth="yes"/>
      <point x="235" y="72"/>
      <point x="140" y="188"/>
      <point x="140" y="344" type="curve" smooth="yes"/>
      <point x="140" y="504"/>
      <point x="235" y="616"/>
      <point x="376" y="616" type="curve" smooth="yes"/>
      <point x="482" y="616"/>
      <point x="547" y="565"/>
      <point x="573" y="472" type="curve"/>
      <point x="668" y="472" type="line"/>
      <point x="640" y="607"/>
      <point x="537" y="700"/>
      <point x="376" y="700" type="curve" smooth="yes"/>
      <point x="179" y="700"/>
      <point x="44" y="549"/>
      <point x="44" y="344" type="curve" smooth="yes"/>
      <point x="44" y="142"/>
      <point x="169" y="-1"/>
      <point x="352" y="-11" type="curve" name="hr03"/>
    </contour>
  </outline>
</glyph>
<glyph name="Egrave" format="2">
  <advance width="612"/>
  <unicode hex="00C8"/>
  <outline>
    <contour>
      <point x="88" y="0" type="line" name="hr00"/>
      <point x="560" y="0" type="line"/>
      <point x="560" y="80" type="line"/>
      <point x="180" y="80" type="line"/>
      <point x="180" y="310" type="line"/>
      <point x="476" y="310" type="line"/>
      <point x="476" y="390" type="line"/>
      <point x="180" y="390" type="line"/>
      <point x="180" y="608" type="line"/>
      <point x="552" y="608" type="line"/>
      <point x="552" y="688" type="line"/>
      <point x="88" y="688" type="line"/>
    </contour>
    <contour>
      <point x="288" y="768" type="line"/>
      <point x="352" y="768" type="line"/>
      <point x="248" y="932" type="line"/>
      <point x="144" y="932" type="line"/>
    </contour>
  </outline>
</glyph>
<glyph name="Eacute" format="2">
  <advance width="612"/>
  <unicode hex="00C9"/>
  <outline>
    <contour>
      <point x="88" y="0" type="line" name="hr00"/>
      <point x="560" y="0" type="line"/>
      <point x="560" y="80" type="line"/>
      <point x="180" y="80" type="line"/>
      <point x="180" y="310" type="line"/>
      <point x="476" y="310" type="line"/>
      <point x="476" y="390" type="line"/>
      <point x="180" y="390" type="line"/>
      <point x="180" y="608" type="line"/>
      <point x="552" y="608" type="line"/>
      <point x="552" y="688" type="line"/>
      <point x="88" y="688" type="line"/>
    </contour>
    <contour>
      <point x="288" y="768" type="line"/>
      <point x="352" y="768" type="line"/>
      <point x="496" y="932" type="line"/>
      <point x="392" y="932" type="line"/>
    </contour>
  </outline>
</glyph>
<glyph name="Ecircumflex" format="2">
  <advance width="612"/>
  <unicode hex="00CA"/>
  <outline>
    <contour>
      <point x="88" y="0" type="line" name="hr00"/>
      <point x="560" y="0" type="line"/>
      <point x="560" y="80" type="line"/>
      <point x="180" y="80" type="line"/>
      <point x="180" y="310" type="line"/>
      <point x="476" y="310" type="line"/>
      <point x="476" y="390" type="line"/>
      <point x="180" y="390" type="line"/>
      <point x="180" y="608" type="line"/>
      <point x="552" y="608" type="line"/>
      <point x="552" y="688" type="line"/>
      <point x="88" y="688" type="line"/>
    </contour>
    <contour>
      <point x="152" y="768" type="line"/>
      <point x="236" y="768" type="line"/>
      <point x="320" y="880" type="line"/>
      <point x="404" y="768" type="line"/>
      <point x="488" y="768" type="line"/>
      <point x="360" y="932" type="line"/>
      <point x="280" y="932" type="line"/>
    </contour>
  </outline>
</glyph>
<glyph name="Edieresis" format="1">
  <advance width="612"/>
  <unicode hex="00CB"/>
  <outline>
    <contour>
      <point x="88" y="0" type="line" name="hr01"/>
      <point x="560" y="0" type="line"/>
      <point x="560" y="80" type="line"/>
      <point x="180" y="80" type="line"/>
      <point x="180" y="310" type="line"/>
      <point x="476" y="310" type="line"/>
      <point x="476" y="390" type="line"/>
      <point x="180" y="390" type="line"/>
      <point x="180" y="608" type="line"/>
      <point x="552" y="608" type="line"/>
      <point x="552" y="688" type="line"/>
      <point x="88" y="688" type="line"/>
    </contour>
    <contour>
      <point x="376" y="804" type="line"/>
      <point x="464" y="804" type="line"/>
      <point x="464" y="896" type="line"/>
      <point x="376" y="896" type="line"/>
    </contour>
    <contour>
      <point x="176" y="804" type="line" name="hr02"/>
      <point x="264" y="804" type="line"/>
      <point x="264" y="896" type="line"/>
      <point x="176" y="896" type="line"/>
    </contour>
  </outline>
</glyph>
<glyph name="Igrave" format="1">
  <advance width="268"/>
  <unicode hex="00CC"/>
  <outline>
    <contour>
      <point x="88" y="0" type="line"/>
      <point x="180" y="0" type="line"/>
      <point x="180" y="688" type="line"/>
      <point x="88" y="688" type="line"/>
    </contour>
    <contour>
      <point x="102" y="768" type="line"/>
      <point x="166" y="768" type="line"/>
      <point x="62" y="932" type="line"/>
      <point x="-42" y="932" type="line"/>
    </contour>
  </outline>
</glyph>
<glyph name="Icircumflex" format="1">
  <advance width="268"/>
  <unicode hex="00CE"/>
  <outline>
    <contour>
      <point x="88" y="0" type="line"/>
      <point x="180" y="0" type="line"/>
      <point x="180" y="688" type="line"/>
      <point x="88" y="688" type="line"/>
    </contour>
    <contour>
      <point x="-34" y="768" type="line"/>
      <point x="50" y="768" type="line"/>
      <point x="134" y="880" type="line"/>
      <point x="218" y="768" type="line"/>
      <point x="302" y="768" type="line"/>
      <point x="174" y="932" type="line"/>
      <point x="94" y="932" type="line"/>
    </contour>
  </outline>
</glyph>
<glyph name="Idieresis" format="1">
  <advance width="268"/>
  <unicode hex="00CF"/>
  <outline>
    <contour>
      <point x="88" y="0" type="line"/>
      <point x="180" y="0" type="line"/>
      <point x="180" y="688" type="line"/>
      <point x="88" y="688" type="line"/>
    </contour>
    <contour>
      <point x="190" y="804" type="line"/>
      <point x="278" y="804" type="line"/>
      <point x="278" y="896" type="line"/>
      <point x="190" y="896" type="line"/>
    </contour>
    <contour>
      <point x="-10" y="804" type="line"/>
      <point x="78" y="804" type="line"/>
      <point x="78" y="896" type="line"/>
      <point x="-10" y="896" type="line"/>
    </contour>
  </outline>
</glyph>
<glyph name="Eth" format="2">
  <advance width="704"/>
  <unicode hex="00D0"/>
  <outline>
    <contour>
      <point x="4" y="308" type="line" name="hr00"/>
      <point x="88" y="308" type="line"/>
      <point x="88" y="0" type="line"/>
      <point x="300" y="0" type="line" smooth="yes"/>
      <point x="537" y="0"/>
      <point x="660" y="143"/>
      <point x="660" y="344" type="curve" smooth="yes"/>
      <point x="660" y="545"/>
      <point x="537" y="688"/>
      <point x="300" y="688" type="curve" smooth="yes"/>
      <point x="88" y="688" type="line"/>
      <point x="88" y="384" type="line"/>
      <point x="4" y="384" type="line"/>
    </contour>
    <contour>
      <point x="300" y="608" type="line" smooth="yes"/>
      <point x="493" y="608"/>
      <point x="564" y="484"/>
      <point x="564" y="344" type="curve" smooth="yes"/>
      <point x="564" y="204"/>
      <point x="493" y="80"/>
      <point x="300" y="80" type="curve" smooth="yes"/>
      <point x="180" y="80" type="line"/>
      <point x="180" y="308" type="line"/>
      <point x="340" y="308" type="line"/>
      <point x="340" y="384" type="line"/>
      <point x="180" y="384" type="line"/>
      <point x="180" y="608" type="line"/>
    </contour>
  </outline>
</glyph>
<glyph name="Ntilde" format="1">
  <advance width="736"/>
  <unicode hex="00D1"/>
  <outline>
    <contour>
      <point x="88" y="0" type="line"/>
      <point x="180" y="0" type="line"/>
      <point x="176" y="528" type="line"/>
      <point x="180" y="528" type="line"/>
      <point x="560" y="0" type="line"/>
      <point x="648" y="0" type="line"/>
      <point x="648" y="688" type="line"/>
      <point x="556" y="688" type="line"/>
      <point x="560" y="156" type="line"/>
      <point x="556" y="156" type="line"/>
      <point x="176" y="688" type="line"/>
      <point x="88" y="688" type="line"/>
    </contour>
    <contour>
      <point x="204" y="796" type="curve"/>
      <point x="252" y="796" type="line"/>
      <point x="256" y="819"/>
      <point x="268" y="844"/>
      <point x="296" y="844" type="curve" smooth="yes"/>
      <point x="331" y="844"/>
      <point x="377" y="796"/>
      <point x="436" y="796" type="curve" smooth="yes"/>
      <point x="497" y="796"/>
      <point x="529" y="844"/>
      <point x="532" y="904" type="curve"/>
      <point x="484" y="904" type="line"/>
      <point x="480" y="881"/>
      <point x="468" y="856"/>
      <point x="440" y="856" type="curve" smooth="yes"/>
      <point x="405" y="856"/>
      <point x="359" y="904"/>
      <point x="300" y="904" type="curve" smooth="yes"/>
      <point x="239" y="904"/>
      <point x="207" y="856"/>
    </contour>
  </outline>
</glyph>
<glyph name="Otilde" format="2">
  <advance width="760"/>
  <unicode hex="00D5"/>
  <outline>
    <contour>
      <point x="44" y="344" type="curve" smooth="yes" name="hr01"/>
      <point x="44" y="139"/>
      <point x="179" y="-12"/>
      <point x="380" y="-12" type="curve" smooth="yes"/>
      <point x="577" y="-12"/>
      <point x="716" y="139"/>
      <point x="716" y="344" type="curve" smooth="yes"/>
      <point x="716" y="549"/>
      <point x="577" y="700"/>
      <point x="380" y="700" type="curve" smooth="yes"/>
      <point x="179" y="700"/>
      <point x="44" y="549"/>
    </contour>
    <contour>
      <point x="140" y="344" type="curve" smooth="yes"/>
      <point x="140" y="500"/>
      <point x="235" y="616"/>
      <point x="380" y="616" type="curve" smooth="yes"/>
      <point x="525" y="616"/>
      <point x="620" y="500"/>
      <point x="620" y="344" type="curve" smooth="yes"/>
      <point x="620" y="188"/>
      <point x="525" y="72"/>
      <point x="380" y="72" type="curve" smooth="yes"/>
      <point x="235" y="72"/>
      <point x="140" y="188"/>
    </contour>
    <contour>
      <point x="216" y="796" type="curve"/>
      <point x="264" y="796" type="line"/>
      <point x="268" y="819"/>
      <point x="280" y="844"/>
      <point x="308" y="844" type="curve" smooth="yes"/>
      <point x="343" y="844"/>
      <point x="389" y="796"/>
      <point x="448" y="796" type="curve" smooth="yes"/>
      <point x="509" y="796"/>
      <point x="541" y="844"/>
      <point x="544" y="904" type="curve"/>
      <point x="496" y="904" type="line"/>
      <point x="492" y="881"/>
      <point x="480" y="856"/>
      <point x="452" y="856" type="curve" smooth="yes" name="hr02"/>
      <point x="417" y="856"/>
      <point x="371" y="904"/>
      <point x="312" y="904" type="curve" smooth="yes"/>
      <point x="251" y="904"/>
      <point x="219" y="856"/>
    </contour>
  </outline>
</glyph>
<glyph name="multiply" format="1">
  <advance width="568"/>
  <unicode hex="00D7"/>
  <outline>
    <contour>
      <point x="76" y="412" type="line" name="hr00"/>
      <point x="232" y="254" type="line"/>
      <point x="76" y="96" type="line"/>
      <point x="128" y="44" type="line"/>
      <point x="284" y="202" type="line"/>
      <point x="440" y="44" type="line"/>
      <point x="492" y="96" type="line"/>
      <point x="335" y="254" type="line"/>
      <point x="492" y="412" type="line"/>
      <point x="440" y="464" type="line"/>
      <point x="284" y="306" type="line"/>
      <point x="128" y="464" type="line"/>
    </contour>
  </outline>
</glyph>
<glyph name="Ucircumflex" format="1">
  <advance width="696"/>
  <unicode hex="00DB"/>
  <outline>
    <contour>
      <point x="72" y="272" type="line" smooth="yes" name="hr00"/>
      <point x="72" y="68"/>
      <point x="185" y="-12"/>
      <point x="348" y="-12" type="curve" smooth="yes"/>
      <point x="511" y="-12"/>
      <point x="624" y="68"/>
      <point x="624" y="272" type="curve" smooth="yes"/>
      <point x="624" y="688" type="line"/>
      <point x="532" y="688" type="line"/>
      <point x="532" y="272" type="line" smooth="yes"/>
      <point x="532" y="146"/>
      <point x="473" y="72"/>
      <point x="348" y="72" type="curve" smooth="yes"/>
      <point x="223" y="72"/>
      <point x="164" y="146"/>
      <point x="164" y="272" type="curve" smooth="yes"/>
      <point x="164" y="688" type="line"/>
      <point x="72" y="688" type="line"/>
    </contour>
    <contour>
      <point x="180" y="768" type="line"/>
      <point x="264" y="768" type="line"/>
      <point x="348" y="880" type="line"/>
      <point x="432" y="768" type="line"/>
      <point x="516" y="768" type="line"/>
      <point x="388" y="932" type="line"/>
      <point x="308" y="932" type="line"/>
    </contour>
  </outline>
</glyph>
<glyph name="Yacute" format="1">
  <advance width="608"/>
  <unicode hex="00DD"/>
  <outline>
    <contour>
      <point x="256" y="0" type="line"/>
      <point x="348" y="0" type="line"/>
      <point x="348" y="277" type="line"/>
      <point x="596" y="688" type="line"/>
      <point x="500" y="688" type="line"/>
      <point x="306" y="364" type="line"/>
      <point x="302" y="364" type="line"/>
      <point x="116" y="688" type="line"/>
      <point x="12" y="688" type="line"/>
      <point x="256" y="270" type="line"/>
    </contour>
    <contour>
      <point x="272" y="768" type="line"/>
      <point x="336" y="768" type="line"/>
      <point x="480" y="932" type="line"/>
      <point x="376" y="932" type="line"/>
    </contour>
  </outline>
</glyph>
<glyph name="Thorn" format="1">
  <advance width="636"/>
  <unicode hex="00DE"/>
  <outline>
    <contour>
      <point x="88" y="0" type="line"/>
      <point x="180" y="0" type="line"/>
      <point x="180" y="128" type="line"/>
      <point x="348" y="128" type="line" smooth="yes"/>
      <point x="505" y="128"/>
      <point x="592" y="227"/>
      <point x="592" y="356" type="curve" smooth="yes"/>
      <point x="592" y="485"/>
      <point x="505" y="576"/>
      <point x="348" y="576" type="curve" smooth="yes"/>
      <point x="180" y="576" type="line"/>
      <point x="180" y="688" type="line"/>
      <point x="88" y="688" type="line"/>
    </contour>
    <contour>
      <point x="352" y="496" type="line" smooth="yes"/>
      <point x="452" y="496"/>
      <point x="500" y="436"/>
      <point x="500" y="356" type="curve" smooth="yes"/>
      <point x="500" y="276"/>
      <point x="452" y="208"/>
      <point x="352" y="208" type="curve" smooth="yes"/>
      <point x="180" y="208" type="line"/>
      <point x="180" y="496" type="line"/>
    </contour>
  </outline>
</glyph>
<glyph name="germandbls" format="2">
  <advance width="568"/>
  <unicode hex="00DF"/>
  <outline>
    <contour>
      <point x="76" y="0" type="line" name="hr01"/>
      <point x="164" y="0" type="line"/>
      <point x="164" y="512" type="line" smooth="yes"/>
      <point x="164" y="626"/>
      <point x="213" y="672"/>
      <point x="288" y="672" type="curve" smooth="yes"/>
      <point x="364" y="672"/>
      <point x="396" y="631"/>
      <point x="396" y="592" type="curve" smooth="yes" name="hr02"/>
      <point x="396" y="512"/>
      <point x="292" y="504"/>
      <point x="292" y="400" type="curve" smooth="yes"/>
      <point x="292" y="260"/>
      <point x="452" y="280"/>
      <point x="452" y="164" type="curve" smooth="yes" name="hr03"/>
      <point x="452" y="104"/>
      <point x="407" y="72"/>
      <point x="340" y="72" type="curve" smooth="yes"/>
      <point x="256" y="72" type="line"/>
      <point x="256" y="0" type="line"/>
      <point x="340" y="0" type="line" smooth="yes"/>
      <point x="456" y="0"/>
      <point x="540" y="61"/>
      <point x="540" y="172" type="curve" smooth="yes"/>
      <point x="540" y="320"/>
      <point x="372" y="332"/>
      <point x="372" y="408" type="curve" smooth="yes"/>
      <point x="372" y="469"/>
      <point x="476" y="488"/>
      <point x="476" y="592" type="curve" smooth="yes"/>
      <point x="476" y="669"/>
      <point x="420" y="744"/>
      <point x="292" y="744" type="curve" smooth="yes" name="hr04"/>
      <point x="169" y="744"/>
      <point x="76" y="674"/>
      <point x="76" y="512" type="curve" smooth="yes"/>
    </contour>
  </outline>
</glyph>
<glyph name="atilde" format="1">
  <advance width="524"/>
  <unicode hex="00E3"/>
  <outline>
    <contour>
      <point x="48" y="124" type="curve" smooth="yes" name="hr01"/>
      <point x="48" y="42"/>
      <point x="108" y="-12"/>
      <point x="212" y="-12" type="curve" smooth="yes"/>
      <point x="283" y="-12"/>
      <point x="340" y="14"/>
      <point x="368" y="65" type="curve"/>
      <point x="372" y="65" type="line"/>
      <point x="372" y="0" type="line" name="hr02"/>
      <point x="456" y="0" type="line"/>
      <point x="456" y="320" type="line" smooth="yes"/>
      <point x="456" y="432"/>
      <point x="392" y="500"/>
      <point x="264" y="500" type="curve" smooth="yes"/>
      <point x="141" y="500"/>
      <point x="72" y="428"/>
      <point x="68" y="336" type="curve"/>
      <point x="152" y="336" type="line"/>
      <point x="156" y="390"/>
      <point x="193" y="428"/>
      <point x="264" y="428" type="curve" smooth="yes"/>
      <point x="333" y="428"/>
      <point x="368" y="387"/>
      <point x="368" y="328" type="curve" smooth="yes"/>
      <point x="368" y="305"/>
      <point x="356" y="299"/>
      <point x="304" y="290" type="curve" smooth="yes"/>
      <point x="208" y="274" type="line" smooth="yes"/>
      <point x="94" y="254"/>
      <point x="48" y="205"/>
    </contour>
    <contour>
      <point x="368" y="204" type="line" smooth="yes"/>
      <point x="368" y="108"/>
      <point x="304" y="60"/>
      <point x="228" y="60" type="curve" smooth="yes"/>
      <point x="166" y="60"/>
      <point x="136" y="90"/>
      <point x="136" y="132" type="curve" smooth="yes"/>
      <point x="136" y="174"/>
      <point x="160" y="201"/>
      <point x="224" y="212" type="curve" smooth="yes"/>
      <point x="316" y="228" type="line" smooth="yes"/>
      <point x="340" y="232"/>
      <point x="358" y="239"/>
      <point x="368" y="251" type="curve"/>
    </contour>
    <contour>
      <point x="96" y="596" type="curve" name="hr04"/>
      <point x="144" y="596" type="line"/>
      <point x="148" y="619"/>
      <point x="160" y="644"/>
      <point x="188" y="644" type="curve" smooth="yes"/>
      <point x="223" y="644"/>
      <point x="269" y="596"/>
      <point x="328" y="596" type="curve" smooth="yes"/>
      <point x="389" y="596"/>
      <point x="421" y="644"/>
      <point x="424" y="704" type="curve"/>
      <point x="376" y="704" type="line"/>
      <point x="372" y="681"/>
      <point x="360" y="656"/>
      <point x="332" y="656" type="curve" smooth="yes" name="hr05"/>
      <point x="297" y="656"/>
      <point x="251" y="704"/>
      <point x="192" y="704" type="curve" smooth="yes"/>
      <point x="131" y="704"/>
      <point x="99" y="656"/>
    </contour>
  </outline>
</glyph>
<glyph name="ccedilla" format="1">
  <advance width="516"/>
  <unicode hex="00E7"/>
  <outline>
    <contour>
      <point x="228" y="-84" type="line"/>
      <point x="260" y="-84" type="line" smooth="yes"/>
      <point x="292" y="-84"/>
      <point x="312" y="-96"/>
      <point x="312" y="-124" type="curve" smooth="yes"/>
      <point x="312" y="-156"/>
      <point x="292" y="-164"/>
      <point x="260" y="-164" type="curve" smooth="yes"/>
      <point x="208" y="-164" type="line"/>
      <point x="208" y="-220" type="line"/>
      <point x="264" y="-220" type="line" smooth="yes"/>
      <point x="341" y="-220"/>
      <point x="380" y="-180"/>
      <point x="380" y="-124" type="curve" smooth="yes"/>
      <point x="380" y="-77"/>
      <point x="348" y="-40"/>
      <point x="288" y="-36" type="curve"/>
      <point x="288" y="-11" type="line"/>
      <point x="404" y="-5"/>
      <point x="471" y="67"/>
      <point x="484" y="164" type="curve"/>
      <point x="396" y="164" type="line"/>
      <point x="386" y="108"/>
      <point x="348" y="64"/>
      <point x="272" y="64" type="curve" smooth="yes"/>
      <point x="192" y="64"/>
      <point x="132" y="136"/>
      <point x="132" y="244" type="curve" smooth="yes"/>
      <point x="132" y="352"/>
      <point x="192" y="424"/>
      <point x="272" y="424" type="curve" smooth="yes"/>
      <point x="348" y="424"/>
      <point x="386" y="380"/>
      <point x="396" y="324" type="curve"/>
      <point x="484" y="324" type="line"/>
      <point x="471" y="425"/>
      <point x="398" y="500"/>
      <point x="272" y="500" type="curve" smooth="yes"/>
      <point x="140" y="500"/>
      <point x="40" y="400"/>
      <point x="40" y="244" type="curve" smooth="yes"/>
      <point x="40" y="95"/>
      <point x="120" y="-2"/>
      <point x="252" y="-11" type="curve"/>
    </contour>
  </outline>
</glyph>
<glyph name="igrave" format="1">
  <advance width="240"/>
  <unicode hex="00EC"/>
  <outline>
    <contour>
      <point x="76" y="0" type="line"/>
      <point x="164" y="0" type="line"/>
      <point x="164" y="488" type="line"/>
      <point x="76" y="488" type="line"/>
    </contour>
    <contour>
      <point x="88" y="568" type="line"/>
      <point x="152" y="568" type="line"/>
      <point x="48" y="732" type="line"/>
      <point x="-56" y="732" type="line"/>
    </contour>
  </outline>
</glyph>
<glyph name="iacute" format="1">
  <advance width="240"/>
  <unicode hex="00ED"/>
  <outline>
    <contour>
      <point x="76" y="0" type="line"/>
      <point x="164" y="0" type="line"/>
      <point x="164" y="488" type="line"/>
      <point x="76" y="488" type="line"/>
    </contour>
    <contour>
      <point x="88" y="568" type="line"/>
      <point x="152" y="568" type="line"/>
      <point x="296" y="732" type="line"/>
      <point x="192" y="732" type="line"/>
    </contour>
  </outline>
</glyph>
<glyph name="icircumflex" format="2">
  <advance width="240"/>
  <unicode hex="00EE"/>
  <outline>
    <contour>
      <point x="76" y="0" type="line" name="hr01"/>
      <point x="164" y="0" type="line"/>
      <point x="164" y="488" type="line"/>
      <point x="76" y="488" type="line"/>
    </contour>
    <contour>
      <point x="-48" y="568" type="line"/>
      <point x="36" y="568" type="line"/>
      <point x="120" y="680" type="line" name="hr02"/>
      <point x="204" y="568" type="line" name="hr03"/>
      <point x="288" y="568" type="line"/>
      <point x="160" y="732" type="line"/>
      <point x="80" y="732" type="line"/>
    </contour>
  </outline>
</glyph>
<glyph name="idieresis" format="1">
  <advance width="240"/>
  <unicode hex="00EF"/>
  <outline>
    <contour>
      <point x="76" y="0" type="line"/>
      <point x="164" y="0" type="line"/>
      <point x="164" y="488" type="line"/>
      <point x="76" y="488" type="line"/>
    </contour>
    <contour>
      <point x="176" y="604" type="line"/>
      <point x="264" y="604" type="line"/>
      <point x="264" y="696" type="line"/>
      <point x="176" y="696" type="line"/>
    </contour>
    <contour>
      <point x="-24" y="604" type="line"/>
      <point x="64" y="604" type="line"/>
      <point x="64" y="696" type="line"/>
      <point x="-24" y="696" type="line"/>
    </contour>
  </outline>
</glyph>
<glyph name="eth" format="1">
  <advance width="576"/>
  <unicode hex="00F0"/>
  <outline>
    <contour>
      <point x="204" y="520" type="line"/>
      <point x="314" y="596" type="line"/>
      <point x="373" y="550"/>
      <point x="409" y="491"/>
      <point x="433" y="408" type="curve"/>
      <point x="428" y="408" type="line"/>
      <point x="392" y="452"/>
      <point x="328" y="468"/>
      <point x="280" y="468" type="curve" smooth="yes"/>
      <point x="152" y="468"/>
      <point x="44" y="368"/>
      <point x="44" y="228" type="curve" smooth="yes"/>
      <point x="44" y="88"/>
      <point x="140" y="-12"/>
      <point x="288" y="-12" type="curve" smooth="yes"/>
      <point x="428" y="-12"/>
      <point x="532" y="88"/>
      <point x="532" y="268" type="curve" smooth="yes"/>
      <point x="532" y="271" type="line" smooth="yes"/>
      <point x="532" y="463"/>
      <point x="472" y="568"/>
      <point x="379" y="640" type="curve"/>
      <point x="460" y="696" type="line"/>
      <point x="428" y="744" type="line"/>
      <point x="327" y="675" type="line"/>
      <point x="277" y="703"/>
      <point x="219" y="726"/>
      <point x="152" y="744" type="curve"/>
      <point x="132" y="680" type="line"/>
      <point x="183" y="665"/>
      <point x="226" y="649"/>
      <point x="262" y="630" type="curve"/>
      <point x="172" y="568" type="line"/>
    </contour>
    <contour>
      <point x="136" y="228" type="curve" smooth="yes"/>
      <point x="136" y="324"/>
      <point x="200" y="392"/>
      <point x="288" y="392" type="curve" smooth="yes"/>
      <point x="376" y="392"/>
      <point x="440" y="328"/>
      <point x="440" y="228" type="curve" smooth="yes"/>
      <point x="440" y="132"/>
      <point x="376" y="64"/>
      <point x="288" y="64" type="curve" smooth="yes"/>
      <point x="200" y="64"/>
      <point x="136" y="132"/>
    </contour>
  </outline>
</glyph>
<glyph name="ntilde" format="2">
  <advance width="564"/>
  <unicode hex="00F1"/>
  <outline>
    <contour>
      <point x="76" y="0" type="line" name="hr01"/>
      <point x="164" y="0" type="line"/>
      <point x="164" y="253" type="line" smooth="yes"/>
      <point x="164" y="359"/>
      <point x="222" y="424"/>
      <point x="296" y="424" type="curve" smooth="yes"/>
      <point x="364" y="424"/>
      <point x="408" y="388"/>
      <point x="408" y="284" type="curve" smooth="yes"/>
      <point x="408" y="0" type="line"/>
      <point x="496" y="0" type="line"/>
      <point x="496" y="296" type="line" smooth="yes"/>
      <point x="496" y="448"/>
      <point x="412" y="500"/>
      <point x="316" y="500" type="curve" smooth="yes"/>
      <point x="244" y="500"/>
      <point x="192" y="472"/>
      <point x="164" y="416" type="curve"/>
      <point x="160" y="416" type="line"/>
      <point x="160" y="488" type="line" name="hr02"/>
      <point x="76" y="488" type="line"/>
    </contour>
    <contour>
      <point x="120" y="596" type="curve" name="hr03"/>
      <point x="168" y="596" type="line"/>
      <point x="172" y="619"/>
      <point x="184" y="644"/>
      <point x="212" y="644" type="curve" smooth="yes"/>
      <point x="247" y="644"/>
      <point x="293" y="596"/>
      <point x="352" y="596" type="curve" smooth="yes"/>
      <point x="413" y="596"/>
      <point x="445" y="644"/>
      <point x="448" y="704" type="curve"/>
      <point x="400" y="704" type="line"/>
      <point x="396" y="681"/>
      <point x="384" y="656"/>
      <point x="356" y="656" type="curve" smooth="yes" name="hr04"/>
      <point x="321" y="656"/>
      <point x="275" y="704"/>
      <point x="216" y="704" type="curve" smooth="yes"/>
      <point x="155" y="704"/>
      <point x="123" y="656"/>
    </contour>
  </outline>
</glyph>
<glyph name="oacute" format="2">
  <advance width="560"/>
  <unicode hex="00F3"/>
  <outline>
    <contour>
      <point x="40" y="244" type="curve" smooth="yes" name="hr00"/>
      <point x="40" y="88"/>
      <point x="132" y="-12"/>
      <point x="280" y="-12" type="curve" smooth="yes"/>
      <point x="420" y="-12"/>
      <point x="520" y="88"/>
      <point x="520" y="244" type="curve" smooth="yes"/>
      <point x="520" y="400"/>
      <point x="428" y="500"/>
      <point x="280" y="500" type="curve" smooth="yes"/>
      <point x="140" y="500"/>
      <point x="40" y="400"/>
    </contour>
    <contour>
      <point x="132" y="244" type="curve" smooth="yes"/>
      <point x="132" y="352"/>
      <point x="192" y="424"/>
      <point x="280" y="424" type="curve" smooth="yes"/>
      <point x="368" y="424"/>
      <point x="428" y="356"/>
      <point x="428" y="244" type="curve" smooth="yes"/>
      <point x="428" y="136"/>
      <point x="368" y="64"/>
      <point x="280" y="64" type="curve" smooth="yes"/>
      <point x="192" y="64"/>
      <point x="132" y="136"/>
    </contour>
    <contour>
      <point x="248" y="568" type="line"/>
      <point x="312" y="568" type="line"/>
      <point x="456" y="732" type="line"/>
      <point x="352" y="732" type="line"/>
    </contour>
  </outline>
</glyph>
<glyph name="otilde" format="1">
  <advance width="560"/>
  <unicode hex="00F5"/>
  <outline>
    <contour>
      <point x="40" y="244" type="curve" smooth="yes"/>
      <point x="40" y="88"/>
      <point x="132" y="-12"/>
      <point x="280" y="-12" type="curve" smooth="yes"/>
      <point x="420" y="-12"/>
      <point x="520" y="88"/>
      <point x="520" y="244" type="curve" smooth="yes"/>
      <point x="520" y="400"/>
      <point x="428" y="500"/>
      <point x="280" y="500" type="curve" smooth="yes"/>
      <point x="140" y="500"/>
      <point x="40" y="400"/>
    </contour>
    <contour>
      <point x="132" y="244" type="curve" smooth="yes"/>
      <point x="132" y="352"/>
      <point x="192" y="424"/>
      <point x="280" y="424" type="curve" smooth="yes"/>
      <point x="368" y="424"/>
      <point x="428" y="356"/>
      <point x="428" y="244" type="curve" smooth="yes"/>
      <point x="428" y="136"/>
      <point x="368" y="64"/>
      <point x="280" y="64" type="curve" smooth="yes"/>
      <point x="192" y="64"/>
      <point x="132" y="136"/>
    </contour>
    <contour>
      <point x="116" y="596" type="curve"/>
      <point x="164" y="596" type="line"/>
      <point x="168" y="619"/>
      <point x="180" y="644"/>
      <point x="208" y="644" type="curve" smooth="yes"/>
      <point x="243" y="644"/>
      <point x="289" y="596"/>
      <point x="348" y="596" type="curve" smooth="yes"/>
      <point x="409" y="596"/>
      <point x="441" y="644"/>
      <point x="444" y="704" type="curve"/>
      <point x="396" y="704" type="line"/>
      <point x="392" y="681"/>
      <point x="380" y="656"/>
      <point x="352" y="656" type="curve" smooth="yes"/>
      <point x="317" y="656"/>
      <point x="271" y="704"/>
      <point x="212" y="704" type="curve" smooth="yes"/>
      <point x="151" y="704"/>
      <point x="119" y="656"/>
    </contour>
  </outline>
</glyph>
<glyph name="odieresis" format="1">
  <advance width="560"/>
  <unicode hex="00F6"/>
  <outline>
    <contour>
      <point x="40" y="244" type="curve" smooth="yes" name="hr01"/>
      <point x="40" y="88"/>
      <point x="132" y="-12"/>
      <point x="280" y="-12" type="curve" smooth="yes"/>
      <point x="420" y="-12"/>
      <point x="520" y="88"/>
      <point x="520" y="244" type="curve" smooth="yes"/>
      <point x="520" y="400"/>
      <point x="428" y="500"/>
      <point x="280" y="500" type="curve" smooth="yes"/>
      <point x="140" y="500"/>
      <point x="40" y="400"/>
    </contour>
    <contour>
      <point x="132" y="244" type="curve" smooth="yes"/>
      <point x="132" y="352"/>
      <point x="192" y="424"/>
      <point x="280" y="424" type="curve" smooth="yes"/>
      <point x="368" y="424"/>
      <point x="428" y="356"/>
      <point x="428" y="244" type="curve" smooth="yes"/>
      <point x="428" y="136"/>
      <point x="368" y="64"/>
      <point x="280" y="64" type="curve" smooth="yes"/>
      <point x="192" y="64"/>
      <point x="132" y="136"/>
    </contour>
    <contour>
      <point x="336" y="604" type="line" name="hr02"/>
      <point x="424" y="604" type="line"/>
      <point x="424" y="696" type="line"/>
      <point x="336" y="696" type="line"/>
    </contour>
    <contour>
      <point x="136" y="604" type="line"/>
      <point x="224" y="604" type="line"/>
      <point x="224" y="696" type="line"/>
      <point x="136" y="696" type="line"/>
    </contour>
  </outline>
</glyph>
<glyph name="divide" format="1">
  <advance width="568"/>
  <unicode hex="00F7"/>
  <outline>
    <contour>
      <point x="236" y="380" type="line" name="hr00"/>
      <point x="332" y="380" type="line"/>
      <point x="332" y="480" type="line"/>
      <point x="236" y="480" type="line"/>
    </contour>
    <contour>
      <point x="56" y="216" type="line"/>
      <point x="512" y="216" type="line"/>
      <point x="512" y="292" type="line"/>
      <point x="56" y="292" type="line"/>
    </contour>
    <contour>
      <point x="236" y="26" type="line"/>
      <point x="332" y="26" type="line"/>
      <point x="332" y="126" type="line"/>
      <point x="236" y="126" type="line"/>
    </contour>
  </outline>
</glyph>
<glyph name="oslash" format="2">
  <advance width="560"/>
  <unicode hex="00F8"/>
  <outline>
    <contour>
      <point x="40" y="-12" type="line" name="hr00"/>
      <point x="104" y="-12" type="line"/>
      <point x="137" y="29" type="line"/>
      <point x="175" y="2"/>
      <point x="224" y="-12"/>
      <point x="280" y="-12" type="curve" smooth="yes"/>
      <point x="420" y="-12"/>
      <point x="520" y="88"/>
      <point x="520" y="244" type="curve" smooth="yes"/>
      <point x="520" y="319"/>
      <point x="498" y="381"/>
      <point x="459" y="425" type="curve"/>
      <point x="520" y="500" type="line"/>
      <point x="456" y="500" type="line"/>
      <point x="422" y="459" type="line"/>
      <point x="384" y="485"/>
      <point x="336" y="500"/>
      <point x="280" y="500" type="curve" smooth="yes"/>
      <point x="140" y="500"/>
      <point x="40" y="400"/>
      <point x="40" y="244" type="curve" smooth="yes"/>
      <point x="40" y="168"/>
      <point x="61" y="107"/>
      <point x="100" y="62" type="curve"/>
    </contour>
    <contour>
      <point x="132" y="244" type="curve" smooth="yes"/>
      <point x="132" y="352"/>
      <point x="192" y="424"/>
      <point x="280" y="424" type="curve" smooth="yes"/>
      <point x="315" y="424"/>
      <point x="345" y="413"/>
      <point x="369" y="393" type="curve"/>
      <point x="158" y="134" type="line"/>
      <point x="141" y="163"/>
      <point x="132" y="201"/>
    </contour>
    <contour>
      <point x="428" y="244" type="curve" smooth="yes"/>
      <point x="428" y="136"/>
      <point x="368" y="64"/>
      <point x="280" y="64" type="curve" smooth="yes"/>
      <point x="245" y="64"/>
      <point x="215" y="75"/>
      <point x="191" y="95" type="curve"/>
      <point x="402" y="354" type="line"/>
      <point x="419" y="325"/>
      <point x="428" y="288"/>
    </contour>
  </outline>
</glyph>
<glyph name="yacute" format="1">
  <advance width="468"/>
  <unicode hex="00FD"/>
  <outline>
    <contour>
      <point x="33" y="-152" type="line"/>
      <point x="33" y="-228" type="line"/>
      <point x="81" y="-228" type="line" smooth="yes"/>
      <point x="180" y="-228"/>
      <point x="231" y="-148"/>
      <point x="257" y="-76" type="curve" smooth="yes"/>
      <point x="464" y="488" type="line"/>
      <point x="376" y="488" type="line"/>
      <point x="240" y="96" type="line"/>
      <point x="236" y="96" type="line"/>
      <point x="100" y="488" type="line"/>
      <point x="4" y="488" type="line"/>
      <point x="196" y="-21" type="line"/>
      <point x="185" y="-52" type="line" smooth="yes"/>
      <point x="161" y="-118"/>
      <point x="121" y="-152"/>
      <point x="65" y="-152" type="curve" smooth="yes"/>
    </contour>
    <contour>
      <point x="200" y="568" type="line"/>
      <point x="264" y="568" type="line"/>
      <point x="408" y="732" type="line"/>
      <point x="304" y="732" type="line"/>
    </contour>
  </outline>
</glyph>
<glyph name="thorn" format="1">
  <advance width="584"/>
  <unicode hex="00FE"/>
  <outline>
    <contour>
      <point x="544" y="248" type="curve" smooth="yes"/>
      <point x="544" y="408"/>
      <point x="452" y="500"/>
      <point x="328" y="500" type="curve" smooth="yes"/>
      <point x="260" y="500"/>
      <point x="196" y="476"/>
      <point x="164" y="412" type="curve"/>
      <point x="160" y="412" type="line"/>
      <point x="164" y="476"/>
      <point x="164" y="543"/>
      <point x="164" y="576" type="curve" smooth="yes"/>
      <point x="164" y="732" type="line"/>
      <point x="76" y="732" type="line"/>
      <point x="76" y="-220" type="line"/>
      <point x="164" y="-220" type="line"/>
      <point x="164" y="-88" type="line" smooth="yes"/>
      <point x="164" y="-55"/>
      <point x="164" y="12"/>
      <point x="160" y="76" type="curve"/>
      <point x="164" y="76" type="line"/>
      <point x="196" y="12"/>
      <point x="252" y="-12"/>
      <point x="320" y="-12" type="curve" smooth="yes"/>
      <point x="444" y="-12"/>
      <point x="544" y="88"/>
    </contour>
    <contour>
      <point x="452" y="248" type="curve" smooth="yes"/>
      <point x="452" y="132"/>
      <point x="388" y="64"/>
      <point x="308" y="64" type="curve" smooth="yes"/>
      <point x="228" y="64"/>
      <point x="164" y="128"/>
      <point x="164" y="244" type="curve" smooth="yes"/>
      <point x="164" y="252" type="line" smooth="yes"/>
      <point x="167" y="363"/>
      <point x="230" y="424"/>
      <point x="308" y="424" type="curve" smooth="yes"/>
      <point x="388" y="424"/>
      <point x="452" y="364"/>
    </contour>
  </outline>
</glyph>
<glyph name="ydieresis" format="1">
  <advance width="468"/>
  <unicode hex="00FF"/>
  <outline>
    <contour>
      <point x="33" y="-152" type="line" name="hr00"/>
      <point x="33" y="-228" type="line"/>
      <point x="81" y="-228" type="line" smooth="yes"/>
      <point x="180" y="-228"/>
      <point x="231" y="-148"/>
      <point x="257" y="-76" type="curve" smooth="yes"/>
      <point x="464" y="488" type="line"/>
      <point x="376" y="488" type="line"/>
      <point x="240" y="96" type="line"/>
      <point x="236" y="96" type="line"/>
      <point x="100" y="488" type="line"/>
      <point x="4" y="488" type="line"/>
      <point x="196" y="-21" type="line"/>
      <point x="185" y="-52" type="line" smooth="yes"/>
      <point x="161" y="-118"/>
      <point x="121" y="-152"/>
      <point x="65" y="-152" type="curve" smooth="yes"/>
    </contour>
    <contour>
      <point x="288" y="604" type="line"/>
      <point x="376" y="604" type="line"/>
      <point x="376" y="696" type="line"/>
      <point x="288" y="696" type="line"/>
    </contour>
    <contour>
      <point x="88" y="604" type="line"/>
      <point x="176" y="604" type="line"/>
      <point x="176" y="696" type="line"/>
      <point x="88" y="696" type="line"/>
    </contour>
  </outline>
</glyph>
<glyph name="Amacron" format="2">
  <advance width="644"/>
  <unicode hex="0100"/>
  <outline>
    <contour>
      <point x="12" y="0" type="line" name="hr01"/>
      <point x="104" y="0" type="line"/>
      <point x="169" y="180" type="line"/>
      <point x="471" y="180" type="line"/>
      <point x="536" y="0" type="line"/>
      <point x="632" y="0" type="line"/>
      <point x="376" y="688" type="line"/>
      <point x="268" y="688" type="line"/>
    </contour>
    <contour>
      <point x="322" y="592" type="line"/>
      <point x="442" y="260" type="line"/>
      <point x="198" y="260" type="line"/>
      <point x="318" y="592" type="line"/>
    </contour>
    <contour>
      <point x="180" y="816" type="line" name="hr02"/>
      <point x="456" y="816" type="line"/>
      <point x="456" y="884" type="line"/>
      <point x="180" y="884" type="line"/>
    </contour>
  </outline>
</glyph>
<glyph name="amacron" format="1">
  <advance width="524"/>
  <unicode hex="0101"/>
  <outline>
    <contour>
      <point x="48" y="124" type="curve" smooth="yes"/>
      <point x="48" y="42"/>
      <point x="108" y="-12"/>
      <point x="212" y="-12" type="curve" smooth="yes"/>
      <point x="283" y="-12"/>
      <point x="340" y="14"/>
      <point x="368" y="65" type="curve"/>
      <point x="372" y="65" type="line"/>
      <point x="372" y="0" type="line"/>
      <point x="456" y="0" type="line"/>
      <point x="456" y="320" type="line" smooth="yes"/>
      <point x="456" y="432"/>
      <point x="392" y="500"/>
      <point x="264" y="500" type="curve" smooth="yes"/>
      <point x="141" y="500"/>
      <point x="72" y="428"/>
      <point x="68" y="336" type="curve"/>
      <point x="152" y="336" type="line"/>
      <point x="156" y="390"/>
      <point x="193" y="428"/>
      <point x="264" y="428" type="curve" smooth="yes"/>
      <point x="333" y="428"/>
      <point x="368" y="387"/>
      <point x="368" y="328" type="curve" smooth="yes"/>
      <point x="368" y="305"/>
      <point x="356" y="299"/>
      <point x="304" y="290" type="curve" smooth="yes"/>
      <point x="208" y="274" type="line" smooth="yes"/>
      <point x="94" y="254"/>
      <point x="48" y="205"/>
    </contour>
    <contour>
      <point x="368" y="204" type="line" smooth="yes"/>
      <point x="368" y="108"/>
      <point x="304" y="60"/>
      <point x="228" y="60" type="curve" smooth="yes"/>
      <point x="166" y="60"/>
      <point x="136" y="90"/>
      <point x="136" y="132" type="curve" smooth="yes"/>
      <point x="136" y="174"/>
      <point x="160" y="201"/>
      <point x="224" y="212" type="curve" smooth="yes"/>
      <point x="316" y="228" type="line" smooth="yes"/>
      <point x="340" y="232"/>
      <point x="358" y="239"/>
      <point x="368" y="251" type="curve"/>
    </contour>
    <contour>
      <point x="120" y="616" type="line"/>
      <point x="396" y="616" type="line"/>
      <point x="396" y="684" type="line"/>
      <point x="120" y="684" type="line"/>
    </contour>
  </outline>
</glyph>
<glyph name="Abreve" format="2">
  <advance width="644"/>
  <unicode hex="0102"/>
  <outline>
    <contour>
      <point x="12" y="0" type="line" name="hr00"/>
      <point x="104" y="0" type="line"/>
      <point x="169" y="180" type="line"/>
      <point x="471" y="180" type="line"/>
      <point x="536" y="0" type="line"/>
      <point x="632" y="0" type="line"/>
      <point x="376" y="688" type="line"/>
      <point x="268" y="688" type="line"/>
    </contour>
    <contour>
      <point x="322" y="592" type="line"/>
      <point x="442" y="260" type="line"/>
      <point x="198" y="260" type="line"/>
      <point x="318" y="592" type="line"/>
    </contour>
    <contour>
      <point x="320" y="780" type="curve" smooth="yes"/>
      <point x="382" y="780"/>
      <point x="453" y="814"/>
      <point x="464" y="920" type="curve"/>
      <point x="408" y="920" type="line"/>
      <point x="400" y="868"/>
      <point x="372" y="836"/>
      <point x="320" y="836" type="curve" smooth="yes"/>
      <point x="268" y="836"/>
      <point x="240" y="868"/>
      <point x="232" y="920" type="curve"/>
      <point x="176" y="920" type="line"/>
      <point x="187" y="814"/>
      <point x="258" y="780"/>
    </contour>
  </outline>
</glyph>
<glyph name="abreve" format="1">
  <advance width="524"/>
  <unicode hex="0103"/>
  <outline>
    <contour>
      <point x="48" y="124" type="curve" smooth="yes" name="hr01"/>
      <point x="48" y="42"/>
      <point x="108" y="-12"/>
      <point x="212" y="-12" type="curve" smooth="yes"/>
      <point x="283" y="-12"/>
      <point x="340" y="14"/>
      <point x="368" y="65" type="curve"/>
      <point x="372" y="65" type="line"/>
      <point x="372" y="0" type="line" name="hr02"/>
      <point x="456" y="0" type="line"/>
      <point x="456" y="320" type="line" smooth="yes"/>
      <point x="456" y="432"/>
      <point x="392" y="500"/>
      <point x="264" y="500" type="curve" smooth="yes"/>
      <point x="141" y="500"/>
      <point x="72" y="428"/>
      <point x="68" y="336" type="curve"/>
      <point x="152" y="336" type="line"/>
      <point x="156" y="390"/>
      <point x="193" y="428"/>
      <point x="264" y="428" type="curve" smooth="yes"/>
      <point x="333" y="428"/>
      <point x="368" y="387"/>
      <point x="368" y="328" type="curve" smooth="yes"/>
      <point x="368" y="305"/>
      <point x="356" y="299"/>
      <point x="304" y="290" type="curve" smooth="yes"/>
      <point x="208" y="274" type="line" smooth="yes"/>
      <point x="94" y="254"/>
      <point x="48" y="205"/>
    </contour>
    <contour>
      <point x="368" y="204" type="line" smooth="yes"/>
      <point x="368" y="108"/>
      <point x="304" y="60"/>
      <point x="228" y="60" type="curve" smooth="yes"/>
      <point x="166" y="60"/>
      <point x="136" y="90"/>
      <point x="136" y="132" type="curve" smooth="yes"/>
      <point x="136" y="174"/>
      <point x="160" y="201"/>
      <point x="224" y="212" type="curve" smooth="yes"/>
      <point x="316" y="228" type="line" smooth="yes"/>
      <point x="340" y="232"/>
      <point x="358" y="239"/>
      <point x="368" y="251" type="curve"/>
    </contour>
    <contour>
      <point x="260" y="580" type="curve" smooth="yes"/>
      <point x="322" y="580"/>
      <point x="393" y="614"/>
      <point x="404" y="720" type="curve"/>
      <point x="348" y="720" type="line"/>
      <point x="340" y="668"/>
      <point x="312" y="636"/>
      <point x="260" y="636" type="curve" smooth="yes"/>
      <point x="208" y="636"/>
      <point x="180" y="668"/>
      <point x="172" y="720" type="curve"/>
      <point x="116" y="720" type="line"/>
      <point x="127" y="614"/>
      <point x="198" y="580"/>
    </contour>
  </outline>
</glyph>
<glyph name="Aogonek" format="1">
  <advance width="644"/>
  <unicode hex="0104"/>
  <outline>
    <contour>
      <point x="504" y="-128" type="curve" smooth="yes" name="hr00"/>
      <point x="504" y="-181"/>
      <point x="543" y="-220"/>
      <point x="616" y="-220" type="curve" smooth="yes"/>
      <point x="656" y="-220" type="line"/>
      <point x="656" y="-160" type="line"/>
      <point x="628" y="-160" type="line" smooth="yes"/>
      <point x="587" y="-160"/>
      <point x="572" y="-141"/>
      <point x="572" y="-112" type="curve" smooth="yes"/>
      <point x="572" y="-84"/>
      <point x="589" y="-45"/>
      <point x="632" y="0" type="curve"/>
      <point x="376" y="688" type="line"/>
      <point x="268" y="688" type="line"/>
      <point x="12" y="0" type="line"/>
      <point x="104" y="0" type="line"/>
      <point x="169" y="180" type="line"/>
      <point x="471" y="180" type="line"/>
      <point x="536" y="0" type="line"/>
      <point x="584" y="0" type="line"/>
      <point x="526" y="-47"/>
      <point x="504" y="-87"/>
    </contour>
    <contour>
      <point x="322" y="592" type="line"/>
      <point x="442" y="260" type="line"/>
      <point x="198" y="260" type="line"/>
      <point x="318" y="592" type="line"/>
    </contour>
  </outline>
</glyph>
<glyph name="aogonek" format="1">
  <advance width="524"/>
  <unicode hex="0105"/>
  <outline>
    <contour>
      <point x="328" y="-128" type="curve" smooth="yes" name="hr01"/>
      <point x="328" y="-181"/>
      <point x="367" y="-220"/>
      <point x="440" y="-220" type="curve" smooth="yes"/>
      <point x="480" y="-220" type="line"/>
      <point x="480" y="-160" type="line"/>
      <point x="452" y="-160" type="line" smooth="yes"/>
      <point x="411" y="-160"/>
      <point x="396" y="-141"/>
      <point x="396" y="-112" type="curve" smooth="yes"/>
      <point x="396" y="-84"/>
      <point x="413" y="-45"/>
      <point x="456" y="0" type="curve" name="hr02"/>
      <point x="456" y="320" type="line" smooth="yes"/>
      <point x="456" y="432"/>
      <point x="392" y="500"/>
      <point x="264" y="500" type="curve" smooth="yes"/>
      <point x="141" y="500"/>
      <point x="72" y="428"/>
      <point x="68" y="336" type="curve"/>
      <point x="152" y="336" type="line"/>
      <point x="156" y="390"/>
      <point x="193" y="428"/>
      <point x="264" y="428" type="curve" smooth="yes"/>
      <point x="333" y="428"/>
      <point x="368" y="387"/>
      <point x="368" y="328" type="curve" smooth="yes"/>
      <point x="368" y="305"/>
      <point x="356" y="299"/>
      <point x="304" y="290" type="curve" smooth="yes"/>
      <point x="208" y="274" type="line" smooth="yes"/>
      <point x="94" y="254"/>
      <point x="48" y="205"/>
      <point x="48" y="124" type="curve" smooth="yes"/>
      <point x="48" y="42"/>
      <point x="108" y="-12"/>
      <point x="212" y="-12" type="curve" smooth="yes"/>
      <point x="283" y="-12"/>
      <point x="340" y="14"/>
      <point x="368" y="65" type="curve"/>
      <point x="372" y="65" type="line"/>
      <point x="372" y="0" type="line" name="hr03"/>
      <point x="408" y="0" type="line" name="hr04"/>
      <point x="350" y="-47"/>
      <point x="328" y="-87"/>
    </contour>
    <contour>
      <point x="368" y="204" type="line" smooth="yes" name="hr06"/>
      <point x="368" y="108"/>
      <point x="304" y="60"/>
      <point x="228" y="60" type="curve" smooth="yes"/>
      <point x="166" y="60"/>
      <point x="136" y="90"/>
      <point x="136" y="132" type="curve" smooth="yes"/>
      <point x="136" y="174"/>
      <point x="160" y="201"/>
      <point x="224" y="212" type="curve" smooth="yes"/>
      <point x="316" y="228" type="line" smooth="yes"/>
      <point x="340" y="232"/>
      <point x="358" y="239"/>
      <point x="368" y="251" type="curve"/>
    </contour>
  </outline>
</glyph>
<glyph name="cacute" format="1">
  <advance width="516"/>
  <unicode hex="0107"/>
  <outline>
    <contour>
      <point x="40" y="244" type="curve" smooth="yes"/>
      <point x="40" y="88"/>
      <point x="128" y="-12"/>
      <point x="272" y="-12" type="curve" smooth="yes"/>
      <point x="398" y="-12"/>
      <point x="471" y="63"/>
      <point x="484" y="164" type="curve"/>
      <point x="396" y="164" type="line"/>
      <point x="386" y="108"/>
      <point x="348" y="64"/>
      <point x="272" y="64" type="curve" smooth="yes"/>
      <point x="192" y="64"/>
      <point x="132" y="136"/>
      <point x="132" y="244" type="curve" smooth="yes"/>
      <point x="132" y="352"/>
      <point x="192" y="424"/>
      <point x="272" y="424" type="curve" smooth="yes"/>
      <point x="348" y="424"/>
      <point x="386" y="380"/>
      <point x="396" y="324" type="curve"/>
      <point x="484" y="324" type="line"/>
      <point x="471" y="425"/>
      <point x="398" y="500"/>
      <point x="272" y="500" type="curve" smooth="yes"/>
      <point x="140" y="500"/>
      <point x="40" y="400"/>
    </contour>
    <contour>
      <point x="240" y="568" type="line"/>
      <point x="304" y="568" type="line"/>
      <point x="448" y="732" type="line"/>
      <point x="344" y="732" type="line"/>
    </contour>
  </outline>
</glyph>
<glyph name="Ccircumflex" format="2">
  <advance width="712"/>
  <unicode hex="0108"/>
  <outline>
    <contour>
      <point x="44" y="344" type="curve" smooth="yes" name="hr00"/>
      <point x="44" y="135"/>
      <point x="179" y="-12"/>
      <point x="372" y="-12" type="curve" smooth="yes"/>
      <point x="533" y="-12"/>
      <point x="640" y="81"/>
      <point x="668" y="216" type="curve"/>
      <point x="573" y="216" type="line"/>
      <point x="547" y="123"/>
      <point x="486" y="72"/>
      <point x="372" y="72" type="curve" smooth="yes"/>
      <point x="235" y="72"/>
      <point x="140" y="188"/>
      <point x="140" y="344" type="curve" smooth="yes"/>
      <point x="140" y="504"/>
      <point x="235" y="616"/>
      <point x="376" y="616" type="curve" smooth="yes"/>
      <point x="482" y="616"/>
      <point x="547" y="565"/>
      <point x="573" y="472" type="curve"/>
      <point x="668" y="472" type="line"/>
      <point x="640" y="607"/>
      <point x="537" y="700"/>
      <point x="376" y="700" type="curve" smooth="yes"/>
      <point x="179" y="700"/>
      <point x="44" y="549"/>
    </contour>
    <contour>
      <point x="208" y="768" type="line"/>
      <point x="292" y="768" type="line"/>
      <point x="376" y="880" type="line"/>
      <point x="460" y="768" type="line"/>
      <point x="544" y="768" type="line"/>
      <point x="416" y="932" type="line"/>
      <point x="336" y="932" type="line"/>
    </contour>
  </outline>
</glyph>
<glyph name="ccaron" format="2">
  <advance width="516"/>
  <unicode hex="010D"/>
  <outline>
    <contour>
      <point x="40" y="244" type="curve" smooth="yes" name="hr00"/>
      <point x="40" y="88"/>
      <point x="128" y="-12"/>
      <point x="272" y="-12" type="curve" smooth="yes"/>
      <point x="398" y="-12"/>
      <point x="471" y="63"/>
      <point x="484" y="164" type="curve"/>
      <point x="396" y="164" type="line"/>
      <point x="386" y="108"/>
      <point x="348" y="64"/>
      <point x="272" y="64" type="curve" smooth="yes"/>
      <point x="192" y="64"/>
      <point x="132" y="136"/>
      <point x="132" y="244" type="curve" smooth="yes"/>
      <point x="132" y="352"/>
      <point x="192" y="424"/>
      <point x="272" y="424" type="curve" smooth="yes"/>
      <point x="348" y="424"/>
      <point x="386" y="380"/>
      <point x="396" y="324" type="curve"/>
      <point x="484" y="324" type="line"/>
      <point x="471" y="425"/>
      <point x="398" y="500"/>
      <point x="272" y="500" type="curve" smooth="yes"/>
      <point x="140" y="500"/>
      <point x="40" y="400"/>
    </contour>
    <contour>
      <point x="232" y="568" type="line"/>
      <point x="312" y="568" type="line"/>
      <point x="440" y="732" type="line"/>
      <point x="356" y="732" type="line"/>
      <point x="272" y="620" type="line"/>
      <point x="188" y="732" type="line"/>
      <point x="104" y="732" type="line"/>
    </contour>
  </outline>
</glyph>
<glyph name="Dcaron" format="1">
  <advance width="704"/>
  <unicode hex="010E"/>
  <outline>
    <contour>
      <point x="88" y="0" type="line" name="hr00"/>
      <point x="300" y="0" type="line" smooth="yes"/>
      <point x="537" y="0"/>
      <point x="660" y="143"/>
      <point x="660" y="344" type="curve" smooth="yes"/>
      <point x="660" y="545"/>
      <point x="537" y="688"/>
      <point x="300" y="688" type="curve" smooth="yes"/>
      <point x="88" y="688" type="line"/>
    </contour>
    <contour>
      <point x="300" y="608" type="line" smooth="yes"/>
      <point x="493" y="608"/>
      <point x="564" y="484"/>
      <point x="564" y="344" type="curve" smooth="yes"/>
      <point x="564" y="204"/>
      <point x="493" y="80"/>
      <point x="300" y="80" type="curve" smooth="yes"/>
      <point x="180" y="80" type="line"/>
      <point x="180" y="608" type="line"/>
    </contour>
    <contour>
      <point x="284" y="768" type="line"/>
      <point x="364" y="768" type="line"/>
      <point x="492" y="932" type="line"/>
      <point x="408" y="932" type="line"/>
      <point x="324" y="820" type="line"/>
      <point x="240" y="932" type="line"/>
      <point x="156" y="932" type="line"/>
    </contour>
  </outline>
</glyph>
<glyph name="dcaron" format="1">
  <advance width="584"/>
  <unicode hex="010F"/>
  <outline>
    <contour>
      <point x="40" y="240" type="curve" smooth="yes"/>
      <point x="40" y="80"/>
      <point x="132" y="-12"/>
      <point x="256" y="-12" type="curve" smooth="yes"/>
      <point x="324" y="-12"/>
      <point x="388" y="12"/>
      <point x="420" y="76" type="curve"/>
      <point x="424" y="76" type="line"/>
      <point x="424" y="0" type="line"/>
      <point x="508" y="0" type="line"/>
      <point x="508" y="732" type="line"/>
      <point x="420" y="732" type="line"/>
      <point x="420" y="576" type="line" smooth="yes"/>
      <point x="420" y="543"/>
      <point x="420" y="476"/>
      <point x="424" y="412" type="curve"/>
      <point x="420" y="412" type="line"/>
      <point x="388" y="476"/>
      <point x="332" y="500"/>
      <point x="264" y="500" type="curve" smooth="yes"/>
      <point x="140" y="500"/>
      <point x="40" y="400"/>
    </contour>
    <contour>
      <point x="132" y="240" type="curve" smooth="yes"/>
      <point x="132" y="356"/>
      <point x="196" y="424"/>
      <point x="276" y="424" type="curve" smooth="yes"/>
      <point x="354" y="424"/>
      <point x="417" y="363"/>
      <point x="420" y="252" type="curve" smooth="yes"/>
      <point x="420" y="235" type="line" smooth="yes"/>
      <point x="417" y="125"/>
      <point x="354" y="64"/>
      <point x="276" y="64" type="curve" smooth="yes"/>
      <point x="196" y="64"/>
      <point x="132" y="124"/>
    </contour>
    <contour>
      <point x="596" y="516" type="line"/>
      <point x="640" y="516" type="line"/>
      <point x="680" y="640" type="line"/>
      <point x="680" y="732" type="line"/>
      <point x="584" y="732" type="line"/>
      <point x="584" y="632" type="line"/>
      <point x="624" y="632" type="line"/>
    </contour>
  </outline>
</glyph>
<glyph name="dcroat" format="2">
  <advance width="584"/>
  <unicode hex="0111"/>
  <outline>
    <contour>
      <point x="276" y="592" type="line" name="hr01"/>
      <point x="420" y="592" type="line"/>
      <point x="420" y="576" type="line" smooth="yes"/>
      <point x="420" y="543"/>
      <point x="420" y="476"/>
      <point x="424" y="412" type="curve"/>
      <point x="420" y="412" type="line"/>
      <point x="388" y="476"/>
      <point x="332" y="500"/>
      <point x="264" y="500" type="curve" smooth="yes"/>
      <point x="140" y="500"/>
      <point x="40" y="400"/>
      <point x="40" y="240" type="curve" smooth="yes"/>
      <point x="40" y="80"/>
      <point x="132" y="-12"/>
      <point x="256" y="-12" type="curve" smooth="yes"/>
      <point x="324" y="-12"/>
      <point x="388" y="12"/>
      <point x="420" y="76" type="curve"/>
      <point x="424" y="76" type="line"/>
      <point x="424" y="0" type="line" name="hr02"/>
      <point x="508" y="0" type="line"/>
      <point x="508" y="592" type="line"/>
      <point x="584" y="592" type="line"/>
      <point x="584" y="652" type="line" name="hr03"/>
      <point x="508" y="652" type="line"/>
      <point x="508" y="732" type="line" name="hr04"/>
      <point x="420" y="732" type="line"/>
      <point x="420" y="652" type="line" name="hr05"/>
      <point x="276" y="652" type="line"/>
    </contour>
    <contour>
      <point x="132" y="240" type="curve" smooth="yes"/>
      <point x="132" y="356"/>
      <point x="196" y="424"/>
      <point x="276" y="424" type="curve" smooth="yes"/>
      <point x="356" y="424"/>
      <point x="420" y="360"/>
      <point x="420" y="244" type="curve" smooth="yes"/>
      <point x="420" y="235" type="line" smooth="yes"/>
      <point x="417" y="125"/>
      <point x="354" y="64"/>
      <point x="276" y="64" type="curve" smooth="yes"/>
      <point x="196" y="64"/>
      <point x="132" y="124"/>
    </contour>
  </outline>
</glyph>
<glyph name="Ebreve" format="1">
  <advance width="612"/>
  <unicode hex="0114"/>
  <outline>
    <contour>
      <point x="88" y="0" type="line"/>
      <point x="560" y="0" type="line"/>
      <point x="560" y="80" type="line"/>
      <point x="180" y="80" type="line"/>
      <point x="180" y="310" type="line"/>
      <point x="476" y="310" type="line"/>
      <point x="476" y="390" type="line"/>
      <point x="180" y="390" type="line"/>
      <point x="180" y="608" type="line"/>
      <point x="552" y="608" type="line"/>
      <point x="552" y="688" type="line"/>
      <point x="88" y="688" type="line"/>
    </contour>
    <contour>
      <point x="320" y="780" type="curve" smooth="yes"/>
      <point x="382" y="780"/>
      <point x="453" y="814"/>
      <point x="464" y="920" type="curve"/>
      <point x="408" y="920" type="line"/>
      <point x="400" y="868"/>
      <point x="372" y="836"/>
      <point x="320" y="836" type="curve" smooth="yes"/>
      <point x="268" y="836"/>
      <point x="240" y="868"/>
      <point x="232" y="920" type="curve"/>
      <point x="176" y="920" type="line"/>
      <point x="187" y="814"/>
      <point x="258" y="780"/>
    </contour>
  </outline>
</glyph>
<glyph name="Edotaccent" format="2">
  <advance width="612"/>
  <unicode hex="0116"/>
  <outline>
    <contour>
      <point x="88" y="0" type="line" name="hr00"/>
      <point x="560" y="0" type="line"/>
      <point x="560" y="80" type="line"/>
      <point x="180" y="80" type="line"/>
      <point x="180" y="310" type="line"/>
      <point x="476" y="310" type="line"/>
      <point x="476" y="390" type="line"/>
      <point x="180" y="390" type="line"/>
      <point x="180" y="608" type="line"/>
      <point x="552" y="608" type="line"/>
      <point x="552" y="688" type="line"/>
      <point x="88" y="688" type="line"/>
    </contour>
    <contour>
      <point x="276" y="804" type="line"/>
      <point x="364" y="804" type="line"/>
      <point x="364" y="896" type="line"/>
      <point x="276" y="896" type="line"/>
    </contour>
  </outline>
</glyph>
<glyph name="Eogonek" format="2">
  <advance width="612"/>
  <unicode hex="0118"/>
  <outline>
    <contour>
      <point x="88" y="0" type="line" name="hr01"/>
      <point x="512" y="0" type="line"/>
      <point x="454" y="-47"/>
      <point x="432" y="-87"/>
      <point x="432" y="-128" type="curve" smooth="yes" name="hr02"/>
      <point x="432" y="-181"/>
      <point x="471" y="-220"/>
      <point x="544" y="-220" type="curve" smooth="yes"/>
      <point x="584" y="-220" type="line"/>
      <point x="584" y="-160" type="line"/>
      <point x="556" y="-160" type="line" smooth="yes"/>
      <point x="515" y="-160"/>
      <point x="500" y="-141"/>
      <point x="500" y="-112" type="curve" smooth="yes"/>
      <point x="500" y="-84"/>
      <point x="517" y="-45"/>
      <point x="560" y="0" type="curve" name="hr03"/>
      <point x="560" y="80" type="line"/>
      <point x="180" y="80" type="line"/>
      <point x="180" y="310" type="line"/>
      <point x="476" y="310" type="line"/>
      <point x="476" y="390" type="line"/>
      <point x="180" y="390" type="line"/>
      <point x="180" y="608" type="line"/>
      <point x="552" y="608" type="line"/>
      <point x="552" y="688" type="line"/>
      <point x="88" y="688" type="line"/>
    </contour>
  </outline>
</glyph>
<glyph name="eogonek" format="1">
  <advance width="524"/>
  <unicode hex="0119"/>
  <outline>
    <contour>
      <point x="215" y="-136" type="curve" smooth="yes"/>
      <point x="215" y="-189"/>
      <point x="254" y="-220"/>
      <point x="327" y="-220" type="curve" smooth="yes"/>
      <point x="367" y="-220" type="line"/>
      <point x="367" y="-160" type="line"/>
      <point x="339" y="-160" type="line" smooth="yes"/>
      <point x="298" y="-160"/>
      <point x="283" y="-147"/>
      <point x="283" y="-118" type="curve" smooth="yes"/>
      <point x="283" y="-75"/>
      <point x="349" y="-13"/>
      <point x="398" y="21" type="curve" smooth="yes"/>
      <point x="444" y="53"/>
      <point x="476" y="97"/>
      <point x="484" y="148" type="curve"/>
      <point x="396" y="148" type="line"/>
      <point x="386" y="104"/>
      <point x="348" y="64"/>
      <point x="276" y="64" type="curve" smooth="yes"/>
      <point x="191" y="64"/>
      <point x="136" y="130"/>
      <point x="132" y="232" type="curve"/>
      <point x="488" y="232" type="line"/>
      <point x="488" y="268" type="line" smooth="yes"/>
      <point x="488" y="414"/>
      <point x="400" y="500"/>
      <point x="272" y="500" type="curve" smooth="yes"/>
      <point x="140" y="500"/>
      <point x="40" y="396"/>
      <point x="40" y="244" type="curve" smooth="yes"/>
      <point x="40" y="88"/>
      <point x="124" y="-12"/>
      <point x="276" y="-12" type="curve" smooth="yes"/>
      <point x="281" y="-12"/>
      <point x="286" y="-12"/>
      <point x="291" y="-11" type="curve"/>
      <point x="254" y="-43"/>
      <point x="215" y="-85"/>
    </contour>
    <contour>
      <point x="272" y="424" type="curve" smooth="yes"/>
      <point x="345" y="424"/>
      <point x="390" y="386"/>
      <point x="398" y="298" type="curve"/>
      <point x="137" y="298" type="line"/>
      <point x="153" y="377"/>
      <point x="206" y="424"/>
    </contour>
  </outline>
</glyph>
<glyph name="gbreve" format="2">
  <advance width="584"/>
  <unicode hex="011F"/>
  <outline>
    <contour>
      <point x="52" y="-60" type="line" name="hr01"/>
      <point x="52" y="-170"/>
      <point x="146" y="-228"/>
      <point x="268" y="-228" type="curve" smooth="yes"/>
      <point x="398" y="-228"/>
      <point x="508" y="-161"/>
      <point x="508" y="24" type="curve" smooth="yes"/>
      <point x="508" y="488" type="line"/>
      <point x="424" y="488" type="line"/>
      <point x="424" y="412" type="line" name="hr02"/>
      <point x="420" y="412" type="line"/>
      <point x="388" y="476"/>
      <point x="332" y="500"/>
      <point x="264" y="500" type="curve" smooth="yes"/>
      <point x="140" y="500"/>
      <point x="40" y="400"/>
      <point x="40" y="240" type="curve" smooth="yes"/>
      <point x="40" y="80"/>
      <point x="132" y="-12"/>
      <point x="256" y="-12" type="curve" smooth="yes"/>
      <point x="324" y="-12"/>
      <point x="388" y="12"/>
      <point x="420" y="76" type="curve"/>
      <point x="424" y="76" type="line"/>
      <point x="424" y="24" type="line" smooth="yes"/>
      <point x="424" y="-113"/>
      <point x="354" y="-156"/>
      <point x="268" y="-156" type="curve" smooth="yes"/>
      <point x="192" y="-156"/>
      <point x="136" y="-120"/>
      <point x="136" y="-60" type="curve" name="hr03"/>
    </contour>
    <contour>
      <point x="132" y="240" type="curve" smooth="yes" name="hr04"/>
      <point x="132" y="356"/>
      <point x="196" y="424"/>
      <point x="276" y="424" type="curve" smooth="yes"/>
      <point x="356" y="424"/>
      <point x="420" y="360"/>
      <point x="420" y="244" type="curve" smooth="yes"/>
      <point x="420" y="128"/>
      <point x="356" y="64"/>
      <point x="276" y="64" type="curve" smooth="yes"/>
      <point x="196" y="64"/>
      <point x="132" y="124"/>
    </contour>
    <contour>
      <point x="276" y="580" type="curve" smooth="yes"/>
      <point x="338" y="580"/>
      <point x="409" y="614"/>
      <point x="420" y="720" type="curve"/>
      <point x="364" y="720" type="line"/>
      <point x="356" y="668"/>
      <point x="328" y="636"/>
      <point x="276" y="636" type="curve" smooth="yes"/>
      <point x="224" y="636"/>
      <point x="196" y="668"/>
      <point x="188" y="720" type="curve"/>
      <point x="132" y="720" type="line"/>
      <point x="143" y="614"/>
      <point x="214" y="580"/>
    </contour>
  </outline>
</glyph>
<glyph name="uni0122" format="1">
  <advance width="760"/>
  <unicode hex="0122"/>
  <outline>
    <contour>
      <point x="624" y="0" type="line"/>
      <point x="684" y="0" type="line"/>
      <point x="684" y="364" type="line"/>
      <point x="384" y="364" type="line"/>
      <point x="384" y="284" type="line"/>
      <point x="600" y="284" type="line"/>
      <point x="600" y="264" type="line" smooth="yes"/>
      <point x="600" y="140"/>
      <point x="495" y="72"/>
      <point x="380" y="72" type="curve" smooth="yes"/>
      <point x="239" y="72"/>
      <point x="140" y="188"/>
      <point x="140" y="344" type="curve" smooth="yes"/>
      <point x="140" y="500"/>
      <point x="235" y="616"/>
      <point x="384" y="616" type="curve" smooth="yes"/>
      <point x="501" y="616"/>
      <point x="566" y="555"/>
      <point x="588" y="484" type="curve"/>
      <point x="684" y="484" type="line"/>
      <point x="655" y="606"/>
      <point x="548" y="700"/>
      <point x="384" y="700" type="curve" smooth="yes"/>
      <point x="183" y="700"/>
      <point x="44" y="549"/>
      <point x="44" y="344" type="curve" smooth="yes"/>
      <point x="44" y="139"/>
      <point x="183" y="-12"/>
      <point x="380" y="-12" type="curve" smooth="yes"/>
      <point x="484" y="-12"/>
      <point x="556" y="23"/>
      <point x="605" y="100" type="curve"/>
      <point x="608" y="100" type="line"/>
    </contour>
    <contour>
      <point x="336" y="-68" type="line"/>
      <point x="336" y="-156" type="line"/>
      <point x="373" y="-156" type="line"/>
      <point x="347" y="-248" type="line"/>
      <point x="387" y="-248" type="line"/>
      <point x="424" y="-146" type="line"/>
      <point x="424" y="-68" type="line"/>
    </contour>
  </outline>
</glyph>
<glyph name="uni0123" format="1">
  <advance width="584"/>
  <unicode hex="0123"/>
  <outline>
    <contour>
      <point x="52" y="-60" type="line" name="hr01"/>
      <point x="52" y="-170"/>
      <point x="146" y="-228"/>
      <point x="268" y="-228" type="curve" smooth="yes"/>
      <point x="398" y="-228"/>
      <point x="508" y="-161"/>
      <point x="508" y="24" type="curve" smooth="yes"/>
      <point x="508" y="488" type="line"/>
      <point x="424" y="488" type="line"/>
      <point x="424" y="412" type="line" name="hr02"/>
      <point x="420" y="412" type="line"/>
      <point x="388" y="476"/>
      <point x="332" y="500"/>
      <point x="264" y="500" type="curve" smooth="yes"/>
      <point x="140" y="500"/>
      <point x="40" y="400"/>
      <point x="40" y="240" type="curve" smooth="yes"/>
      <point x="40" y="80"/>
      <point x="132" y="-12"/>
      <point x="256" y="-12" type="curve" smooth="yes"/>
      <point x="324" y="-12"/>
      <point x="388" y="12"/>
      <point x="420" y="76" type="curve"/>
      <point x="424" y="76" type="line"/>
      <point x="424" y="24" type="line" smooth="yes"/>
      <point x="424" y="-113"/>
      <point x="354" y="-156"/>
      <point x="268" y="-156" type="curve" smooth="yes"/>
      <point x="192" y="-156"/>
      <point x="136" y="-120"/>
      <point x="136" y="-60" type="curve" name="hr03"/>
    </contour>
    <contour>
      <point x="132" y="240" type="curve" smooth="yes" name="hr04"/>
      <point x="132" y="356"/>
      <point x="196" y="424"/>
      <point x="276" y="424" type="curve" smooth="yes"/>
      <point x="356" y="424"/>
      <point x="420" y="360"/>
      <point x="420" y="244" type="curve" smooth="yes"/>
      <point x="420" y="128"/>
      <point x="356" y="64"/>
      <point x="276" y="64" type="curve" smooth="yes"/>
      <point x="196" y="64"/>
      <point x="132" y="124"/>
    </contour>
    <contour>
      <point x="232" y="568" type="line"/>
      <point x="320" y="568" type="line"/>
      <point x="320" y="656" type="line"/>
      <point x="283" y="656" type="line"/>
      <point x="309" y="748" type="line"/>
      <point x="269" y="748" type="line"/>
      <point x="232" y="646" type="line"/>
    </contour>
  </outline>
</glyph>
<glyph name="Hcircumflex" format="2">
  <advance width="728"/>
  <unicode hex="0124"/>
  <outline>
    <contour>
      <point x="88" y="0" type="line" name="hr00"/>
      <point x="180" y="0" type="line"/>
      <point x="180" y="308" type="line"/>
      <point x="548" y="308" type="line"/>
      <point x="548" y="0" type="line"/>
      <point x="640" y="0" type="line"/>
      <point x="640" y="688" type="line"/>
      <point x="548" y="688" type="line"/>
      <point x="548" y="388" type="line"/>
      <point x="180" y="388" type="line"/>
      <point x="180" y="688" type="line"/>
      <point x="88" y="688" type="line"/>
    </contour>
    <contour>
      <point x="196" y="768" type="line"/>
      <point x="280" y="768" type="line"/>
      <point x="364" y="880" type="line"/>
      <point x="448" y="768" type="line"/>
      <point x="532" y="768" type="line"/>
      <point x="404" y="932" type="line"/>
      <point x="324" y="932" type="line"/>
    </contour>
  </outline>
</glyph>
<glyph name="hcircumflex" format="1">
  <advance width="564"/>
  <unicode hex="0125"/>
  <outline>
    <contour>
      <point x="76" y="0" type="line"/>
      <point x="164" y="0" type="line"/>
      <point x="164" y="255" type="line" smooth="yes"/>
      <point x="164" y="359"/>
      <point x="222" y="424"/>
      <point x="296" y="424" type="curve" smooth="yes"/>
      <point x="364" y="424"/>
      <point x="408" y="388"/>
      <point x="408" y="284" type="curve" smooth="yes"/>
      <point x="408" y="0" type="line"/>
      <point x="496" y="0" type="line"/>
      <point x="496" y="296" type="line" smooth="yes"/>
      <point x="496" y="448"/>
      <point x="412" y="500"/>
      <point x="316" y="500" type="curve" smooth="yes"/>
      <point x="244" y="500"/>
      <point x="192" y="472"/>
      <point x="164" y="416" type="curve"/>
      <point x="160" y="416" type="line"/>
      <point x="164" y="480"/>
      <point x="164" y="547"/>
      <point x="164" y="580" type="curve" smooth="yes"/>
      <point x="164" y="732" type="line"/>
      <point x="76" y="732" type="line"/>
    </contour>
    <contour>
      <point x="-48" y="812" type="line"/>
      <point x="36" y="812" type="line"/>
      <point x="120" y="924" type="line"/>
      <point x="204" y="812" type="line"/>
      <point x="288" y="812" type="line"/>
      <point x="160" y="976" type="line"/>
      <point x="80" y="976" type="line"/>
    </contour>
  </outline>
</glyph>
<glyph name="Hbar" format="2">
  <advance width="728"/>
  <unicode hex="0126"/>
  <outline>
    <contour>
      <point x="0" y="504" type="line" name="hr01"/>
      <point x="88" y="504" type="line"/>
      <point x="88" y="0" type="line"/>
      <point x="180" y="0" type="line"/>
      <point x="180" y="308" type="line"/>
      <point x="548" y="308" type="line"/>
      <point x="548" y="0" type="line"/>
      <point x="640" y="0" type="line"/>
      <point x="640" y="504" type="line"/>
      <point x="728" y="504" type="line"/>
      <point x="728" y="580" type="line" name="hr02"/>
      <point x="640" y="580" type="line"/>
      <point x="640" y="688" type="line" name="hr03"/>
      <point x="548" y="688" type="line"/>
      <point x="548" y="580" type="line" name="hr04"/>
      <point x="180" y="580" type="line"/>
      <point x="180" y="688" type="line" name="hr05"/>
      <point x="88" y="688" type="line"/>
      <point x="88" y="580" type="line" name="hr06"/>
      <point x="0" y="580" type="line"/>
    </contour>
    <contour>
      <point x="180" y="504" type="line" name="hr07"/>
      <point x="548" y="504" type="line"/>
      <point x="548" y="388" type="line"/>
      <point x="180" y="388" type="line"/>
    </contour>
  </outline>
</glyph>
<glyph name="hbar" format="1">
  <advance width="564"/>
  <unicode hex="0127"/>
  <outline>
    <contour>
      <point x="0" y="592" type="line" name="hr01"/>
      <point x="76" y="592" type="line"/>
      <point x="76" y="0" type="line"/>
      <point x="164" y="0" type="line"/>
      <point x="164" y="254" type="line" smooth="yes"/>
      <point x="164" y="359"/>
      <point x="222" y="424"/>
      <point x="296" y="424" type="curve" smooth="yes"/>
      <point x="364" y="424"/>
      <point x="408" y="388"/>
      <point x="408" y="284" type="curve" smooth="yes"/>
      <point x="408" y="0" type="line"/>
      <point x="496" y="0" type="line"/>
      <point x="496" y="296" type="line" smooth="yes"/>
      <point x="496" y="448"/>
      <point x="412" y="500"/>
      <point x="316" y="500" type="curve" smooth="yes"/>
      <point x="244" y="500"/>
      <point x="192" y="472"/>
      <point x="164" y="416" type="curve"/>
      <point x="160" y="416" type="line"/>
      <point x="164" y="480"/>
      <point x="164" y="547"/>
      <point x="164" y="580" type="curve" smooth="yes"/>
      <point x="164" y="592" type="line"/>
      <point x="308" y="592" type="line"/>
      <point x="308" y="652" type="line" name="hr02"/>
      <point x="164" y="652" type="line"/>
      <point x="164" y="732" type="line" name="hr03"/>
      <point x="76" y="732" type="line"/>
      <point x="76" y="652" type="line" name="hr04"/>
      <point x="0" y="652" type="line"/>
    </contour>
  </outline>
</glyph>
<glyph name="Itilde" format="1">
  <advance width="268"/>
  <unicode hex="0128"/>
  <outline>
    <contour>
      <point x="88" y="0" type="line" name="hr01"/>
      <point x="180" y="0" type="line"/>
      <point x="180" y="688" type="line"/>
      <point x="88" y="688" type="line"/>
    </contour>
    <contour>
      <point x="-30" y="796" type="curve"/>
      <point x="18" y="796" type="line"/>
      <point x="22" y="819"/>
      <point x="34" y="844"/>
      <point x="62" y="844" type="curve" smooth="yes"/>
      <point x="97" y="844"/>
      <point x="143" y="796"/>
      <point x="202" y="796" type="curve" smooth="yes"/>
      <point x="263" y="796"/>
      <point x="295" y="844"/>
      <point x="298" y="904" type="curve"/>
      <point x="250" y="904" type="line"/>
      <point x="246" y="881"/>
      <point x="234" y="856"/>
      <point x="206" y="856" type="curve" smooth="yes" name="hr02"/>
      <point x="171" y="856"/>
      <point x="125" y="904"/>
      <point x="66" y="904" type="curve" smooth="yes"/>
      <point x="5" y="904"/>
      <point x="-27" y="856"/>
    </contour>
  </outline>
</glyph>
<glyph name="itilde" format="1">
  <advance width="240"/>
  <unicode hex="0129"/>
  <outline>
    <contour>
      <point x="76" y="0" type="line" name="hr01"/>
      <point x="164" y="0" type="line"/>
      <point x="164" y="488" type="line"/>
      <point x="76" y="488" type="line"/>
    </contour>
    <contour>
      <point x="-44" y="596" type="curve"/>
      <point x="4" y="596" type="line"/>
      <point x="8" y="619"/>
      <point x="20" y="644"/>
      <point x="48" y="644" type="curve" smooth="yes"/>
      <point x="83" y="644"/>
      <point x="129" y="596"/>
      <point x="188" y="596" type="curve" smooth="yes"/>
      <point x="249" y="596"/>
      <point x="281" y="644"/>
      <point x="284" y="704" type="curve"/>
      <point x="236" y="704" type="line"/>
      <point x="232" y="681"/>
      <point x="220" y="656"/>
      <point x="192" y="656" type="curve" smooth="yes" name="hr02"/>
      <point x="157" y="656"/>
      <point x="111" y="704"/>
      <point x="52" y="704" type="curve" smooth="yes"/>
      <point x="-9" y="704"/>
      <point x="-41" y="656"/>
    </contour>
  </outline>
</glyph>
<glyph name="imacron" format="2">
  <advance width="240"/>
  <unicode hex="012B"/>
  <outline>
    <contour>
      <point x="76" y="0" type="line" name="hr00"/>
      <point x="164" y="0" type="line"/>
      <point x="164" y="488" type="line"/>
      <point x="76" y="488" type="line"/>
    </contour>
    <contour>
      <point x="-20" y="616" type="line"/>
      <point x="256" y="616" type="line"/>
      <point x="256" y="684" type="line"/>
      <point x="-20" y="684" type="line"/>
    </contour>
  </outline>
</glyph>
<glyph name="Ibreve" format="1">
  <advance width="268"/>
  <unicode hex="012C"/>
  <outline>
    <contour>
      <point x="88" y="0" type="line"/>
      <point x="180" y="0" type="line"/>
      <point x="180" y="688" type="line"/>
      <point x="88" y="688" type="line"/>
    </contour>
    <contour>
      <point x="134" y="780" type="curve" smooth="yes"/>
      <point x="196" y="780"/>
      <point x="267" y="814"/>
      <point x="278" y="920" type="curve"/>
      <point x="222" y="920" type="line"/>
      <point x="214" y="868"/>
      <point x="186" y="836"/>
      <point x="134" y="836" type="curve" smooth="yes"/>
      <point x="82" y="836"/>
      <point x="54" y="868"/>
      <point x="46" y="920" type="curve"/>
      <point x="-10" y="920" type="line"/>
      <point x="1" y="814"/>
      <point x="72" y="780"/>
    </contour>
  </outline>
</glyph>
<glyph name="ibreve" format="1">
  <advance width="240"/>
  <unicode hex="012D"/>
  <outline>
    <contour>
      <point x="76" y="0" type="line" name="hr00"/>
      <point x="164" y="0" type="line"/>
      <point x="164" y="488" type="line"/>
      <point x="76" y="488" type="line"/>
    </contour>
    <contour>
      <point x="120" y="580" type="curve" smooth="yes"/>
      <point x="182" y="580"/>
      <point x="253" y="614"/>
      <point x="264" y="720" type="curve"/>
      <point x="208" y="720" type="line"/>
      <point x="200" y="668"/>
      <point x="172" y="636"/>
      <point x="120" y="636" type="curve" smooth="yes"/>
      <point x="68" y="636"/>
      <point x="40" y="668"/>
      <point x="32" y="720" type="curve"/>
      <point x="-24" y="720" type="line"/>
      <point x="-13" y="614"/>
      <point x="58" y="580"/>
    </contour>
  </outline>
</glyph>
<glyph name="Iogonek" format="2">
  <advance width="268"/>
  <unicode hex="012E"/>
  <outline>
    <contour>
      <point x="88" y="0" type="line" name="hr01"/>
      <point x="130" y="0" type="line" name="hr02"/>
      <point x="72" y="-47"/>
      <point x="50" y="-87"/>
      <point x="50" y="-128" type="curve" smooth="yes"/>
      <point x="50" y="-181"/>
      <point x="89" y="-220"/>
      <point x="162" y="-220" type="curve" smooth="yes"/>
      <point x="202" y="-220" type="line"/>
      <point x="202" y="-160" type="line"/>
      <point x="174" y="-160" type="line" smooth="yes"/>
      <point x="133" y="-160"/>
      <point x="118" y="-141"/>
      <point x="118" y="-112" type="curve" smooth="yes"/>
      <point x="118" y="-84"/>
      <point x="135" y="-45"/>
      <point x="178" y="0" type="curve" name="hr03"/>
      <point x="180" y="0" type="line"/>
      <point x="180" y="688" type="line"/>
      <point x="88" y="688" type="line"/>
    </contour>
  </outline>
</glyph>
<glyph name="iogonek" format="1">
  <advance width="240"/>
  <unicode hex="012F"/>
  <outline>
    <contour>
      <point x="76" y="0" type="line" name="hr01"/>
      <point x="116" y="0" type="line" name="hr02"/>
      <point x="58" y="-47"/>
      <point x="36" y="-87"/>
      <point x="36" y="-128" type="curve" smooth="yes"/>
      <point x="36" y="-181"/>
      <point x="75" y="-220"/>
      <point x="148" y="-220" type="curve" smooth="yes"/>
      <point x="188" y="-220" type="line"/>
      <point x="188" y="-160" type="line"/>
      <point x="160" y="-160" type="line" smooth="yes"/>
      <point x="119" y="-160"/>
      <point x="104" y="-141"/>
      <point x="104" y="-112" type="curve" smooth="yes"/>
      <point x="104" y="-84"/>
      <point x="121" y="-45"/>
      <point x="164" y="0" type="curve" name="hr03"/>
      <point x="164" y="488" type="line"/>
      <point x="76" y="488" type="line"/>
    </contour>
    <contour>
      <point x="72" y="632" type="line" name="hr04"/>
      <point x="168" y="632" type="line"/>
      <point x="168" y="732" type="line"/>
      <point x="72" y="732" type="line"/>
    </contour>
  </outline>
</glyph>
<glyph name="Idotaccent" format="1">
  <advance width="268"/>
  <unicode hex="0130"/>
  <outline>
    <contour>
      <point x="88" y="0" type="line" name="hr00"/>
      <point x="180" y="0" type="line"/>
      <point x="180" y="688" type="line"/>
      <point x="88" y="688" type="line"/>
    </contour>
    <contour>
      <point x="90" y="804" type="line"/>
      <point x="178" y="804" type="line"/>
      <point x="178" y="896" type="line"/>
      <point x="90" y="896" type="line"/>
    </contour>
  </outline>
</glyph>
<glyph name="dotlessi" format="2">
  <advance width="240"/>
  <unicode hex="0131"/>
  <outline>
    <contour>
      <point x="76" y="0" type="line" name="hr00"/>
      <point x="164" y="0" type="line"/>
      <point x="164" y="488" type="line"/>
      <point x="76" y="488" type="line"/>
    </contour>
  </outline>
</glyph>
<glyph name="IJ" format="2">
  <advance width="784"/>
  <unicode hex="0132"/>
  <outline>
    <contour>
      <point x="88" y="0" type="line" name="hr01"/>
      <point x="180" y="0" type="line"/>
      <point x="180" y="688" type="line"/>
      <point x="88" y="688" type="line"/>
    </contour>
    <contour>
      <point x="308" y="196" type="line" smooth="yes"/>
      <point x="308" y="46"/>
      <point x="391" y="-12"/>
      <point x="508" y="-12" type="curve" smooth="yes" name="hr02"/>
      <point x="625" y="-12"/>
      <point x="708" y="46"/>
      <point x="708" y="196" type="curve" smooth="yes"/>
      <point x="708" y="688" type="line"/>
      <point x="616" y="688" type="line"/>
      <point x="616" y="200" type="line" smooth="yes"/>
      <point x="616" y="102"/>
      <point x="570" y="68"/>
      <point x="508" y="68" type="curve" smooth="yes"/>
      <point x="446" y="68"/>
      <point x="400" y="102"/>
      <point x="400" y="200" type="curve" smooth="yes"/>
      <point x="400" y="228" type="line"/>
      <point x="308" y="228" type="line"/>
    </contour>
  </outline>
</glyph>
<glyph name="ij" format="1">
  <advance width="480"/>
  <unicode hex="0133"/>
  <outline>
    <contour>
      <point x="72" y="632" type="line"/>
      <point x="168" y="632" type="line"/>
      <point x="168" y="732" type="line"/>
      <point x="72" y="732" type="line"/>
    </contour>
    <contour>
      <point x="76" y="0" type="line"/>
      <point x="164" y="0" type="line"/>
      <point x="164" y="488" type="line"/>
      <point x="76" y="488" type="line"/>
    </contour>
    <contour>
      <point x="312" y="632" type="line"/>
      <point x="408" y="632" type="line"/>
      <point x="408" y="732" type="line"/>
      <point x="312" y="732" type="line"/>
    </contour>
    <contour>
      <point x="316" y="-72" type="line" smooth="yes"/>
      <point x="316" y="-120"/>
      <point x="302" y="-144"/>
      <point x="260" y="-144" type="curve" smooth="yes"/>
      <point x="236" y="-144" type="line"/>
      <point x="236" y="-220" type="line"/>
      <point x="268" y="-220" type="line" smooth="yes"/>
      <point x="368" y="-220"/>
      <point x="404" y="-164"/>
      <point x="404" y="-88" type="curve" smooth="yes"/>
      <point x="404" y="488" type="line"/>
      <point x="316" y="488" type="line"/>
    </contour>
  </outline>
</glyph>
<glyph name="Jcircumflex" format="1">
  <advance width="512"/>
  <unicode hex="0134"/>
  <outline>
    <contour>
      <point x="36" y="196" type="line" smooth="yes"/>
      <point x="36" y="46"/>
      <point x="119" y="-12"/>
      <point x="236" y="-12" type="curve" smooth="yes"/>
      <point x="353" y="-12"/>
      <point x="436" y="46"/>
      <point x="436" y="196" type="curve" smooth="yes"/>
      <point x="436" y="688" type="line"/>
      <point x="344" y="688" type="line"/>
      <point x="344" y="204" type="line" smooth="yes"/>
      <point x="344" y="106"/>
      <point x="298" y="68"/>
      <point x="236" y="68" type="curve" smooth="yes"/>
      <point x="174" y="68"/>
      <point x="128" y="106"/>
      <point x="128" y="204" type="curve" smooth="yes"/>
      <point x="128" y="228" type="line"/>
      <point x="36" y="228" type="line"/>
    </contour>
    <contour>
      <point x="226" y="768" type="line"/>
      <point x="310" y="768" type="line"/>
      <point x="394" y="880" type="line"/>
      <point x="478" y="768" type="line"/>
      <point x="562" y="768" type="line"/>
      <point x="434" y="932" type="line"/>
      <point x="354" y="932" type="line"/>
    </contour>
  </outline>
</glyph>
<glyph name="jcircumflex" format="1">
  <advance width="240"/>
  <unicode hex="0135"/>
  <outline>
    <contour>
      <point x="76" y="-72" type="line" smooth="yes"/>
      <point x="76" y="-120"/>
      <point x="62" y="-144"/>
      <point x="20" y="-144" type="curve" smooth="yes"/>
      <point x="-4" y="-144" type="line"/>
      <point x="-4" y="-220" type="line"/>
      <point x="28" y="-220" type="line" smooth="yes"/>
      <point x="128" y="-220"/>
      <point x="164" y="-164"/>
      <point x="164" y="-88" type="curve" smooth="yes"/>
      <point x="164" y="488" type="line"/>
      <point x="76" y="488" type="line"/>
    </contour>
    <contour>
      <point x="-48" y="568" type="line"/>
      <point x="36" y="568" type="line"/>
      <point x="120" y="680" type="line"/>
      <point x="204" y="568" type="line"/>
      <point x="288" y="568" type="line"/>
      <point x="160" y="732" type="line"/>
      <point x="80" y="732" type="line"/>
    </contour>
  </outline>
</glyph>
<glyph name="uni0136" format="2">
  <advance width="652"/>
  <unicode hex="0136"/>
  <outline>
    <contour>
      <point x="88" y="0" type="line" name="hr00"/>
      <point x="180" y="0" type="line"/>
      <point x="180" y="210" type="line"/>
      <point x="288" y="325" type="line"/>
      <point x="540" y="0" type="line"/>
      <point x="644" y="0" type="line"/>
      <point x="349" y="389" type="line"/>
      <point x="632" y="688" type="line"/>
      <point x="524" y="688" type="line"/>
      <point x="180" y="318" type="line"/>
      <point x="180" y="688" type="line"/>
      <point x="88" y="688" type="line"/>
    </contour>
    <contour>
      <point x="296" y="-68" type="line"/>
      <point x="296" y="-156" type="line"/>
      <point x="333" y="-156" type="line"/>
      <point x="307" y="-248" type="line"/>
      <point x="347" y="-248" type="line"/>
      <point x="384" y="-146" type="line"/>
      <point x="384" y="-68" type="line"/>
    </contour>
  </outline>
</glyph>
<glyph name="uni0137" format="1">
  <advance width="504"/>
  <unicode hex="0137"/>
  <outline>
    <contour>
      <point x="76" y="0" type="line" name="hr00"/>
      <point x="164" y="0" type="line"/>
      <point x="164" y="147" type="line"/>
      <point x="239" y="229" type="line"/>
      <point x="396" y="0" type="line"/>
      <point x="500" y="0" type="line"/>
      <point x="299" y="293" type="line"/>
      <point x="480" y="488" type="line"/>
      <point x="376" y="488" type="line"/>
      <point x="164" y="253" type="line"/>
      <point x="164" y="732" type="line"/>
      <point x="76" y="732" type="line"/>
    </contour>
    <contour>
      <point x="224" y="-68" type="line"/>
      <point x="224" y="-156" type="line"/>
      <point x="261" y="-156" type="line"/>
      <point x="235" y="-248" type="line"/>
      <point x="275" y="-248" type="line"/>
      <point x="312" y="-146" type="line"/>
      <point x="312" y="-68" type="line"/>
    </contour>
  </outline>
</glyph>
<glyph name="Lacute" format="1">
  <advance width="544"/>
  <unicode hex="0139"/>
  <outline>
    <contour>
      <point x="88" y="0" type="line" name="hr00"/>
      <point x="516" y="0" type="line"/>
      <point x="516" y="80" type="line"/>
      <point x="180" y="80" type="line"/>
      <point x="180" y="688" type="line"/>
      <point x="88" y="688" type="line"/>
    </contour>
    <contour>
      <point x="100" y="768" type="line"/>
      <point x="164" y="768" type="line"/>
      <point x="308" y="932" type="line"/>
      <point x="204" y="932" type="line"/>
    </contour>
  </outline>
</glyph>
<glyph name="lacute" format="2">
  <advance width="240"/>
  <unicode hex="013A"/>
  <outline>
    <contour>
      <point x="76" y="0" type="line" name="hr00"/>
      <point x="164" y="0" type="line"/>
      <point x="164" y="732" type="line"/>
      <point x="76" y="732" type="line"/>
    </contour>
    <contour>
      <point x="88" y="812" type="line"/>
      <point x="152" y="812" type="line"/>
      <point x="296" y="976" type="line"/>
      <point x="192" y="976" type="line"/>
    </contour>
  </outline>
</glyph>
<glyph name="uni013B" format="1">
  <advance width="544"/>
  <unicode hex="013B"/>
  <outline>
    <contour>
      <point x="88" y="0" type="line"/>
      <point x="516" y="0" type="line"/>
      <point x="516" y="80" type="line"/>
      <point x="180" y="80" type="line"/>
      <point x="180" y="688" type="line"/>
      <point x="88" y="688" type="line"/>
    </contour>
    <contour>
      <point x="252" y="-68" type="line"/>
      <point x="252" y="-156" type="line"/>
      <point x="289" y="-156" type="line"/>
      <point x="263" y="-248" type="line"/>
      <point x="303" y="-248" type="line"/>
      <point x="340" y="-146" type="line"/>
      <point x="340" y="-68" type="line"/>
    </contour>
  </outline>
</glyph>
<glyph name="uni013C" format="1">
  <advance width="240"/>
  <unicode hex="013C"/>
  <outline>
    <contour>
      <point x="76" y="0" type="line" name="hr00"/>
      <point x="164" y="0" type="line"/>
      <point x="164" y="732" type="line"/>
      <point x="76" y="732" type="line"/>
    </contour>
    <contour>
      <point x="76" y="-68" type="line"/>
      <point x="76" y="-156" type="line"/>
      <point x="113" y="-156" type="line"/>
      <point x="87" y="-248" type="line"/>
      <point x="127" y="-248" type="line"/>
      <point x="164" y="-146" type="line"/>
      <point x="164" y="-68" type="line"/>
    </contour>
  </outline>
</glyph>
